M48
;DRILL file {KiCad (2015-05-26 BZR 5680)-product} date Wednesday, May 27, 2015 'AMt' 09:24:46 AM
;FORMAT={2:4/ absolute / inch / suppress leading zeros}
FMAT,2
INCH,TZ
T1C0.036
T2C0.040
T3C0.128
%
G90
G05
M72
T1
X58000Y-35673
X58000Y-42673
X58500Y-34673
X58500Y-41673
X59000Y-35673
X59000Y-42673
X59500Y-34673
X59500Y-41673
X60000Y-35673
X60000Y-42673
X60500Y-34673
X60500Y-41673
X61000Y-35673
X61000Y-42673
X61500Y-34673
X61500Y-41673
X64500Y-35673
X64500Y-42673
X65000Y-34673
X65000Y-41673
X65500Y-35673
X65500Y-42673
X66000Y-34673
X66000Y-41673
X66500Y-35673
X66500Y-42673
X67000Y-34673
X67000Y-41673
X67500Y-35673
X67500Y-42673
X68000Y-34673
X68000Y-41673
X71000Y-35673
X71000Y-42673
X71500Y-34673
X71500Y-41673
X72000Y-35673
X72000Y-42673
X72500Y-34673
X72500Y-41673
X73000Y-35673
X73000Y-42673
X73500Y-34673
X73500Y-41673
X74000Y-35673
X74000Y-42673
X74500Y-34673
X74500Y-41673
X77500Y-35673
X77500Y-42673
X78000Y-34673
X78000Y-41673
X78500Y-35673
X78500Y-42673
X79000Y-34673
X79000Y-41673
X79500Y-35673
X79500Y-42673
X80000Y-34673
X80000Y-41673
X80500Y-35673
X80500Y-42673
X81000Y-34673
X81000Y-41673
T2
X57000Y-50500
X57000Y-50500
X57000Y-50500
X57000Y-50500
X57000Y-50500
X57000Y-50500
X57000Y-50500
X57000Y-50500
X57000Y-53650
X57000Y-53650
X57000Y-53650
X57000Y-53650
X57000Y-53650
X57000Y-53650
X57000Y-53650
X57000Y-53650
X58000Y-50500
X58000Y-50500
X58000Y-50500
X58000Y-50500
X58000Y-50500
X58000Y-50500
X58000Y-50500
X58000Y-50500
X58000Y-53650
X58000Y-53650
X58000Y-53650
X58000Y-53650
X58000Y-53650
X58000Y-53650
X58000Y-53650
X58000Y-53650
X59000Y-50500
X59000Y-50500
X59000Y-50500
X59000Y-50500
X59000Y-50500
X59000Y-50500
X59000Y-50500
X59000Y-50500
X59000Y-53650
X59000Y-53650
X59000Y-53650
X59000Y-53650
X59000Y-53650
X59000Y-53650
X59000Y-53650
X59000Y-53650
X60000Y-50500
X60000Y-50500
X60000Y-50500
X60000Y-50500
X60000Y-50500
X60000Y-50500
X60000Y-50500
X60000Y-50500
X60000Y-53650
X60000Y-53650
X60000Y-53650
X60000Y-53650
X60000Y-53650
X60000Y-53650
X60000Y-53650
X60000Y-53650
X62906Y-50500
X62906Y-50500
X62906Y-50500
X62906Y-50500
X62906Y-50500
X62906Y-50500
X62906Y-50500
X62906Y-50500
X62906Y-53650
X62906Y-53650
X62906Y-53650
X62906Y-53650
X62906Y-53650
X62906Y-53650
X62906Y-53650
X62906Y-53650
X63906Y-50500
X63906Y-50500
X63906Y-50500
X63906Y-50500
X63906Y-50500
X63906Y-50500
X63906Y-50500
X63906Y-50500
X63906Y-53650
X63906Y-53650
X63906Y-53650
X63906Y-53650
X63906Y-53650
X63906Y-53650
X63906Y-53650
X63906Y-53650
X64906Y-50500
X64906Y-50500
X64906Y-50500
X64906Y-50500
X64906Y-50500
X64906Y-50500
X64906Y-50500
X64906Y-50500
X64906Y-53650
X64906Y-53650
X64906Y-53650
X64906Y-53650
X64906Y-53650
X64906Y-53650
X64906Y-53650
X64906Y-53650
X65906Y-50500
X65906Y-50500
X65906Y-50500
X65906Y-50500
X65906Y-50500
X65906Y-50500
X65906Y-50500
X65906Y-50500
X65906Y-53650
X65906Y-53650
X65906Y-53650
X65906Y-53650
X65906Y-53650
X65906Y-53650
X65906Y-53650
X65906Y-53650
X68811Y-50500
X68811Y-50500
X68811Y-50500
X68811Y-50500
X68811Y-50500
X68811Y-50500
X68811Y-50500
X68811Y-50500
X68811Y-53650
X68811Y-53650
X68811Y-53650
X68811Y-53650
X68811Y-53650
X68811Y-53650
X68811Y-53650
X68811Y-53650
X69811Y-50500
X69811Y-50500
X69811Y-50500
X69811Y-50500
X69811Y-50500
X69811Y-50500
X69811Y-50500
X69811Y-50500
X69811Y-53650
X69811Y-53650
X69811Y-53650
X69811Y-53650
X69811Y-53650
X69811Y-53650
X69811Y-53650
X69811Y-53650
X70811Y-50500
X70811Y-50500
X70811Y-50500
X70811Y-50500
X70811Y-50500
X70811Y-50500
X70811Y-50500
X70811Y-50500
X70811Y-53650
X70811Y-53650
X70811Y-53650
X70811Y-53650
X70811Y-53650
X70811Y-53650
X70811Y-53650
X70811Y-53650
X71811Y-50500
X71811Y-50500
X71811Y-50500
X71811Y-50500
X71811Y-50500
X71811Y-50500
X71811Y-50500
X71811Y-50500
X71811Y-53650
X71811Y-53650
X71811Y-53650
X71811Y-53650
X71811Y-53650
X71811Y-53650
X71811Y-53650
X71811Y-53650
X74717Y-50500
X74717Y-50500
X74717Y-50500
X74717Y-50500
X74717Y-50500
X74717Y-50500
X74717Y-50500
X74717Y-50500
X74717Y-53650
X74717Y-53650
X74717Y-53650
X74717Y-53650
X74717Y-53650
X74717Y-53650
X74717Y-53650
X74717Y-53650
X75717Y-50500
X75717Y-50500
X75717Y-50500
X75717Y-50500
X75717Y-50500
X75717Y-50500
X75717Y-50500
X75717Y-50500
X75717Y-53650
X75717Y-53650
X75717Y-53650
X75717Y-53650
X75717Y-53650
X75717Y-53650
X75717Y-53650
X75717Y-53650
X76717Y-50500
X76717Y-50500
X76717Y-50500
X76717Y-50500
X76717Y-50500
X76717Y-50500
X76717Y-50500
X76717Y-50500
X76717Y-53650
X76717Y-53650
X76717Y-53650
X76717Y-53650
X76717Y-53650
X76717Y-53650
X76717Y-53650
X76717Y-53650
X77717Y-50500
X77717Y-50500
X77717Y-50500
X77717Y-50500
X77717Y-50500
X77717Y-50500
X77717Y-50500
X77717Y-50500
X77717Y-53650
X77717Y-53650
X77717Y-53650
X77717Y-53650
X77717Y-53650
X77717Y-53650
X77717Y-53650
X77717Y-53650
T3
X57500Y-38173
X57500Y-45173
X62000Y-38173
X62000Y-45173
X64000Y-38173
X64000Y-45173
X68500Y-38173
X68500Y-45173
X70500Y-38173
X70500Y-45173
X75000Y-38173
X75000Y-45173
X77000Y-38173
X77000Y-45173
X81500Y-38173
X81500Y-45173
T0
M30
