M48
;DRILL file {KiCad (2015-05-23 BZR 5679)-product} date Wednesday, May 27, 2015 'PMt' 12:22:27 PM
;FORMAT={-:-/ absolute / inch / decimal}
FMAT,2
INCH,TZ
T1C0.036
T2C0.040
T3C0.128
%
G90
G05
M72
T1
X5.8Y-3.5673
X5.8Y-4.2673
X5.85Y-3.4673
X5.85Y-4.1673
X5.9Y-3.5673
X5.9Y-4.2673
X5.95Y-3.4673
X5.95Y-4.1673
X6.Y-3.5673
X6.Y-4.2673
X6.05Y-3.4673
X6.05Y-4.1673
X6.1Y-3.5673
X6.1Y-4.2673
X6.15Y-3.4673
X6.15Y-4.1673
X6.45Y-3.5673
X6.45Y-4.2673
X6.5Y-3.4673
X6.5Y-4.1673
X6.55Y-3.5673
X6.55Y-4.2673
X6.6Y-3.4673
X6.6Y-4.1673
X6.65Y-3.5673
X6.65Y-4.2673
X6.7Y-3.4673
X6.7Y-4.1673
X6.75Y-3.5673
X6.75Y-4.2673
X6.8Y-3.4673
X6.8Y-4.1673
X7.1Y-3.5673
X7.1Y-4.2673
X7.15Y-3.4673
X7.15Y-4.1673
X7.2Y-3.5673
X7.2Y-4.2673
X7.25Y-3.4673
X7.25Y-4.1673
X7.3Y-3.5673
X7.3Y-4.2673
X7.35Y-3.4673
X7.35Y-4.1673
X7.4Y-3.5673
X7.4Y-4.2673
X7.45Y-3.4673
X7.45Y-4.1673
X7.75Y-3.5673
X7.75Y-4.2673
X7.8Y-3.4673
X7.8Y-4.1673
X7.85Y-3.5673
X7.85Y-4.2673
X7.9Y-3.4673
X7.9Y-4.1673
X7.95Y-3.5673
X7.95Y-4.2673
X8.Y-3.4673
X8.Y-4.1673
X8.05Y-3.5673
X8.05Y-4.2673
X8.1Y-3.4673
X8.1Y-4.1673
T2
X5.7Y-5.05
X5.7Y-5.365
X5.8Y-5.05
X5.8Y-5.365
X5.9Y-5.05
X5.9Y-5.365
X6.Y-5.05
X6.Y-5.365
X6.2906Y-5.05
X6.2906Y-5.365
X6.3906Y-5.05
X6.3906Y-5.365
X6.4906Y-5.05
X6.4906Y-5.365
X6.5906Y-5.05
X6.5906Y-5.365
X6.8811Y-5.05
X6.8811Y-5.365
X6.9811Y-5.05
X6.9811Y-5.365
X7.0811Y-5.05
X7.0811Y-5.365
X7.1811Y-5.05
X7.1811Y-5.365
X7.4717Y-5.05
X7.4717Y-5.365
X7.5717Y-5.05
X7.5717Y-5.365
X7.6717Y-5.05
X7.6717Y-5.365
X7.7717Y-5.05
X7.7717Y-5.365
T3
X5.75Y-3.8173
X5.75Y-4.5173
X6.2Y-3.8173
X6.2Y-4.5173
X6.4Y-3.8173
X6.4Y-4.5173
X6.85Y-3.8173
X6.85Y-4.5173
X7.05Y-3.8173
X7.05Y-4.5173
X7.5Y-3.8173
X7.5Y-4.5173
X7.7Y-3.8173
X7.7Y-4.5173
X8.15Y-3.8173
X8.15Y-4.5173
T0
M30
