G04 #@! TF.FileFunction,Copper,L2,Bot,Signal*
%FSLAX46Y46*%
G04 Gerber Fmt 4.6, Leading zero omitted, Abs format (unit mm)*
G04 Created by KiCad (PCBNEW (2015-05-26 BZR 5680)-product) date Wednesday, May 27, 2015 'AMt' 09:24:48 AM*
%MOMM*%
G01*
G04 APERTURE LIST*
%ADD10C,0.100000*%
%ADD11R,1.727200X2.032000*%
%ADD12O,1.727200X2.032000*%
%ADD13C,1.371600*%
%ADD14C,3.250000*%
%ADD15C,0.250000*%
%ADD16C,0.254000*%
G04 APERTURE END LIST*
D10*
D11*
X189780000Y-136270000D03*
D12*
X192320000Y-136270000D03*
X194860000Y-136270000D03*
X197400000Y-136270000D03*
D11*
X174780000Y-136270000D03*
D12*
X177320000Y-136270000D03*
X179860000Y-136270000D03*
X182400000Y-136270000D03*
D11*
X159780000Y-136270000D03*
D12*
X162320000Y-136270000D03*
X164860000Y-136270000D03*
X167400000Y-136270000D03*
D11*
X144780000Y-136270000D03*
D12*
X147320000Y-136270000D03*
X149860000Y-136270000D03*
X152400000Y-136270000D03*
D11*
X189780000Y-128270000D03*
D12*
X192320000Y-128270000D03*
X194860000Y-128270000D03*
X197400000Y-128270000D03*
D11*
X174780000Y-128270000D03*
D12*
X177320000Y-128270000D03*
X179860000Y-128270000D03*
X182400000Y-128270000D03*
D11*
X159780000Y-128270000D03*
D12*
X162320000Y-128270000D03*
X164860000Y-128270000D03*
X167400000Y-128270000D03*
D11*
X189780000Y-136270000D03*
D12*
X192320000Y-136270000D03*
X194860000Y-136270000D03*
X197400000Y-136270000D03*
D11*
X174780000Y-136270000D03*
D12*
X177320000Y-136270000D03*
X179860000Y-136270000D03*
X182400000Y-136270000D03*
D11*
X159780000Y-136270000D03*
D12*
X162320000Y-136270000D03*
X164860000Y-136270000D03*
X167400000Y-136270000D03*
D11*
X144780000Y-136270000D03*
D12*
X147320000Y-136270000D03*
X149860000Y-136270000D03*
X152400000Y-136270000D03*
D11*
X189780000Y-128270000D03*
D12*
X192320000Y-128270000D03*
X194860000Y-128270000D03*
X197400000Y-128270000D03*
D11*
X174780000Y-128270000D03*
D12*
X177320000Y-128270000D03*
X179860000Y-128270000D03*
X182400000Y-128270000D03*
D11*
X159780000Y-128270000D03*
D12*
X162320000Y-128270000D03*
X164860000Y-128270000D03*
X167400000Y-128270000D03*
D11*
X189780000Y-136270000D03*
D12*
X192320000Y-136270000D03*
X194860000Y-136270000D03*
X197400000Y-136270000D03*
D11*
X174780000Y-136270000D03*
D12*
X177320000Y-136270000D03*
X179860000Y-136270000D03*
X182400000Y-136270000D03*
D11*
X159780000Y-136270000D03*
D12*
X162320000Y-136270000D03*
X164860000Y-136270000D03*
X167400000Y-136270000D03*
D11*
X144780000Y-136270000D03*
D12*
X147320000Y-136270000D03*
X149860000Y-136270000D03*
X152400000Y-136270000D03*
D11*
X189780000Y-128270000D03*
D12*
X192320000Y-128270000D03*
X194860000Y-128270000D03*
X197400000Y-128270000D03*
D11*
X174780000Y-128270000D03*
D12*
X177320000Y-128270000D03*
X179860000Y-128270000D03*
X182400000Y-128270000D03*
D11*
X159780000Y-128270000D03*
D12*
X162320000Y-128270000D03*
X164860000Y-128270000D03*
X167400000Y-128270000D03*
D11*
X189780000Y-136270000D03*
D12*
X192320000Y-136270000D03*
X194860000Y-136270000D03*
X197400000Y-136270000D03*
D11*
X174780000Y-136270000D03*
D12*
X177320000Y-136270000D03*
X179860000Y-136270000D03*
X182400000Y-136270000D03*
D11*
X159780000Y-136270000D03*
D12*
X162320000Y-136270000D03*
X164860000Y-136270000D03*
X167400000Y-136270000D03*
D11*
X144780000Y-136270000D03*
D12*
X147320000Y-136270000D03*
X149860000Y-136270000D03*
X152400000Y-136270000D03*
D11*
X189780000Y-128270000D03*
D12*
X192320000Y-128270000D03*
X194860000Y-128270000D03*
X197400000Y-128270000D03*
D11*
X174780000Y-128270000D03*
D12*
X177320000Y-128270000D03*
X179860000Y-128270000D03*
X182400000Y-128270000D03*
D11*
X159780000Y-128270000D03*
D12*
X162320000Y-128270000D03*
X164860000Y-128270000D03*
X167400000Y-128270000D03*
D11*
X189780000Y-136270000D03*
D12*
X192320000Y-136270000D03*
X194860000Y-136270000D03*
X197400000Y-136270000D03*
D11*
X174780000Y-136270000D03*
D12*
X177320000Y-136270000D03*
X179860000Y-136270000D03*
X182400000Y-136270000D03*
D11*
X159780000Y-136270000D03*
D12*
X162320000Y-136270000D03*
X164860000Y-136270000D03*
X167400000Y-136270000D03*
D11*
X144780000Y-136270000D03*
D12*
X147320000Y-136270000D03*
X149860000Y-136270000D03*
X152400000Y-136270000D03*
D11*
X189780000Y-128270000D03*
D12*
X192320000Y-128270000D03*
X194860000Y-128270000D03*
X197400000Y-128270000D03*
D11*
X174780000Y-128270000D03*
D12*
X177320000Y-128270000D03*
X179860000Y-128270000D03*
X182400000Y-128270000D03*
D11*
X159780000Y-128270000D03*
D12*
X162320000Y-128270000D03*
X164860000Y-128270000D03*
X167400000Y-128270000D03*
D11*
X189780000Y-136270000D03*
D12*
X192320000Y-136270000D03*
X194860000Y-136270000D03*
X197400000Y-136270000D03*
D11*
X174780000Y-136270000D03*
D12*
X177320000Y-136270000D03*
X179860000Y-136270000D03*
X182400000Y-136270000D03*
D11*
X159780000Y-136270000D03*
D12*
X162320000Y-136270000D03*
X164860000Y-136270000D03*
X167400000Y-136270000D03*
D11*
X144780000Y-136270000D03*
D12*
X147320000Y-136270000D03*
X149860000Y-136270000D03*
X152400000Y-136270000D03*
D11*
X189780000Y-128270000D03*
D12*
X192320000Y-128270000D03*
X194860000Y-128270000D03*
X197400000Y-128270000D03*
D11*
X174780000Y-128270000D03*
D12*
X177320000Y-128270000D03*
X179860000Y-128270000D03*
X182400000Y-128270000D03*
D11*
X159780000Y-128270000D03*
D12*
X162320000Y-128270000D03*
X164860000Y-128270000D03*
X167400000Y-128270000D03*
D11*
X189780000Y-136270000D03*
D12*
X192320000Y-136270000D03*
X194860000Y-136270000D03*
X197400000Y-136270000D03*
D11*
X174780000Y-136270000D03*
D12*
X177320000Y-136270000D03*
X179860000Y-136270000D03*
X182400000Y-136270000D03*
D11*
X159780000Y-136270000D03*
D12*
X162320000Y-136270000D03*
X164860000Y-136270000D03*
X167400000Y-136270000D03*
D11*
X144780000Y-136270000D03*
D12*
X147320000Y-136270000D03*
X149860000Y-136270000D03*
X152400000Y-136270000D03*
D11*
X189780000Y-128270000D03*
D12*
X192320000Y-128270000D03*
X194860000Y-128270000D03*
X197400000Y-128270000D03*
D11*
X174780000Y-128270000D03*
D12*
X177320000Y-128270000D03*
X179860000Y-128270000D03*
X182400000Y-128270000D03*
D11*
X159780000Y-128270000D03*
D12*
X162320000Y-128270000D03*
X164860000Y-128270000D03*
X167400000Y-128270000D03*
D11*
X189780000Y-136270000D03*
D12*
X192320000Y-136270000D03*
X194860000Y-136270000D03*
X197400000Y-136270000D03*
D11*
X174780000Y-136270000D03*
D12*
X177320000Y-136270000D03*
X179860000Y-136270000D03*
X182400000Y-136270000D03*
D11*
X159780000Y-136270000D03*
D12*
X162320000Y-136270000D03*
X164860000Y-136270000D03*
X167400000Y-136270000D03*
D11*
X144780000Y-136270000D03*
D12*
X147320000Y-136270000D03*
X149860000Y-136270000D03*
X152400000Y-136270000D03*
D11*
X189780000Y-128270000D03*
D12*
X192320000Y-128270000D03*
X194860000Y-128270000D03*
X197400000Y-128270000D03*
D11*
X174780000Y-128270000D03*
D12*
X177320000Y-128270000D03*
X179860000Y-128270000D03*
X182400000Y-128270000D03*
D11*
X159780000Y-128270000D03*
D12*
X162320000Y-128270000D03*
X164860000Y-128270000D03*
X167400000Y-128270000D03*
D11*
X144780000Y-128270000D03*
D12*
X147320000Y-128270000D03*
X149860000Y-128270000D03*
X152400000Y-128270000D03*
D13*
X156210000Y-88070000D03*
X153670000Y-88070000D03*
X147320000Y-90610000D03*
X148590000Y-88070000D03*
X149860000Y-90610000D03*
X151130000Y-88070000D03*
X152400000Y-90610000D03*
X154940000Y-90610000D03*
D14*
X146050000Y-96960000D03*
X157480000Y-96960000D03*
D11*
X144780000Y-128270000D03*
D12*
X147320000Y-128270000D03*
X149860000Y-128270000D03*
X152400000Y-128270000D03*
D11*
X144780000Y-128270000D03*
D12*
X147320000Y-128270000D03*
X149860000Y-128270000D03*
X152400000Y-128270000D03*
D11*
X144780000Y-128270000D03*
D12*
X147320000Y-128270000D03*
X149860000Y-128270000D03*
X152400000Y-128270000D03*
D11*
X144780000Y-128270000D03*
D12*
X147320000Y-128270000D03*
X149860000Y-128270000D03*
X152400000Y-128270000D03*
D11*
X144780000Y-128270000D03*
D12*
X147320000Y-128270000D03*
X149860000Y-128270000D03*
X152400000Y-128270000D03*
D11*
X144780000Y-128270000D03*
D12*
X147320000Y-128270000D03*
X149860000Y-128270000D03*
X152400000Y-128270000D03*
D11*
X144780000Y-128270000D03*
D12*
X147320000Y-128270000D03*
X149860000Y-128270000D03*
X152400000Y-128270000D03*
D13*
X172720000Y-88070000D03*
X170180000Y-88070000D03*
X163830000Y-90610000D03*
X165100000Y-88070000D03*
X166370000Y-90610000D03*
X167640000Y-88070000D03*
X168910000Y-90610000D03*
X171450000Y-90610000D03*
D14*
X162560000Y-96960000D03*
X173990000Y-96960000D03*
D13*
X189230000Y-88070000D03*
X186690000Y-88070000D03*
X180340000Y-90610000D03*
X181610000Y-88070000D03*
X182880000Y-90610000D03*
X184150000Y-88070000D03*
X185420000Y-90610000D03*
X187960000Y-90610000D03*
D14*
X179070000Y-96960000D03*
X190500000Y-96960000D03*
D13*
X205740000Y-88070000D03*
X203200000Y-88070000D03*
X196850000Y-90610000D03*
X198120000Y-88070000D03*
X199390000Y-90610000D03*
X200660000Y-88070000D03*
X201930000Y-90610000D03*
X204470000Y-90610000D03*
D14*
X195580000Y-96960000D03*
X207010000Y-96960000D03*
D13*
X156210000Y-105850000D03*
X153670000Y-105850000D03*
X147320000Y-108390000D03*
X148590000Y-105850000D03*
X149860000Y-108390000D03*
X151130000Y-105850000D03*
X152400000Y-108390000D03*
X154940000Y-108390000D03*
D14*
X146050000Y-114740000D03*
X157480000Y-114740000D03*
D13*
X172720000Y-105850000D03*
X170180000Y-105850000D03*
X163830000Y-108390000D03*
X165100000Y-105850000D03*
X166370000Y-108390000D03*
X167640000Y-105850000D03*
X168910000Y-108390000D03*
X171450000Y-108390000D03*
D14*
X162560000Y-114740000D03*
X173990000Y-114740000D03*
D13*
X189230000Y-105850000D03*
X186690000Y-105850000D03*
X180340000Y-108390000D03*
X181610000Y-105850000D03*
X182880000Y-108390000D03*
X184150000Y-105850000D03*
X185420000Y-108390000D03*
X187960000Y-108390000D03*
D14*
X179070000Y-114740000D03*
X190500000Y-114740000D03*
D13*
X205740000Y-105850000D03*
X203200000Y-105850000D03*
X196850000Y-108390000D03*
X198120000Y-105850000D03*
X199390000Y-108390000D03*
X200660000Y-105850000D03*
X201930000Y-108390000D03*
X204470000Y-108390000D03*
D14*
X195580000Y-114740000D03*
X207010000Y-114740000D03*
D15*
X154940000Y-108390000D02*
X148508610Y-114821390D01*
X148508610Y-114821390D02*
X148508610Y-135625262D01*
X148508610Y-135625262D02*
X148508610Y-136270000D01*
X156210000Y-105850000D02*
X156210000Y-113123998D01*
X156210000Y-113123998D02*
X151048610Y-118285388D01*
X151048610Y-118285388D02*
X151048610Y-135625262D01*
X151048610Y-135625262D02*
X151048610Y-136270000D01*
X171450000Y-108390000D02*
X164367662Y-115472338D01*
X164367662Y-115472338D02*
X164367662Y-126928990D01*
X164367662Y-126928990D02*
X163508610Y-127788042D01*
X163508610Y-127788042D02*
X163508610Y-136270000D01*
X172720000Y-105850000D02*
X172720000Y-113123998D01*
X172720000Y-113123998D02*
X166048610Y-119795388D01*
X166048610Y-119795388D02*
X166048610Y-135625262D01*
X166048610Y-135625262D02*
X166048610Y-136270000D01*
X187960000Y-108390000D02*
X187960000Y-113757588D01*
X187960000Y-113757588D02*
X178508610Y-123208978D01*
X178508610Y-123208978D02*
X178508610Y-136270000D01*
X189230000Y-105850000D02*
X189230000Y-113123998D01*
X189230000Y-113123998D02*
X181048610Y-121305388D01*
X181048610Y-121305388D02*
X181048610Y-135625262D01*
X181048610Y-135625262D02*
X181048610Y-136270000D01*
X204470000Y-108390000D02*
X204470000Y-113757588D01*
X204470000Y-113757588D02*
X193508610Y-124718978D01*
X193508610Y-124718978D02*
X193508610Y-135625262D01*
X193508610Y-135625262D02*
X193508610Y-136270000D01*
X205740000Y-105850000D02*
X205740000Y-113123998D01*
X205740000Y-113123998D02*
X196048610Y-122815388D01*
X196048610Y-122815388D02*
X196048610Y-135625262D01*
X196048610Y-135625262D02*
X196048610Y-136270000D01*
D16*
G36*
X210770000Y-123775000D02*
X209270391Y-123775000D01*
X209270391Y-114292430D01*
X209270391Y-96512430D01*
X208927052Y-95681485D01*
X208291859Y-95045182D01*
X207461514Y-94700393D01*
X207061029Y-94700043D01*
X207061029Y-87808429D01*
X206860373Y-87322804D01*
X206489150Y-86950933D01*
X206003876Y-86749430D01*
X205478429Y-86748971D01*
X204992804Y-86949627D01*
X204620933Y-87320850D01*
X204476700Y-87668201D01*
X204359277Y-87384717D01*
X204124979Y-87324626D01*
X203945374Y-87504231D01*
X203945374Y-87145021D01*
X203885283Y-86910723D01*
X203389483Y-86736721D01*
X202864836Y-86765699D01*
X202514717Y-86910723D01*
X202454626Y-87145021D01*
X203200000Y-87890395D01*
X203945374Y-87145021D01*
X203945374Y-87504231D01*
X203379605Y-88070000D01*
X204124979Y-88815374D01*
X204359277Y-88755283D01*
X204467100Y-88448052D01*
X204619627Y-88817196D01*
X204990850Y-89189067D01*
X205476124Y-89390570D01*
X206001571Y-89391029D01*
X206487196Y-89190373D01*
X206859067Y-88819150D01*
X207060570Y-88333876D01*
X207061029Y-87808429D01*
X207061029Y-94700043D01*
X206562430Y-94699609D01*
X205791029Y-95018344D01*
X205791029Y-90348429D01*
X205590373Y-89862804D01*
X205219150Y-89490933D01*
X204733876Y-89289430D01*
X204208429Y-89288971D01*
X203945374Y-89397663D01*
X203945374Y-88994979D01*
X203200000Y-88249605D01*
X203020395Y-88429210D01*
X203020395Y-88070000D01*
X202275021Y-87324626D01*
X202040723Y-87384717D01*
X201939154Y-87674126D01*
X201819277Y-87384717D01*
X201584979Y-87324626D01*
X201405374Y-87504231D01*
X201405374Y-87145021D01*
X201345283Y-86910723D01*
X200849483Y-86736721D01*
X200324836Y-86765699D01*
X199974717Y-86910723D01*
X199914626Y-87145021D01*
X200660000Y-87890395D01*
X201405374Y-87145021D01*
X201405374Y-87504231D01*
X200839605Y-88070000D01*
X201584979Y-88815374D01*
X201819277Y-88755283D01*
X201920845Y-88465873D01*
X202040723Y-88755283D01*
X202275021Y-88815374D01*
X203020395Y-88070000D01*
X203020395Y-88429210D01*
X202454626Y-88994979D01*
X202514717Y-89229277D01*
X203010517Y-89403279D01*
X203535164Y-89374301D01*
X203885283Y-89229277D01*
X203945374Y-88994979D01*
X203945374Y-89397663D01*
X203722804Y-89489627D01*
X203350933Y-89860850D01*
X203206700Y-90208201D01*
X203089277Y-89924717D01*
X202854979Y-89864626D01*
X202675374Y-90044231D01*
X202675374Y-89685021D01*
X202615283Y-89450723D01*
X202119483Y-89276721D01*
X201594836Y-89305699D01*
X201405374Y-89384176D01*
X201405374Y-88994979D01*
X200660000Y-88249605D01*
X200480395Y-88429210D01*
X200480395Y-88070000D01*
X199735021Y-87324626D01*
X199500723Y-87384717D01*
X199392899Y-87691947D01*
X199240373Y-87322804D01*
X198869150Y-86950933D01*
X198383876Y-86749430D01*
X197858429Y-86748971D01*
X197372804Y-86949627D01*
X197000933Y-87320850D01*
X196799430Y-87806124D01*
X196798971Y-88331571D01*
X196999627Y-88817196D01*
X197370850Y-89189067D01*
X197856124Y-89390570D01*
X198381571Y-89391029D01*
X198867196Y-89190373D01*
X199239067Y-88819150D01*
X199383299Y-88471798D01*
X199500723Y-88755283D01*
X199735021Y-88815374D01*
X200480395Y-88070000D01*
X200480395Y-88429210D01*
X199914626Y-88994979D01*
X199974717Y-89229277D01*
X200470517Y-89403279D01*
X200995164Y-89374301D01*
X201345283Y-89229277D01*
X201405374Y-88994979D01*
X201405374Y-89384176D01*
X201244717Y-89450723D01*
X201184626Y-89685021D01*
X201930000Y-90430395D01*
X202675374Y-89685021D01*
X202675374Y-90044231D01*
X202109605Y-90610000D01*
X202854979Y-91355374D01*
X203089277Y-91295283D01*
X203197100Y-90988052D01*
X203349627Y-91357196D01*
X203720850Y-91729067D01*
X204206124Y-91930570D01*
X204731571Y-91931029D01*
X205217196Y-91730373D01*
X205589067Y-91359150D01*
X205790570Y-90873876D01*
X205791029Y-90348429D01*
X205791029Y-95018344D01*
X205731485Y-95042948D01*
X205095182Y-95678141D01*
X204750393Y-96508486D01*
X204749609Y-97407570D01*
X205092948Y-98238515D01*
X205728141Y-98874818D01*
X206558486Y-99219607D01*
X207457570Y-99220391D01*
X208288515Y-98877052D01*
X208924818Y-98241859D01*
X209269607Y-97411514D01*
X209270391Y-96512430D01*
X209270391Y-114292430D01*
X208927052Y-113461485D01*
X208291859Y-112825182D01*
X207461514Y-112480393D01*
X206562430Y-112479609D01*
X206500000Y-112505404D01*
X206500000Y-106957591D01*
X206859067Y-106599150D01*
X207060570Y-106113876D01*
X207061029Y-105588429D01*
X206860373Y-105102804D01*
X206489150Y-104730933D01*
X206003876Y-104529430D01*
X205478429Y-104528971D01*
X204992804Y-104729627D01*
X204620933Y-105100850D01*
X204476700Y-105448201D01*
X204359277Y-105164717D01*
X204124979Y-105104626D01*
X203945374Y-105284231D01*
X203945374Y-104925021D01*
X203885283Y-104690723D01*
X203389483Y-104516721D01*
X202864836Y-104545699D01*
X202675374Y-104624176D01*
X202675374Y-91534979D01*
X201930000Y-90789605D01*
X201750395Y-90969210D01*
X201750395Y-90610000D01*
X201005021Y-89864626D01*
X200770723Y-89924717D01*
X200662899Y-90231947D01*
X200510373Y-89862804D01*
X200139150Y-89490933D01*
X199653876Y-89289430D01*
X199128429Y-89288971D01*
X198642804Y-89489627D01*
X198270933Y-89860850D01*
X198119877Y-90224632D01*
X197970373Y-89862804D01*
X197599150Y-89490933D01*
X197113876Y-89289430D01*
X196588429Y-89288971D01*
X196102804Y-89489627D01*
X195730933Y-89860850D01*
X195529430Y-90346124D01*
X195528971Y-90871571D01*
X195729627Y-91357196D01*
X196100850Y-91729067D01*
X196586124Y-91930570D01*
X197111571Y-91931029D01*
X197597196Y-91730373D01*
X197969067Y-91359150D01*
X198120122Y-90995367D01*
X198269627Y-91357196D01*
X198640850Y-91729067D01*
X199126124Y-91930570D01*
X199651571Y-91931029D01*
X200137196Y-91730373D01*
X200509067Y-91359150D01*
X200653299Y-91011798D01*
X200770723Y-91295283D01*
X201005021Y-91355374D01*
X201750395Y-90610000D01*
X201750395Y-90969210D01*
X201184626Y-91534979D01*
X201244717Y-91769277D01*
X201740517Y-91943279D01*
X202265164Y-91914301D01*
X202615283Y-91769277D01*
X202675374Y-91534979D01*
X202675374Y-104624176D01*
X202514717Y-104690723D01*
X202454626Y-104925021D01*
X203200000Y-105670395D01*
X203945374Y-104925021D01*
X203945374Y-105284231D01*
X203379605Y-105850000D01*
X204124979Y-106595374D01*
X204359277Y-106535283D01*
X204467100Y-106228052D01*
X204619627Y-106597196D01*
X204980000Y-106958198D01*
X204980000Y-107171629D01*
X204733876Y-107069430D01*
X204208429Y-107068971D01*
X203945374Y-107177663D01*
X203945374Y-106774979D01*
X203200000Y-106029605D01*
X203020395Y-106209210D01*
X203020395Y-105850000D01*
X202275021Y-105104626D01*
X202040723Y-105164717D01*
X201939154Y-105454126D01*
X201819277Y-105164717D01*
X201584979Y-105104626D01*
X201405374Y-105284231D01*
X201405374Y-104925021D01*
X201345283Y-104690723D01*
X200849483Y-104516721D01*
X200324836Y-104545699D01*
X199974717Y-104690723D01*
X199914626Y-104925021D01*
X200660000Y-105670395D01*
X201405374Y-104925021D01*
X201405374Y-105284231D01*
X200839605Y-105850000D01*
X201584979Y-106595374D01*
X201819277Y-106535283D01*
X201920845Y-106245873D01*
X202040723Y-106535283D01*
X202275021Y-106595374D01*
X203020395Y-105850000D01*
X203020395Y-106209210D01*
X202454626Y-106774979D01*
X202514717Y-107009277D01*
X203010517Y-107183279D01*
X203535164Y-107154301D01*
X203885283Y-107009277D01*
X203945374Y-106774979D01*
X203945374Y-107177663D01*
X203722804Y-107269627D01*
X203350933Y-107640850D01*
X203206700Y-107988201D01*
X203089277Y-107704717D01*
X202854979Y-107644626D01*
X202675374Y-107824231D01*
X202675374Y-107465021D01*
X202615283Y-107230723D01*
X202119483Y-107056721D01*
X201594836Y-107085699D01*
X201405374Y-107164176D01*
X201405374Y-106774979D01*
X200660000Y-106029605D01*
X200480395Y-106209210D01*
X200480395Y-105850000D01*
X199735021Y-105104626D01*
X199500723Y-105164717D01*
X199392899Y-105471947D01*
X199240373Y-105102804D01*
X198869150Y-104730933D01*
X198383876Y-104529430D01*
X197858429Y-104528971D01*
X197840391Y-104536424D01*
X197840391Y-96512430D01*
X197497052Y-95681485D01*
X196861859Y-95045182D01*
X196031514Y-94700393D01*
X195132430Y-94699609D01*
X194301485Y-95042948D01*
X193665182Y-95678141D01*
X193320393Y-96508486D01*
X193319609Y-97407570D01*
X193662948Y-98238515D01*
X194298141Y-98874818D01*
X195128486Y-99219607D01*
X196027570Y-99220391D01*
X196858515Y-98877052D01*
X197494818Y-98241859D01*
X197839607Y-97411514D01*
X197840391Y-96512430D01*
X197840391Y-104536424D01*
X197372804Y-104729627D01*
X197000933Y-105100850D01*
X196799430Y-105586124D01*
X196798971Y-106111571D01*
X196999627Y-106597196D01*
X197370850Y-106969067D01*
X197856124Y-107170570D01*
X198381571Y-107171029D01*
X198867196Y-106970373D01*
X199239067Y-106599150D01*
X199383299Y-106251798D01*
X199500723Y-106535283D01*
X199735021Y-106595374D01*
X200480395Y-105850000D01*
X200480395Y-106209210D01*
X199914626Y-106774979D01*
X199974717Y-107009277D01*
X200470517Y-107183279D01*
X200995164Y-107154301D01*
X201345283Y-107009277D01*
X201405374Y-106774979D01*
X201405374Y-107164176D01*
X201244717Y-107230723D01*
X201184626Y-107465021D01*
X201930000Y-108210395D01*
X202675374Y-107465021D01*
X202675374Y-107824231D01*
X202109605Y-108390000D01*
X202854979Y-109135374D01*
X203089277Y-109075283D01*
X203197100Y-108768052D01*
X203349627Y-109137196D01*
X203710000Y-109498198D01*
X203710000Y-113442786D01*
X202675374Y-114477412D01*
X202675374Y-109314979D01*
X201930000Y-108569605D01*
X201750395Y-108749210D01*
X201750395Y-108390000D01*
X201005021Y-107644626D01*
X200770723Y-107704717D01*
X200662899Y-108011947D01*
X200510373Y-107642804D01*
X200139150Y-107270933D01*
X199653876Y-107069430D01*
X199128429Y-107068971D01*
X198642804Y-107269627D01*
X198270933Y-107640850D01*
X198119877Y-108004632D01*
X197970373Y-107642804D01*
X197599150Y-107270933D01*
X197113876Y-107069430D01*
X196588429Y-107068971D01*
X196102804Y-107269627D01*
X195730933Y-107640850D01*
X195529430Y-108126124D01*
X195528971Y-108651571D01*
X195729627Y-109137196D01*
X196100850Y-109509067D01*
X196586124Y-109710570D01*
X197111571Y-109711029D01*
X197597196Y-109510373D01*
X197969067Y-109139150D01*
X198120122Y-108775367D01*
X198269627Y-109137196D01*
X198640850Y-109509067D01*
X199126124Y-109710570D01*
X199651571Y-109711029D01*
X200137196Y-109510373D01*
X200509067Y-109139150D01*
X200653299Y-108791798D01*
X200770723Y-109075283D01*
X201005021Y-109135374D01*
X201750395Y-108390000D01*
X201750395Y-108749210D01*
X201184626Y-109314979D01*
X201244717Y-109549277D01*
X201740517Y-109723279D01*
X202265164Y-109694301D01*
X202615283Y-109549277D01*
X202675374Y-109314979D01*
X202675374Y-114477412D01*
X197840391Y-119312395D01*
X197840391Y-114292430D01*
X197497052Y-113461485D01*
X196861859Y-112825182D01*
X196031514Y-112480393D01*
X195132430Y-112479609D01*
X194301485Y-112822948D01*
X193665182Y-113458141D01*
X193320393Y-114288486D01*
X193319609Y-115187570D01*
X193662948Y-116018515D01*
X194298141Y-116654818D01*
X195128486Y-116999607D01*
X196027570Y-117000391D01*
X196858515Y-116657052D01*
X197494818Y-116021859D01*
X197839607Y-115191514D01*
X197840391Y-114292430D01*
X197840391Y-119312395D01*
X192971209Y-124181577D01*
X192806462Y-124428139D01*
X192760391Y-124659751D01*
X192760391Y-114292430D01*
X192760391Y-96512430D01*
X192417052Y-95681485D01*
X191781859Y-95045182D01*
X190951514Y-94700393D01*
X190551029Y-94700043D01*
X190551029Y-87808429D01*
X190350373Y-87322804D01*
X189979150Y-86950933D01*
X189493876Y-86749430D01*
X188968429Y-86748971D01*
X188482804Y-86949627D01*
X188110933Y-87320850D01*
X187966700Y-87668201D01*
X187849277Y-87384717D01*
X187614979Y-87324626D01*
X187435374Y-87504231D01*
X187435374Y-87145021D01*
X187375283Y-86910723D01*
X186879483Y-86736721D01*
X186354836Y-86765699D01*
X186004717Y-86910723D01*
X185944626Y-87145021D01*
X186690000Y-87890395D01*
X187435374Y-87145021D01*
X187435374Y-87504231D01*
X186869605Y-88070000D01*
X187614979Y-88815374D01*
X187849277Y-88755283D01*
X187957100Y-88448052D01*
X188109627Y-88817196D01*
X188480850Y-89189067D01*
X188966124Y-89390570D01*
X189491571Y-89391029D01*
X189977196Y-89190373D01*
X190349067Y-88819150D01*
X190550570Y-88333876D01*
X190551029Y-87808429D01*
X190551029Y-94700043D01*
X190052430Y-94699609D01*
X189281029Y-95018344D01*
X189281029Y-90348429D01*
X189080373Y-89862804D01*
X188709150Y-89490933D01*
X188223876Y-89289430D01*
X187698429Y-89288971D01*
X187435374Y-89397663D01*
X187435374Y-88994979D01*
X186690000Y-88249605D01*
X186510395Y-88429210D01*
X186510395Y-88070000D01*
X185765021Y-87324626D01*
X185530723Y-87384717D01*
X185429154Y-87674126D01*
X185309277Y-87384717D01*
X185074979Y-87324626D01*
X184895374Y-87504231D01*
X184895374Y-87145021D01*
X184835283Y-86910723D01*
X184339483Y-86736721D01*
X183814836Y-86765699D01*
X183464717Y-86910723D01*
X183404626Y-87145021D01*
X184150000Y-87890395D01*
X184895374Y-87145021D01*
X184895374Y-87504231D01*
X184329605Y-88070000D01*
X185074979Y-88815374D01*
X185309277Y-88755283D01*
X185410845Y-88465873D01*
X185530723Y-88755283D01*
X185765021Y-88815374D01*
X186510395Y-88070000D01*
X186510395Y-88429210D01*
X185944626Y-88994979D01*
X186004717Y-89229277D01*
X186500517Y-89403279D01*
X187025164Y-89374301D01*
X187375283Y-89229277D01*
X187435374Y-88994979D01*
X187435374Y-89397663D01*
X187212804Y-89489627D01*
X186840933Y-89860850D01*
X186696700Y-90208201D01*
X186579277Y-89924717D01*
X186344979Y-89864626D01*
X186165374Y-90044231D01*
X186165374Y-89685021D01*
X186105283Y-89450723D01*
X185609483Y-89276721D01*
X185084836Y-89305699D01*
X184895374Y-89384176D01*
X184895374Y-88994979D01*
X184150000Y-88249605D01*
X183970395Y-88429210D01*
X183970395Y-88070000D01*
X183225021Y-87324626D01*
X182990723Y-87384717D01*
X182882899Y-87691947D01*
X182730373Y-87322804D01*
X182359150Y-86950933D01*
X181873876Y-86749430D01*
X181348429Y-86748971D01*
X180862804Y-86949627D01*
X180490933Y-87320850D01*
X180289430Y-87806124D01*
X180288971Y-88331571D01*
X180489627Y-88817196D01*
X180860850Y-89189067D01*
X181346124Y-89390570D01*
X181871571Y-89391029D01*
X182357196Y-89190373D01*
X182729067Y-88819150D01*
X182873299Y-88471798D01*
X182990723Y-88755283D01*
X183225021Y-88815374D01*
X183970395Y-88070000D01*
X183970395Y-88429210D01*
X183404626Y-88994979D01*
X183464717Y-89229277D01*
X183960517Y-89403279D01*
X184485164Y-89374301D01*
X184835283Y-89229277D01*
X184895374Y-88994979D01*
X184895374Y-89384176D01*
X184734717Y-89450723D01*
X184674626Y-89685021D01*
X185420000Y-90430395D01*
X186165374Y-89685021D01*
X186165374Y-90044231D01*
X185599605Y-90610000D01*
X186344979Y-91355374D01*
X186579277Y-91295283D01*
X186687100Y-90988052D01*
X186839627Y-91357196D01*
X187210850Y-91729067D01*
X187696124Y-91930570D01*
X188221571Y-91931029D01*
X188707196Y-91730373D01*
X189079067Y-91359150D01*
X189280570Y-90873876D01*
X189281029Y-90348429D01*
X189281029Y-95018344D01*
X189221485Y-95042948D01*
X188585182Y-95678141D01*
X188240393Y-96508486D01*
X188239609Y-97407570D01*
X188582948Y-98238515D01*
X189218141Y-98874818D01*
X190048486Y-99219607D01*
X190947570Y-99220391D01*
X191778515Y-98877052D01*
X192414818Y-98241859D01*
X192759607Y-97411514D01*
X192760391Y-96512430D01*
X192760391Y-114292430D01*
X192417052Y-113461485D01*
X191781859Y-112825182D01*
X190951514Y-112480393D01*
X190052430Y-112479609D01*
X189990000Y-112505404D01*
X189990000Y-106957591D01*
X190349067Y-106599150D01*
X190550570Y-106113876D01*
X190551029Y-105588429D01*
X190350373Y-105102804D01*
X189979150Y-104730933D01*
X189493876Y-104529430D01*
X188968429Y-104528971D01*
X188482804Y-104729627D01*
X188110933Y-105100850D01*
X187966700Y-105448201D01*
X187849277Y-105164717D01*
X187614979Y-105104626D01*
X187435374Y-105284231D01*
X187435374Y-104925021D01*
X187375283Y-104690723D01*
X186879483Y-104516721D01*
X186354836Y-104545699D01*
X186165374Y-104624176D01*
X186165374Y-91534979D01*
X185420000Y-90789605D01*
X185240395Y-90969210D01*
X185240395Y-90610000D01*
X184495021Y-89864626D01*
X184260723Y-89924717D01*
X184152899Y-90231947D01*
X184000373Y-89862804D01*
X183629150Y-89490933D01*
X183143876Y-89289430D01*
X182618429Y-89288971D01*
X182132804Y-89489627D01*
X181760933Y-89860850D01*
X181609877Y-90224632D01*
X181460373Y-89862804D01*
X181089150Y-89490933D01*
X180603876Y-89289430D01*
X180078429Y-89288971D01*
X179592804Y-89489627D01*
X179220933Y-89860850D01*
X179019430Y-90346124D01*
X179018971Y-90871571D01*
X179219627Y-91357196D01*
X179590850Y-91729067D01*
X180076124Y-91930570D01*
X180601571Y-91931029D01*
X181087196Y-91730373D01*
X181459067Y-91359150D01*
X181610122Y-90995367D01*
X181759627Y-91357196D01*
X182130850Y-91729067D01*
X182616124Y-91930570D01*
X183141571Y-91931029D01*
X183627196Y-91730373D01*
X183999067Y-91359150D01*
X184143299Y-91011798D01*
X184260723Y-91295283D01*
X184495021Y-91355374D01*
X185240395Y-90610000D01*
X185240395Y-90969210D01*
X184674626Y-91534979D01*
X184734717Y-91769277D01*
X185230517Y-91943279D01*
X185755164Y-91914301D01*
X186105283Y-91769277D01*
X186165374Y-91534979D01*
X186165374Y-104624176D01*
X186004717Y-104690723D01*
X185944626Y-104925021D01*
X186690000Y-105670395D01*
X187435374Y-104925021D01*
X187435374Y-105284231D01*
X186869605Y-105850000D01*
X187614979Y-106595374D01*
X187849277Y-106535283D01*
X187957100Y-106228052D01*
X188109627Y-106597196D01*
X188470000Y-106958198D01*
X188470000Y-107171629D01*
X188223876Y-107069430D01*
X187698429Y-107068971D01*
X187435374Y-107177663D01*
X187435374Y-106774979D01*
X186690000Y-106029605D01*
X186510395Y-106209210D01*
X186510395Y-105850000D01*
X185765021Y-105104626D01*
X185530723Y-105164717D01*
X185429154Y-105454126D01*
X185309277Y-105164717D01*
X185074979Y-105104626D01*
X184895374Y-105284231D01*
X184895374Y-104925021D01*
X184835283Y-104690723D01*
X184339483Y-104516721D01*
X183814836Y-104545699D01*
X183464717Y-104690723D01*
X183404626Y-104925021D01*
X184150000Y-105670395D01*
X184895374Y-104925021D01*
X184895374Y-105284231D01*
X184329605Y-105850000D01*
X185074979Y-106595374D01*
X185309277Y-106535283D01*
X185410845Y-106245873D01*
X185530723Y-106535283D01*
X185765021Y-106595374D01*
X186510395Y-105850000D01*
X186510395Y-106209210D01*
X185944626Y-106774979D01*
X186004717Y-107009277D01*
X186500517Y-107183279D01*
X187025164Y-107154301D01*
X187375283Y-107009277D01*
X187435374Y-106774979D01*
X187435374Y-107177663D01*
X187212804Y-107269627D01*
X186840933Y-107640850D01*
X186696700Y-107988201D01*
X186579277Y-107704717D01*
X186344979Y-107644626D01*
X186165374Y-107824231D01*
X186165374Y-107465021D01*
X186105283Y-107230723D01*
X185609483Y-107056721D01*
X185084836Y-107085699D01*
X184895374Y-107164176D01*
X184895374Y-106774979D01*
X184150000Y-106029605D01*
X183970395Y-106209210D01*
X183970395Y-105850000D01*
X183225021Y-105104626D01*
X182990723Y-105164717D01*
X182882899Y-105471947D01*
X182730373Y-105102804D01*
X182359150Y-104730933D01*
X181873876Y-104529430D01*
X181348429Y-104528971D01*
X181330391Y-104536424D01*
X181330391Y-96512430D01*
X180987052Y-95681485D01*
X180351859Y-95045182D01*
X179521514Y-94700393D01*
X178622430Y-94699609D01*
X177791485Y-95042948D01*
X177155182Y-95678141D01*
X176810393Y-96508486D01*
X176809609Y-97407570D01*
X177152948Y-98238515D01*
X177788141Y-98874818D01*
X178618486Y-99219607D01*
X179517570Y-99220391D01*
X180348515Y-98877052D01*
X180984818Y-98241859D01*
X181329607Y-97411514D01*
X181330391Y-96512430D01*
X181330391Y-104536424D01*
X180862804Y-104729627D01*
X180490933Y-105100850D01*
X180289430Y-105586124D01*
X180288971Y-106111571D01*
X180489627Y-106597196D01*
X180860850Y-106969067D01*
X181346124Y-107170570D01*
X181871571Y-107171029D01*
X182357196Y-106970373D01*
X182729067Y-106599150D01*
X182873299Y-106251798D01*
X182990723Y-106535283D01*
X183225021Y-106595374D01*
X183970395Y-105850000D01*
X183970395Y-106209210D01*
X183404626Y-106774979D01*
X183464717Y-107009277D01*
X183960517Y-107183279D01*
X184485164Y-107154301D01*
X184835283Y-107009277D01*
X184895374Y-106774979D01*
X184895374Y-107164176D01*
X184734717Y-107230723D01*
X184674626Y-107465021D01*
X185420000Y-108210395D01*
X186165374Y-107465021D01*
X186165374Y-107824231D01*
X185599605Y-108390000D01*
X186344979Y-109135374D01*
X186579277Y-109075283D01*
X186687100Y-108768052D01*
X186839627Y-109137196D01*
X187200000Y-109498198D01*
X187200000Y-113442786D01*
X186165374Y-114477412D01*
X186165374Y-109314979D01*
X185420000Y-108569605D01*
X185240395Y-108749210D01*
X185240395Y-108390000D01*
X184495021Y-107644626D01*
X184260723Y-107704717D01*
X184152899Y-108011947D01*
X184000373Y-107642804D01*
X183629150Y-107270933D01*
X183143876Y-107069430D01*
X182618429Y-107068971D01*
X182132804Y-107269627D01*
X181760933Y-107640850D01*
X181609877Y-108004632D01*
X181460373Y-107642804D01*
X181089150Y-107270933D01*
X180603876Y-107069430D01*
X180078429Y-107068971D01*
X179592804Y-107269627D01*
X179220933Y-107640850D01*
X179019430Y-108126124D01*
X179018971Y-108651571D01*
X179219627Y-109137196D01*
X179590850Y-109509067D01*
X180076124Y-109710570D01*
X180601571Y-109711029D01*
X181087196Y-109510373D01*
X181459067Y-109139150D01*
X181610122Y-108775367D01*
X181759627Y-109137196D01*
X182130850Y-109509067D01*
X182616124Y-109710570D01*
X183141571Y-109711029D01*
X183627196Y-109510373D01*
X183999067Y-109139150D01*
X184143299Y-108791798D01*
X184260723Y-109075283D01*
X184495021Y-109135374D01*
X185240395Y-108390000D01*
X185240395Y-108749210D01*
X184674626Y-109314979D01*
X184734717Y-109549277D01*
X185230517Y-109723279D01*
X185755164Y-109694301D01*
X186105283Y-109549277D01*
X186165374Y-109314979D01*
X186165374Y-114477412D01*
X181330391Y-119312395D01*
X181330391Y-114292430D01*
X180987052Y-113461485D01*
X180351859Y-112825182D01*
X179521514Y-112480393D01*
X178622430Y-112479609D01*
X177791485Y-112822948D01*
X177155182Y-113458141D01*
X176810393Y-114288486D01*
X176809609Y-115187570D01*
X177152948Y-116018515D01*
X177788141Y-116654818D01*
X178618486Y-116999607D01*
X179517570Y-117000391D01*
X180348515Y-116657052D01*
X180984818Y-116021859D01*
X181329607Y-115191514D01*
X181330391Y-114292430D01*
X181330391Y-119312395D01*
X177971209Y-122671577D01*
X177806462Y-122918139D01*
X177748610Y-123208978D01*
X177748610Y-126671910D01*
X177320000Y-126586655D01*
X176746511Y-126700729D01*
X176260330Y-127025585D01*
X176250391Y-127040458D01*
X176250391Y-114292430D01*
X176250391Y-96512430D01*
X175907052Y-95681485D01*
X175271859Y-95045182D01*
X174441514Y-94700393D01*
X174041029Y-94700043D01*
X174041029Y-87808429D01*
X173840373Y-87322804D01*
X173469150Y-86950933D01*
X172983876Y-86749430D01*
X172458429Y-86748971D01*
X171972804Y-86949627D01*
X171600933Y-87320850D01*
X171456700Y-87668201D01*
X171339277Y-87384717D01*
X171104979Y-87324626D01*
X170925374Y-87504231D01*
X170925374Y-87145021D01*
X170865283Y-86910723D01*
X170369483Y-86736721D01*
X169844836Y-86765699D01*
X169494717Y-86910723D01*
X169434626Y-87145021D01*
X170180000Y-87890395D01*
X170925374Y-87145021D01*
X170925374Y-87504231D01*
X170359605Y-88070000D01*
X171104979Y-88815374D01*
X171339277Y-88755283D01*
X171447100Y-88448052D01*
X171599627Y-88817196D01*
X171970850Y-89189067D01*
X172456124Y-89390570D01*
X172981571Y-89391029D01*
X173467196Y-89190373D01*
X173839067Y-88819150D01*
X174040570Y-88333876D01*
X174041029Y-87808429D01*
X174041029Y-94700043D01*
X173542430Y-94699609D01*
X172771029Y-95018344D01*
X172771029Y-90348429D01*
X172570373Y-89862804D01*
X172199150Y-89490933D01*
X171713876Y-89289430D01*
X171188429Y-89288971D01*
X170925374Y-89397663D01*
X170925374Y-88994979D01*
X170180000Y-88249605D01*
X170000395Y-88429210D01*
X170000395Y-88070000D01*
X169255021Y-87324626D01*
X169020723Y-87384717D01*
X168919154Y-87674126D01*
X168799277Y-87384717D01*
X168564979Y-87324626D01*
X168385374Y-87504231D01*
X168385374Y-87145021D01*
X168325283Y-86910723D01*
X167829483Y-86736721D01*
X167304836Y-86765699D01*
X166954717Y-86910723D01*
X166894626Y-87145021D01*
X167640000Y-87890395D01*
X168385374Y-87145021D01*
X168385374Y-87504231D01*
X167819605Y-88070000D01*
X168564979Y-88815374D01*
X168799277Y-88755283D01*
X168900845Y-88465873D01*
X169020723Y-88755283D01*
X169255021Y-88815374D01*
X170000395Y-88070000D01*
X170000395Y-88429210D01*
X169434626Y-88994979D01*
X169494717Y-89229277D01*
X169990517Y-89403279D01*
X170515164Y-89374301D01*
X170865283Y-89229277D01*
X170925374Y-88994979D01*
X170925374Y-89397663D01*
X170702804Y-89489627D01*
X170330933Y-89860850D01*
X170186700Y-90208201D01*
X170069277Y-89924717D01*
X169834979Y-89864626D01*
X169655374Y-90044231D01*
X169655374Y-89685021D01*
X169595283Y-89450723D01*
X169099483Y-89276721D01*
X168574836Y-89305699D01*
X168385374Y-89384176D01*
X168385374Y-88994979D01*
X167640000Y-88249605D01*
X167460395Y-88429210D01*
X167460395Y-88070000D01*
X166715021Y-87324626D01*
X166480723Y-87384717D01*
X166372899Y-87691947D01*
X166220373Y-87322804D01*
X165849150Y-86950933D01*
X165363876Y-86749430D01*
X164838429Y-86748971D01*
X164352804Y-86949627D01*
X163980933Y-87320850D01*
X163779430Y-87806124D01*
X163778971Y-88331571D01*
X163979627Y-88817196D01*
X164350850Y-89189067D01*
X164836124Y-89390570D01*
X165361571Y-89391029D01*
X165847196Y-89190373D01*
X166219067Y-88819150D01*
X166363299Y-88471798D01*
X166480723Y-88755283D01*
X166715021Y-88815374D01*
X167460395Y-88070000D01*
X167460395Y-88429210D01*
X166894626Y-88994979D01*
X166954717Y-89229277D01*
X167450517Y-89403279D01*
X167975164Y-89374301D01*
X168325283Y-89229277D01*
X168385374Y-88994979D01*
X168385374Y-89384176D01*
X168224717Y-89450723D01*
X168164626Y-89685021D01*
X168910000Y-90430395D01*
X169655374Y-89685021D01*
X169655374Y-90044231D01*
X169089605Y-90610000D01*
X169834979Y-91355374D01*
X170069277Y-91295283D01*
X170177100Y-90988052D01*
X170329627Y-91357196D01*
X170700850Y-91729067D01*
X171186124Y-91930570D01*
X171711571Y-91931029D01*
X172197196Y-91730373D01*
X172569067Y-91359150D01*
X172770570Y-90873876D01*
X172771029Y-90348429D01*
X172771029Y-95018344D01*
X172711485Y-95042948D01*
X172075182Y-95678141D01*
X171730393Y-96508486D01*
X171729609Y-97407570D01*
X172072948Y-98238515D01*
X172708141Y-98874818D01*
X173538486Y-99219607D01*
X174437570Y-99220391D01*
X175268515Y-98877052D01*
X175904818Y-98241859D01*
X176249607Y-97411514D01*
X176250391Y-96512430D01*
X176250391Y-114292430D01*
X175907052Y-113461485D01*
X175271859Y-112825182D01*
X174441514Y-112480393D01*
X173542430Y-112479609D01*
X173480000Y-112505404D01*
X173480000Y-106957591D01*
X173839067Y-106599150D01*
X174040570Y-106113876D01*
X174041029Y-105588429D01*
X173840373Y-105102804D01*
X173469150Y-104730933D01*
X172983876Y-104529430D01*
X172458429Y-104528971D01*
X171972804Y-104729627D01*
X171600933Y-105100850D01*
X171456700Y-105448201D01*
X171339277Y-105164717D01*
X171104979Y-105104626D01*
X170925374Y-105284231D01*
X170925374Y-104925021D01*
X170865283Y-104690723D01*
X170369483Y-104516721D01*
X169844836Y-104545699D01*
X169655374Y-104624176D01*
X169655374Y-91534979D01*
X168910000Y-90789605D01*
X168730395Y-90969210D01*
X168730395Y-90610000D01*
X167985021Y-89864626D01*
X167750723Y-89924717D01*
X167642899Y-90231947D01*
X167490373Y-89862804D01*
X167119150Y-89490933D01*
X166633876Y-89289430D01*
X166108429Y-89288971D01*
X165622804Y-89489627D01*
X165250933Y-89860850D01*
X165099877Y-90224632D01*
X164950373Y-89862804D01*
X164579150Y-89490933D01*
X164093876Y-89289430D01*
X163568429Y-89288971D01*
X163082804Y-89489627D01*
X162710933Y-89860850D01*
X162509430Y-90346124D01*
X162508971Y-90871571D01*
X162709627Y-91357196D01*
X163080850Y-91729067D01*
X163566124Y-91930570D01*
X164091571Y-91931029D01*
X164577196Y-91730373D01*
X164949067Y-91359150D01*
X165100122Y-90995367D01*
X165249627Y-91357196D01*
X165620850Y-91729067D01*
X166106124Y-91930570D01*
X166631571Y-91931029D01*
X167117196Y-91730373D01*
X167489067Y-91359150D01*
X167633299Y-91011798D01*
X167750723Y-91295283D01*
X167985021Y-91355374D01*
X168730395Y-90610000D01*
X168730395Y-90969210D01*
X168164626Y-91534979D01*
X168224717Y-91769277D01*
X168720517Y-91943279D01*
X169245164Y-91914301D01*
X169595283Y-91769277D01*
X169655374Y-91534979D01*
X169655374Y-104624176D01*
X169494717Y-104690723D01*
X169434626Y-104925021D01*
X170180000Y-105670395D01*
X170925374Y-104925021D01*
X170925374Y-105284231D01*
X170359605Y-105850000D01*
X171104979Y-106595374D01*
X171339277Y-106535283D01*
X171447100Y-106228052D01*
X171599627Y-106597196D01*
X171960000Y-106958198D01*
X171960000Y-107171629D01*
X171713876Y-107069430D01*
X171188429Y-107068971D01*
X170925374Y-107177663D01*
X170925374Y-106774979D01*
X170180000Y-106029605D01*
X170000395Y-106209210D01*
X170000395Y-105850000D01*
X169255021Y-105104626D01*
X169020723Y-105164717D01*
X168919154Y-105454126D01*
X168799277Y-105164717D01*
X168564979Y-105104626D01*
X168385374Y-105284231D01*
X168385374Y-104925021D01*
X168325283Y-104690723D01*
X167829483Y-104516721D01*
X167304836Y-104545699D01*
X166954717Y-104690723D01*
X166894626Y-104925021D01*
X167640000Y-105670395D01*
X168385374Y-104925021D01*
X168385374Y-105284231D01*
X167819605Y-105850000D01*
X168564979Y-106595374D01*
X168799277Y-106535283D01*
X168900845Y-106245873D01*
X169020723Y-106535283D01*
X169255021Y-106595374D01*
X170000395Y-105850000D01*
X170000395Y-106209210D01*
X169434626Y-106774979D01*
X169494717Y-107009277D01*
X169990517Y-107183279D01*
X170515164Y-107154301D01*
X170865283Y-107009277D01*
X170925374Y-106774979D01*
X170925374Y-107177663D01*
X170702804Y-107269627D01*
X170330933Y-107640850D01*
X170186700Y-107988201D01*
X170069277Y-107704717D01*
X169834979Y-107644626D01*
X169655374Y-107824231D01*
X169655374Y-107465021D01*
X169595283Y-107230723D01*
X169099483Y-107056721D01*
X168574836Y-107085699D01*
X168385374Y-107164176D01*
X168385374Y-106774979D01*
X167640000Y-106029605D01*
X167460395Y-106209210D01*
X167460395Y-105850000D01*
X166715021Y-105104626D01*
X166480723Y-105164717D01*
X166372899Y-105471947D01*
X166220373Y-105102804D01*
X165849150Y-104730933D01*
X165363876Y-104529430D01*
X164838429Y-104528971D01*
X164820391Y-104536424D01*
X164820391Y-96512430D01*
X164477052Y-95681485D01*
X163841859Y-95045182D01*
X163011514Y-94700393D01*
X162112430Y-94699609D01*
X161281485Y-95042948D01*
X160645182Y-95678141D01*
X160300393Y-96508486D01*
X160299609Y-97407570D01*
X160642948Y-98238515D01*
X161278141Y-98874818D01*
X162108486Y-99219607D01*
X163007570Y-99220391D01*
X163838515Y-98877052D01*
X164474818Y-98241859D01*
X164819607Y-97411514D01*
X164820391Y-96512430D01*
X164820391Y-104536424D01*
X164352804Y-104729627D01*
X163980933Y-105100850D01*
X163779430Y-105586124D01*
X163778971Y-106111571D01*
X163979627Y-106597196D01*
X164350850Y-106969067D01*
X164836124Y-107170570D01*
X165361571Y-107171029D01*
X165847196Y-106970373D01*
X166219067Y-106599150D01*
X166363299Y-106251798D01*
X166480723Y-106535283D01*
X166715021Y-106595374D01*
X167460395Y-105850000D01*
X167460395Y-106209210D01*
X166894626Y-106774979D01*
X166954717Y-107009277D01*
X167450517Y-107183279D01*
X167975164Y-107154301D01*
X168325283Y-107009277D01*
X168385374Y-106774979D01*
X168385374Y-107164176D01*
X168224717Y-107230723D01*
X168164626Y-107465021D01*
X168910000Y-108210395D01*
X169655374Y-107465021D01*
X169655374Y-107824231D01*
X169089605Y-108390000D01*
X169103747Y-108404142D01*
X168924142Y-108583747D01*
X168910000Y-108569605D01*
X168730395Y-108749210D01*
X168730395Y-108390000D01*
X167985021Y-107644626D01*
X167750723Y-107704717D01*
X167642899Y-108011947D01*
X167490373Y-107642804D01*
X167119150Y-107270933D01*
X166633876Y-107069430D01*
X166108429Y-107068971D01*
X165622804Y-107269627D01*
X165250933Y-107640850D01*
X165099877Y-108004632D01*
X164950373Y-107642804D01*
X164579150Y-107270933D01*
X164093876Y-107069430D01*
X163568429Y-107068971D01*
X163082804Y-107269627D01*
X162710933Y-107640850D01*
X162509430Y-108126124D01*
X162508971Y-108651571D01*
X162709627Y-109137196D01*
X163080850Y-109509067D01*
X163566124Y-109710570D01*
X164091571Y-109711029D01*
X164577196Y-109510373D01*
X164949067Y-109139150D01*
X165100122Y-108775367D01*
X165249627Y-109137196D01*
X165620850Y-109509067D01*
X166106124Y-109710570D01*
X166631571Y-109711029D01*
X167117196Y-109510373D01*
X167489067Y-109139150D01*
X167633299Y-108791798D01*
X167750723Y-109075283D01*
X167985021Y-109135374D01*
X168730395Y-108390000D01*
X168730395Y-108749210D01*
X168164626Y-109314979D01*
X168224717Y-109549277D01*
X168720517Y-109723279D01*
X169060708Y-109704489D01*
X164718752Y-114046445D01*
X164477052Y-113461485D01*
X163841859Y-112825182D01*
X163011514Y-112480393D01*
X162112430Y-112479609D01*
X161281485Y-112822948D01*
X160645182Y-113458141D01*
X160300393Y-114288486D01*
X160299609Y-115187570D01*
X160642948Y-116018515D01*
X161278141Y-116654818D01*
X162108486Y-116999607D01*
X163007570Y-117000391D01*
X163607662Y-116752438D01*
X163607662Y-126614188D01*
X163269726Y-126952123D01*
X162893489Y-126700729D01*
X162320000Y-126586655D01*
X161746511Y-126700729D01*
X161260330Y-127025585D01*
X161249784Y-127041367D01*
X161244063Y-127011877D01*
X161104273Y-126799073D01*
X160893240Y-126656623D01*
X160643600Y-126606560D01*
X159740391Y-126606560D01*
X159740391Y-114292430D01*
X159740391Y-96512430D01*
X159397052Y-95681485D01*
X158761859Y-95045182D01*
X157931514Y-94700393D01*
X157531029Y-94700043D01*
X157531029Y-87808429D01*
X157330373Y-87322804D01*
X156959150Y-86950933D01*
X156473876Y-86749430D01*
X155948429Y-86748971D01*
X155462804Y-86949627D01*
X155090933Y-87320850D01*
X154946700Y-87668201D01*
X154829277Y-87384717D01*
X154594979Y-87324626D01*
X154415374Y-87504231D01*
X154415374Y-87145021D01*
X154355283Y-86910723D01*
X153859483Y-86736721D01*
X153334836Y-86765699D01*
X152984717Y-86910723D01*
X152924626Y-87145021D01*
X153670000Y-87890395D01*
X154415374Y-87145021D01*
X154415374Y-87504231D01*
X153849605Y-88070000D01*
X154594979Y-88815374D01*
X154829277Y-88755283D01*
X154937100Y-88448052D01*
X155089627Y-88817196D01*
X155460850Y-89189067D01*
X155946124Y-89390570D01*
X156471571Y-89391029D01*
X156957196Y-89190373D01*
X157329067Y-88819150D01*
X157530570Y-88333876D01*
X157531029Y-87808429D01*
X157531029Y-94700043D01*
X157032430Y-94699609D01*
X156261029Y-95018344D01*
X156261029Y-90348429D01*
X156060373Y-89862804D01*
X155689150Y-89490933D01*
X155203876Y-89289430D01*
X154678429Y-89288971D01*
X154415374Y-89397663D01*
X154415374Y-88994979D01*
X153670000Y-88249605D01*
X153490395Y-88429210D01*
X153490395Y-88070000D01*
X152745021Y-87324626D01*
X152510723Y-87384717D01*
X152409154Y-87674126D01*
X152289277Y-87384717D01*
X152054979Y-87324626D01*
X151875374Y-87504231D01*
X151875374Y-87145021D01*
X151815283Y-86910723D01*
X151319483Y-86736721D01*
X150794836Y-86765699D01*
X150444717Y-86910723D01*
X150384626Y-87145021D01*
X151130000Y-87890395D01*
X151875374Y-87145021D01*
X151875374Y-87504231D01*
X151309605Y-88070000D01*
X152054979Y-88815374D01*
X152289277Y-88755283D01*
X152390845Y-88465873D01*
X152510723Y-88755283D01*
X152745021Y-88815374D01*
X153490395Y-88070000D01*
X153490395Y-88429210D01*
X152924626Y-88994979D01*
X152984717Y-89229277D01*
X153480517Y-89403279D01*
X154005164Y-89374301D01*
X154355283Y-89229277D01*
X154415374Y-88994979D01*
X154415374Y-89397663D01*
X154192804Y-89489627D01*
X153820933Y-89860850D01*
X153676700Y-90208201D01*
X153559277Y-89924717D01*
X153324979Y-89864626D01*
X153145374Y-90044231D01*
X153145374Y-89685021D01*
X153085283Y-89450723D01*
X152589483Y-89276721D01*
X152064836Y-89305699D01*
X151875374Y-89384176D01*
X151875374Y-88994979D01*
X151130000Y-88249605D01*
X150950395Y-88429210D01*
X150950395Y-88070000D01*
X150205021Y-87324626D01*
X149970723Y-87384717D01*
X149862899Y-87691947D01*
X149710373Y-87322804D01*
X149339150Y-86950933D01*
X148853876Y-86749430D01*
X148328429Y-86748971D01*
X147842804Y-86949627D01*
X147470933Y-87320850D01*
X147269430Y-87806124D01*
X147268971Y-88331571D01*
X147469627Y-88817196D01*
X147840850Y-89189067D01*
X148326124Y-89390570D01*
X148851571Y-89391029D01*
X149337196Y-89190373D01*
X149709067Y-88819150D01*
X149853299Y-88471798D01*
X149970723Y-88755283D01*
X150205021Y-88815374D01*
X150950395Y-88070000D01*
X150950395Y-88429210D01*
X150384626Y-88994979D01*
X150444717Y-89229277D01*
X150940517Y-89403279D01*
X151465164Y-89374301D01*
X151815283Y-89229277D01*
X151875374Y-88994979D01*
X151875374Y-89384176D01*
X151714717Y-89450723D01*
X151654626Y-89685021D01*
X152400000Y-90430395D01*
X153145374Y-89685021D01*
X153145374Y-90044231D01*
X152579605Y-90610000D01*
X153324979Y-91355374D01*
X153559277Y-91295283D01*
X153667100Y-90988052D01*
X153819627Y-91357196D01*
X154190850Y-91729067D01*
X154676124Y-91930570D01*
X155201571Y-91931029D01*
X155687196Y-91730373D01*
X156059067Y-91359150D01*
X156260570Y-90873876D01*
X156261029Y-90348429D01*
X156261029Y-95018344D01*
X156201485Y-95042948D01*
X155565182Y-95678141D01*
X155220393Y-96508486D01*
X155219609Y-97407570D01*
X155562948Y-98238515D01*
X156198141Y-98874818D01*
X157028486Y-99219607D01*
X157927570Y-99220391D01*
X158758515Y-98877052D01*
X159394818Y-98241859D01*
X159739607Y-97411514D01*
X159740391Y-96512430D01*
X159740391Y-114292430D01*
X159397052Y-113461485D01*
X158761859Y-112825182D01*
X157931514Y-112480393D01*
X157032430Y-112479609D01*
X156970000Y-112505404D01*
X156970000Y-106957591D01*
X157329067Y-106599150D01*
X157530570Y-106113876D01*
X157531029Y-105588429D01*
X157330373Y-105102804D01*
X156959150Y-104730933D01*
X156473876Y-104529430D01*
X155948429Y-104528971D01*
X155462804Y-104729627D01*
X155090933Y-105100850D01*
X154946700Y-105448201D01*
X154829277Y-105164717D01*
X154594979Y-105104626D01*
X154415374Y-105284231D01*
X154415374Y-104925021D01*
X154355283Y-104690723D01*
X153859483Y-104516721D01*
X153334836Y-104545699D01*
X153145374Y-104624176D01*
X153145374Y-91534979D01*
X152400000Y-90789605D01*
X152220395Y-90969210D01*
X152220395Y-90610000D01*
X151475021Y-89864626D01*
X151240723Y-89924717D01*
X151132899Y-90231947D01*
X150980373Y-89862804D01*
X150609150Y-89490933D01*
X150123876Y-89289430D01*
X149598429Y-89288971D01*
X149112804Y-89489627D01*
X148740933Y-89860850D01*
X148589877Y-90224632D01*
X148440373Y-89862804D01*
X148069150Y-89490933D01*
X147583876Y-89289430D01*
X147058429Y-89288971D01*
X146572804Y-89489627D01*
X146200933Y-89860850D01*
X145999430Y-90346124D01*
X145998971Y-90871571D01*
X146199627Y-91357196D01*
X146570850Y-91729067D01*
X147056124Y-91930570D01*
X147581571Y-91931029D01*
X148067196Y-91730373D01*
X148439067Y-91359150D01*
X148590122Y-90995367D01*
X148739627Y-91357196D01*
X149110850Y-91729067D01*
X149596124Y-91930570D01*
X150121571Y-91931029D01*
X150607196Y-91730373D01*
X150979067Y-91359150D01*
X151123299Y-91011798D01*
X151240723Y-91295283D01*
X151475021Y-91355374D01*
X152220395Y-90610000D01*
X152220395Y-90969210D01*
X151654626Y-91534979D01*
X151714717Y-91769277D01*
X152210517Y-91943279D01*
X152735164Y-91914301D01*
X153085283Y-91769277D01*
X153145374Y-91534979D01*
X153145374Y-104624176D01*
X152984717Y-104690723D01*
X152924626Y-104925021D01*
X153670000Y-105670395D01*
X154415374Y-104925021D01*
X154415374Y-105284231D01*
X153849605Y-105850000D01*
X154594979Y-106595374D01*
X154829277Y-106535283D01*
X154937100Y-106228052D01*
X155089627Y-106597196D01*
X155450000Y-106958198D01*
X155450000Y-107171629D01*
X155203876Y-107069430D01*
X154678429Y-107068971D01*
X154415374Y-107177663D01*
X154415374Y-106774979D01*
X153670000Y-106029605D01*
X153490395Y-106209210D01*
X153490395Y-105850000D01*
X152745021Y-105104626D01*
X152510723Y-105164717D01*
X152409154Y-105454126D01*
X152289277Y-105164717D01*
X152054979Y-105104626D01*
X151875374Y-105284231D01*
X151875374Y-104925021D01*
X151815283Y-104690723D01*
X151319483Y-104516721D01*
X150794836Y-104545699D01*
X150444717Y-104690723D01*
X150384626Y-104925021D01*
X151130000Y-105670395D01*
X151875374Y-104925021D01*
X151875374Y-105284231D01*
X151309605Y-105850000D01*
X152054979Y-106595374D01*
X152289277Y-106535283D01*
X152390845Y-106245873D01*
X152510723Y-106535283D01*
X152745021Y-106595374D01*
X153490395Y-105850000D01*
X153490395Y-106209210D01*
X152924626Y-106774979D01*
X152984717Y-107009277D01*
X153480517Y-107183279D01*
X154005164Y-107154301D01*
X154355283Y-107009277D01*
X154415374Y-106774979D01*
X154415374Y-107177663D01*
X154192804Y-107269627D01*
X153820933Y-107640850D01*
X153676700Y-107988201D01*
X153559277Y-107704717D01*
X153324979Y-107644626D01*
X153145374Y-107824231D01*
X153145374Y-107465021D01*
X153085283Y-107230723D01*
X152589483Y-107056721D01*
X152064836Y-107085699D01*
X151875374Y-107164176D01*
X151875374Y-106774979D01*
X151130000Y-106029605D01*
X150950395Y-106209210D01*
X150950395Y-105850000D01*
X150205021Y-105104626D01*
X149970723Y-105164717D01*
X149862899Y-105471947D01*
X149710373Y-105102804D01*
X149339150Y-104730933D01*
X148853876Y-104529430D01*
X148328429Y-104528971D01*
X148310391Y-104536424D01*
X148310391Y-96512430D01*
X147967052Y-95681485D01*
X147331859Y-95045182D01*
X146501514Y-94700393D01*
X145602430Y-94699609D01*
X144771485Y-95042948D01*
X144135182Y-95678141D01*
X143790393Y-96508486D01*
X143789609Y-97407570D01*
X144132948Y-98238515D01*
X144768141Y-98874818D01*
X145598486Y-99219607D01*
X146497570Y-99220391D01*
X147328515Y-98877052D01*
X147964818Y-98241859D01*
X148309607Y-97411514D01*
X148310391Y-96512430D01*
X148310391Y-104536424D01*
X147842804Y-104729627D01*
X147470933Y-105100850D01*
X147269430Y-105586124D01*
X147268971Y-106111571D01*
X147469627Y-106597196D01*
X147840850Y-106969067D01*
X148326124Y-107170570D01*
X148851571Y-107171029D01*
X149337196Y-106970373D01*
X149709067Y-106599150D01*
X149853299Y-106251798D01*
X149970723Y-106535283D01*
X150205021Y-106595374D01*
X150950395Y-105850000D01*
X150950395Y-106209210D01*
X150384626Y-106774979D01*
X150444717Y-107009277D01*
X150940517Y-107183279D01*
X151465164Y-107154301D01*
X151815283Y-107009277D01*
X151875374Y-106774979D01*
X151875374Y-107164176D01*
X151714717Y-107230723D01*
X151654626Y-107465021D01*
X152400000Y-108210395D01*
X153145374Y-107465021D01*
X153145374Y-107824231D01*
X152579605Y-108390000D01*
X152593747Y-108404142D01*
X152414142Y-108583747D01*
X152400000Y-108569605D01*
X152220395Y-108749210D01*
X152220395Y-108390000D01*
X151475021Y-107644626D01*
X151240723Y-107704717D01*
X151132899Y-108011947D01*
X150980373Y-107642804D01*
X150609150Y-107270933D01*
X150123876Y-107069430D01*
X149598429Y-107068971D01*
X149112804Y-107269627D01*
X148740933Y-107640850D01*
X148589877Y-108004632D01*
X148440373Y-107642804D01*
X148069150Y-107270933D01*
X147583876Y-107069430D01*
X147058429Y-107068971D01*
X146572804Y-107269627D01*
X146200933Y-107640850D01*
X145999430Y-108126124D01*
X145998971Y-108651571D01*
X146199627Y-109137196D01*
X146570850Y-109509067D01*
X147056124Y-109710570D01*
X147581571Y-109711029D01*
X148067196Y-109510373D01*
X148439067Y-109139150D01*
X148590122Y-108775367D01*
X148739627Y-109137196D01*
X149110850Y-109509067D01*
X149596124Y-109710570D01*
X150121571Y-109711029D01*
X150607196Y-109510373D01*
X150979067Y-109139150D01*
X151123299Y-108791798D01*
X151240723Y-109075283D01*
X151475021Y-109135374D01*
X152220395Y-108390000D01*
X152220395Y-108749210D01*
X151654626Y-109314979D01*
X151714717Y-109549277D01*
X152210517Y-109723279D01*
X152550708Y-109704489D01*
X148208752Y-114046445D01*
X147967052Y-113461485D01*
X147331859Y-112825182D01*
X146501514Y-112480393D01*
X145602430Y-112479609D01*
X144771485Y-112822948D01*
X144135182Y-113458141D01*
X143790393Y-114288486D01*
X143789609Y-115187570D01*
X144132948Y-116018515D01*
X144768141Y-116654818D01*
X145598486Y-116999607D01*
X146497570Y-117000391D01*
X147328515Y-116657052D01*
X147748610Y-116237689D01*
X147748610Y-126671910D01*
X147320000Y-126586655D01*
X146746511Y-126700729D01*
X146260330Y-127025585D01*
X146249784Y-127041367D01*
X146244063Y-127011877D01*
X146104273Y-126799073D01*
X145893240Y-126656623D01*
X145643600Y-126606560D01*
X143916400Y-126606560D01*
X143674277Y-126653537D01*
X143461473Y-126793327D01*
X143319023Y-127004360D01*
X143268960Y-127254000D01*
X143268960Y-129286000D01*
X143315937Y-129528123D01*
X143455727Y-129740927D01*
X143666760Y-129883377D01*
X143916400Y-129933440D01*
X145643600Y-129933440D01*
X145885723Y-129886463D01*
X146098527Y-129746673D01*
X146240977Y-129535640D01*
X146248718Y-129497037D01*
X146260330Y-129514415D01*
X146746511Y-129839271D01*
X147320000Y-129953345D01*
X147748610Y-129868089D01*
X147748610Y-134671910D01*
X147320000Y-134586655D01*
X146746511Y-134700729D01*
X146260330Y-135025585D01*
X146249784Y-135041367D01*
X146244063Y-135011877D01*
X146104273Y-134799073D01*
X145893240Y-134656623D01*
X145643600Y-134606560D01*
X143916400Y-134606560D01*
X143674277Y-134653537D01*
X143461473Y-134793327D01*
X143319023Y-135004360D01*
X143268960Y-135254000D01*
X143268960Y-137286000D01*
X143315937Y-137528123D01*
X143455727Y-137740927D01*
X143666760Y-137883377D01*
X143916400Y-137933440D01*
X145643600Y-137933440D01*
X145885723Y-137886463D01*
X146098527Y-137746673D01*
X146240977Y-137535640D01*
X146248718Y-137497037D01*
X146260330Y-137514415D01*
X146746511Y-137839271D01*
X147320000Y-137953345D01*
X147893489Y-137839271D01*
X148379670Y-137514415D01*
X148590000Y-137199634D01*
X148800330Y-137514415D01*
X149286511Y-137839271D01*
X149860000Y-137953345D01*
X150433489Y-137839271D01*
X150919670Y-137514415D01*
X151126460Y-137204930D01*
X151497964Y-137620732D01*
X152025209Y-137874709D01*
X152040974Y-137877358D01*
X152273000Y-137756217D01*
X152273000Y-136397000D01*
X152253000Y-136397000D01*
X152253000Y-136143000D01*
X152273000Y-136143000D01*
X152273000Y-134783783D01*
X152040974Y-134662642D01*
X152025209Y-134665291D01*
X151808610Y-134769628D01*
X151808610Y-129770371D01*
X152025209Y-129874709D01*
X152040974Y-129877358D01*
X152273000Y-129756217D01*
X152273000Y-128397000D01*
X152253000Y-128397000D01*
X152253000Y-128143000D01*
X152273000Y-128143000D01*
X152273000Y-126783783D01*
X152040974Y-126662642D01*
X152025209Y-126665291D01*
X151808610Y-126769628D01*
X151808610Y-118600190D01*
X155220082Y-115188717D01*
X155562948Y-116018515D01*
X156198141Y-116654818D01*
X157028486Y-116999607D01*
X157927570Y-117000391D01*
X158758515Y-116657052D01*
X159394818Y-116021859D01*
X159739607Y-115191514D01*
X159740391Y-114292430D01*
X159740391Y-126606560D01*
X158916400Y-126606560D01*
X158674277Y-126653537D01*
X158461473Y-126793327D01*
X158319023Y-127004360D01*
X158268960Y-127254000D01*
X158268960Y-129286000D01*
X158315937Y-129528123D01*
X158455727Y-129740927D01*
X158666760Y-129883377D01*
X158916400Y-129933440D01*
X160643600Y-129933440D01*
X160885723Y-129886463D01*
X161098527Y-129746673D01*
X161240977Y-129535640D01*
X161248718Y-129497037D01*
X161260330Y-129514415D01*
X161746511Y-129839271D01*
X162320000Y-129953345D01*
X162748610Y-129868089D01*
X162748610Y-134671910D01*
X162320000Y-134586655D01*
X161746511Y-134700729D01*
X161260330Y-135025585D01*
X161249784Y-135041367D01*
X161244063Y-135011877D01*
X161104273Y-134799073D01*
X160893240Y-134656623D01*
X160643600Y-134606560D01*
X158916400Y-134606560D01*
X158674277Y-134653537D01*
X158461473Y-134793327D01*
X158319023Y-135004360D01*
X158268960Y-135254000D01*
X158268960Y-137286000D01*
X158315937Y-137528123D01*
X158455727Y-137740927D01*
X158666760Y-137883377D01*
X158916400Y-137933440D01*
X160643600Y-137933440D01*
X160885723Y-137886463D01*
X161098527Y-137746673D01*
X161240977Y-137535640D01*
X161248718Y-137497037D01*
X161260330Y-137514415D01*
X161746511Y-137839271D01*
X162320000Y-137953345D01*
X162893489Y-137839271D01*
X163379670Y-137514415D01*
X163590000Y-137199634D01*
X163800330Y-137514415D01*
X164286511Y-137839271D01*
X164860000Y-137953345D01*
X165433489Y-137839271D01*
X165919670Y-137514415D01*
X166126460Y-137204930D01*
X166497964Y-137620732D01*
X167025209Y-137874709D01*
X167040974Y-137877358D01*
X167273000Y-137756217D01*
X167273000Y-136397000D01*
X167253000Y-136397000D01*
X167253000Y-136143000D01*
X167273000Y-136143000D01*
X167273000Y-134783783D01*
X167040974Y-134662642D01*
X167025209Y-134665291D01*
X166808610Y-134769628D01*
X166808610Y-129770371D01*
X167025209Y-129874709D01*
X167040974Y-129877358D01*
X167273000Y-129756217D01*
X167273000Y-128397000D01*
X167253000Y-128397000D01*
X167253000Y-128143000D01*
X167273000Y-128143000D01*
X167273000Y-126783783D01*
X167040974Y-126662642D01*
X167025209Y-126665291D01*
X166808610Y-126769628D01*
X166808610Y-120110190D01*
X171730082Y-115188717D01*
X172072948Y-116018515D01*
X172708141Y-116654818D01*
X173538486Y-116999607D01*
X174437570Y-117000391D01*
X175268515Y-116657052D01*
X175904818Y-116021859D01*
X176249607Y-115191514D01*
X176250391Y-114292430D01*
X176250391Y-127040458D01*
X176249784Y-127041367D01*
X176244063Y-127011877D01*
X176104273Y-126799073D01*
X175893240Y-126656623D01*
X175643600Y-126606560D01*
X173916400Y-126606560D01*
X173674277Y-126653537D01*
X173461473Y-126793327D01*
X173319023Y-127004360D01*
X173268960Y-127254000D01*
X173268960Y-129286000D01*
X173315937Y-129528123D01*
X173455727Y-129740927D01*
X173666760Y-129883377D01*
X173916400Y-129933440D01*
X175643600Y-129933440D01*
X175885723Y-129886463D01*
X176098527Y-129746673D01*
X176240977Y-129535640D01*
X176248718Y-129497037D01*
X176260330Y-129514415D01*
X176746511Y-129839271D01*
X177320000Y-129953345D01*
X177748610Y-129868089D01*
X177748610Y-134671910D01*
X177320000Y-134586655D01*
X176746511Y-134700729D01*
X176260330Y-135025585D01*
X176249784Y-135041367D01*
X176244063Y-135011877D01*
X176104273Y-134799073D01*
X175893240Y-134656623D01*
X175643600Y-134606560D01*
X173916400Y-134606560D01*
X173674277Y-134653537D01*
X173461473Y-134793327D01*
X173319023Y-135004360D01*
X173268960Y-135254000D01*
X173268960Y-137286000D01*
X173315937Y-137528123D01*
X173455727Y-137740927D01*
X173666760Y-137883377D01*
X173916400Y-137933440D01*
X175643600Y-137933440D01*
X175885723Y-137886463D01*
X176098527Y-137746673D01*
X176240977Y-137535640D01*
X176248718Y-137497037D01*
X176260330Y-137514415D01*
X176746511Y-137839271D01*
X177320000Y-137953345D01*
X177893489Y-137839271D01*
X178379670Y-137514415D01*
X178590000Y-137199634D01*
X178800330Y-137514415D01*
X179286511Y-137839271D01*
X179860000Y-137953345D01*
X180433489Y-137839271D01*
X180919670Y-137514415D01*
X181126460Y-137204930D01*
X181497964Y-137620732D01*
X182025209Y-137874709D01*
X182040974Y-137877358D01*
X182273000Y-137756217D01*
X182273000Y-136397000D01*
X182253000Y-136397000D01*
X182253000Y-136143000D01*
X182273000Y-136143000D01*
X182273000Y-134783783D01*
X182040974Y-134662642D01*
X182025209Y-134665291D01*
X181808610Y-134769628D01*
X181808610Y-129770371D01*
X182025209Y-129874709D01*
X182040974Y-129877358D01*
X182273000Y-129756217D01*
X182273000Y-128397000D01*
X182253000Y-128397000D01*
X182253000Y-128143000D01*
X182273000Y-128143000D01*
X182273000Y-126783783D01*
X182040974Y-126662642D01*
X182025209Y-126665291D01*
X181808610Y-126769628D01*
X181808610Y-121620190D01*
X188240082Y-115188717D01*
X188582948Y-116018515D01*
X189218141Y-116654818D01*
X190048486Y-116999607D01*
X190947570Y-117000391D01*
X191778515Y-116657052D01*
X192414818Y-116021859D01*
X192759607Y-115191514D01*
X192760391Y-114292430D01*
X192760391Y-124659751D01*
X192748610Y-124718978D01*
X192748610Y-126671910D01*
X192320000Y-126586655D01*
X191746511Y-126700729D01*
X191260330Y-127025585D01*
X191249784Y-127041367D01*
X191244063Y-127011877D01*
X191104273Y-126799073D01*
X190893240Y-126656623D01*
X190643600Y-126606560D01*
X188916400Y-126606560D01*
X188674277Y-126653537D01*
X188461473Y-126793327D01*
X188319023Y-127004360D01*
X188268960Y-127254000D01*
X188268960Y-129286000D01*
X188315937Y-129528123D01*
X188455727Y-129740927D01*
X188666760Y-129883377D01*
X188916400Y-129933440D01*
X190643600Y-129933440D01*
X190885723Y-129886463D01*
X191098527Y-129746673D01*
X191240977Y-129535640D01*
X191248718Y-129497037D01*
X191260330Y-129514415D01*
X191746511Y-129839271D01*
X192320000Y-129953345D01*
X192748610Y-129868089D01*
X192748610Y-134671910D01*
X192320000Y-134586655D01*
X191746511Y-134700729D01*
X191260330Y-135025585D01*
X191249784Y-135041367D01*
X191244063Y-135011877D01*
X191104273Y-134799073D01*
X190893240Y-134656623D01*
X190643600Y-134606560D01*
X188916400Y-134606560D01*
X188674277Y-134653537D01*
X188461473Y-134793327D01*
X188319023Y-135004360D01*
X188268960Y-135254000D01*
X188268960Y-137286000D01*
X188315937Y-137528123D01*
X188455727Y-137740927D01*
X188666760Y-137883377D01*
X188916400Y-137933440D01*
X190643600Y-137933440D01*
X190885723Y-137886463D01*
X191098527Y-137746673D01*
X191240977Y-137535640D01*
X191248718Y-137497037D01*
X191260330Y-137514415D01*
X191746511Y-137839271D01*
X192320000Y-137953345D01*
X192893489Y-137839271D01*
X193379670Y-137514415D01*
X193590000Y-137199634D01*
X193800330Y-137514415D01*
X194286511Y-137839271D01*
X194860000Y-137953345D01*
X195433489Y-137839271D01*
X195919670Y-137514415D01*
X196126460Y-137204930D01*
X196497964Y-137620732D01*
X197025209Y-137874709D01*
X197040974Y-137877358D01*
X197273000Y-137756217D01*
X197273000Y-136397000D01*
X197253000Y-136397000D01*
X197253000Y-136143000D01*
X197273000Y-136143000D01*
X197273000Y-134783783D01*
X197040974Y-134662642D01*
X197025209Y-134665291D01*
X196808610Y-134769628D01*
X196808610Y-129770371D01*
X197025209Y-129874709D01*
X197040974Y-129877358D01*
X197273000Y-129756217D01*
X197273000Y-128397000D01*
X197253000Y-128397000D01*
X197253000Y-128143000D01*
X197273000Y-128143000D01*
X197273000Y-126783783D01*
X197040974Y-126662642D01*
X197025209Y-126665291D01*
X196808610Y-126769628D01*
X196808610Y-123130190D01*
X204750082Y-115188717D01*
X205092948Y-116018515D01*
X205728141Y-116654818D01*
X206558486Y-116999607D01*
X207457570Y-117000391D01*
X208288515Y-116657052D01*
X208924818Y-116021859D01*
X209269607Y-115191514D01*
X209270391Y-114292430D01*
X209270391Y-123775000D01*
X201295000Y-123775000D01*
X201032862Y-123827143D01*
X200810632Y-123975632D01*
X200662143Y-124197862D01*
X200610000Y-124460000D01*
X200610000Y-139650000D01*
X198885184Y-139650000D01*
X198885184Y-136631913D01*
X198885184Y-135908087D01*
X198885184Y-128631913D01*
X198885184Y-127908087D01*
X198691954Y-127355680D01*
X198302036Y-126919268D01*
X197774791Y-126665291D01*
X197759026Y-126662642D01*
X197527000Y-126783783D01*
X197527000Y-128143000D01*
X198740924Y-128143000D01*
X198885184Y-127908087D01*
X198885184Y-128631913D01*
X198740924Y-128397000D01*
X197527000Y-128397000D01*
X197527000Y-129756217D01*
X197759026Y-129877358D01*
X197774791Y-129874709D01*
X198302036Y-129620732D01*
X198691954Y-129184320D01*
X198885184Y-128631913D01*
X198885184Y-135908087D01*
X198691954Y-135355680D01*
X198302036Y-134919268D01*
X197774791Y-134665291D01*
X197759026Y-134662642D01*
X197527000Y-134783783D01*
X197527000Y-136143000D01*
X198740924Y-136143000D01*
X198885184Y-135908087D01*
X198885184Y-136631913D01*
X198740924Y-136397000D01*
X197527000Y-136397000D01*
X197527000Y-137756217D01*
X197759026Y-137877358D01*
X197774791Y-137874709D01*
X198302036Y-137620732D01*
X198691954Y-137184320D01*
X198885184Y-136631913D01*
X198885184Y-139650000D01*
X183885184Y-139650000D01*
X183885184Y-136631913D01*
X183885184Y-135908087D01*
X183885184Y-128631913D01*
X183885184Y-127908087D01*
X183691954Y-127355680D01*
X183302036Y-126919268D01*
X182774791Y-126665291D01*
X182759026Y-126662642D01*
X182527000Y-126783783D01*
X182527000Y-128143000D01*
X183740924Y-128143000D01*
X183885184Y-127908087D01*
X183885184Y-128631913D01*
X183740924Y-128397000D01*
X182527000Y-128397000D01*
X182527000Y-129756217D01*
X182759026Y-129877358D01*
X182774791Y-129874709D01*
X183302036Y-129620732D01*
X183691954Y-129184320D01*
X183885184Y-128631913D01*
X183885184Y-135908087D01*
X183691954Y-135355680D01*
X183302036Y-134919268D01*
X182774791Y-134665291D01*
X182759026Y-134662642D01*
X182527000Y-134783783D01*
X182527000Y-136143000D01*
X183740924Y-136143000D01*
X183885184Y-135908087D01*
X183885184Y-136631913D01*
X183740924Y-136397000D01*
X182527000Y-136397000D01*
X182527000Y-137756217D01*
X182759026Y-137877358D01*
X182774791Y-137874709D01*
X183302036Y-137620732D01*
X183691954Y-137184320D01*
X183885184Y-136631913D01*
X183885184Y-139650000D01*
X168885184Y-139650000D01*
X168885184Y-136631913D01*
X168885184Y-135908087D01*
X168885184Y-128631913D01*
X168885184Y-127908087D01*
X168691954Y-127355680D01*
X168302036Y-126919268D01*
X167774791Y-126665291D01*
X167759026Y-126662642D01*
X167527000Y-126783783D01*
X167527000Y-128143000D01*
X168740924Y-128143000D01*
X168885184Y-127908087D01*
X168885184Y-128631913D01*
X168740924Y-128397000D01*
X167527000Y-128397000D01*
X167527000Y-129756217D01*
X167759026Y-129877358D01*
X167774791Y-129874709D01*
X168302036Y-129620732D01*
X168691954Y-129184320D01*
X168885184Y-128631913D01*
X168885184Y-135908087D01*
X168691954Y-135355680D01*
X168302036Y-134919268D01*
X167774791Y-134665291D01*
X167759026Y-134662642D01*
X167527000Y-134783783D01*
X167527000Y-136143000D01*
X168740924Y-136143000D01*
X168885184Y-135908087D01*
X168885184Y-136631913D01*
X168740924Y-136397000D01*
X167527000Y-136397000D01*
X167527000Y-137756217D01*
X167759026Y-137877358D01*
X167774791Y-137874709D01*
X168302036Y-137620732D01*
X168691954Y-137184320D01*
X168885184Y-136631913D01*
X168885184Y-139650000D01*
X153885184Y-139650000D01*
X153885184Y-136631913D01*
X153885184Y-135908087D01*
X153885184Y-128631913D01*
X153885184Y-127908087D01*
X153691954Y-127355680D01*
X153302036Y-126919268D01*
X152774791Y-126665291D01*
X152759026Y-126662642D01*
X152527000Y-126783783D01*
X152527000Y-128143000D01*
X153740924Y-128143000D01*
X153885184Y-127908087D01*
X153885184Y-128631913D01*
X153740924Y-128397000D01*
X152527000Y-128397000D01*
X152527000Y-129756217D01*
X152759026Y-129877358D01*
X152774791Y-129874709D01*
X153302036Y-129620732D01*
X153691954Y-129184320D01*
X153885184Y-128631913D01*
X153885184Y-135908087D01*
X153691954Y-135355680D01*
X153302036Y-134919268D01*
X152774791Y-134665291D01*
X152759026Y-134662642D01*
X152527000Y-134783783D01*
X152527000Y-136143000D01*
X153740924Y-136143000D01*
X153885184Y-135908087D01*
X153885184Y-136631913D01*
X153740924Y-136397000D01*
X152527000Y-136397000D01*
X152527000Y-137756217D01*
X152759026Y-137877358D01*
X152774791Y-137874709D01*
X153302036Y-137620732D01*
X153691954Y-137184320D01*
X153885184Y-136631913D01*
X153885184Y-139650000D01*
X140385000Y-139650000D01*
X140385000Y-124510000D01*
X142875000Y-124510000D01*
X143137138Y-124457857D01*
X143359368Y-124309368D01*
X143507857Y-124087138D01*
X143560000Y-123825000D01*
X143560000Y-86410000D01*
X210770000Y-86410000D01*
X210770000Y-123775000D01*
X210770000Y-123775000D01*
G37*
X210770000Y-123775000D02*
X209270391Y-123775000D01*
X209270391Y-114292430D01*
X209270391Y-96512430D01*
X208927052Y-95681485D01*
X208291859Y-95045182D01*
X207461514Y-94700393D01*
X207061029Y-94700043D01*
X207061029Y-87808429D01*
X206860373Y-87322804D01*
X206489150Y-86950933D01*
X206003876Y-86749430D01*
X205478429Y-86748971D01*
X204992804Y-86949627D01*
X204620933Y-87320850D01*
X204476700Y-87668201D01*
X204359277Y-87384717D01*
X204124979Y-87324626D01*
X203945374Y-87504231D01*
X203945374Y-87145021D01*
X203885283Y-86910723D01*
X203389483Y-86736721D01*
X202864836Y-86765699D01*
X202514717Y-86910723D01*
X202454626Y-87145021D01*
X203200000Y-87890395D01*
X203945374Y-87145021D01*
X203945374Y-87504231D01*
X203379605Y-88070000D01*
X204124979Y-88815374D01*
X204359277Y-88755283D01*
X204467100Y-88448052D01*
X204619627Y-88817196D01*
X204990850Y-89189067D01*
X205476124Y-89390570D01*
X206001571Y-89391029D01*
X206487196Y-89190373D01*
X206859067Y-88819150D01*
X207060570Y-88333876D01*
X207061029Y-87808429D01*
X207061029Y-94700043D01*
X206562430Y-94699609D01*
X205791029Y-95018344D01*
X205791029Y-90348429D01*
X205590373Y-89862804D01*
X205219150Y-89490933D01*
X204733876Y-89289430D01*
X204208429Y-89288971D01*
X203945374Y-89397663D01*
X203945374Y-88994979D01*
X203200000Y-88249605D01*
X203020395Y-88429210D01*
X203020395Y-88070000D01*
X202275021Y-87324626D01*
X202040723Y-87384717D01*
X201939154Y-87674126D01*
X201819277Y-87384717D01*
X201584979Y-87324626D01*
X201405374Y-87504231D01*
X201405374Y-87145021D01*
X201345283Y-86910723D01*
X200849483Y-86736721D01*
X200324836Y-86765699D01*
X199974717Y-86910723D01*
X199914626Y-87145021D01*
X200660000Y-87890395D01*
X201405374Y-87145021D01*
X201405374Y-87504231D01*
X200839605Y-88070000D01*
X201584979Y-88815374D01*
X201819277Y-88755283D01*
X201920845Y-88465873D01*
X202040723Y-88755283D01*
X202275021Y-88815374D01*
X203020395Y-88070000D01*
X203020395Y-88429210D01*
X202454626Y-88994979D01*
X202514717Y-89229277D01*
X203010517Y-89403279D01*
X203535164Y-89374301D01*
X203885283Y-89229277D01*
X203945374Y-88994979D01*
X203945374Y-89397663D01*
X203722804Y-89489627D01*
X203350933Y-89860850D01*
X203206700Y-90208201D01*
X203089277Y-89924717D01*
X202854979Y-89864626D01*
X202675374Y-90044231D01*
X202675374Y-89685021D01*
X202615283Y-89450723D01*
X202119483Y-89276721D01*
X201594836Y-89305699D01*
X201405374Y-89384176D01*
X201405374Y-88994979D01*
X200660000Y-88249605D01*
X200480395Y-88429210D01*
X200480395Y-88070000D01*
X199735021Y-87324626D01*
X199500723Y-87384717D01*
X199392899Y-87691947D01*
X199240373Y-87322804D01*
X198869150Y-86950933D01*
X198383876Y-86749430D01*
X197858429Y-86748971D01*
X197372804Y-86949627D01*
X197000933Y-87320850D01*
X196799430Y-87806124D01*
X196798971Y-88331571D01*
X196999627Y-88817196D01*
X197370850Y-89189067D01*
X197856124Y-89390570D01*
X198381571Y-89391029D01*
X198867196Y-89190373D01*
X199239067Y-88819150D01*
X199383299Y-88471798D01*
X199500723Y-88755283D01*
X199735021Y-88815374D01*
X200480395Y-88070000D01*
X200480395Y-88429210D01*
X199914626Y-88994979D01*
X199974717Y-89229277D01*
X200470517Y-89403279D01*
X200995164Y-89374301D01*
X201345283Y-89229277D01*
X201405374Y-88994979D01*
X201405374Y-89384176D01*
X201244717Y-89450723D01*
X201184626Y-89685021D01*
X201930000Y-90430395D01*
X202675374Y-89685021D01*
X202675374Y-90044231D01*
X202109605Y-90610000D01*
X202854979Y-91355374D01*
X203089277Y-91295283D01*
X203197100Y-90988052D01*
X203349627Y-91357196D01*
X203720850Y-91729067D01*
X204206124Y-91930570D01*
X204731571Y-91931029D01*
X205217196Y-91730373D01*
X205589067Y-91359150D01*
X205790570Y-90873876D01*
X205791029Y-90348429D01*
X205791029Y-95018344D01*
X205731485Y-95042948D01*
X205095182Y-95678141D01*
X204750393Y-96508486D01*
X204749609Y-97407570D01*
X205092948Y-98238515D01*
X205728141Y-98874818D01*
X206558486Y-99219607D01*
X207457570Y-99220391D01*
X208288515Y-98877052D01*
X208924818Y-98241859D01*
X209269607Y-97411514D01*
X209270391Y-96512430D01*
X209270391Y-114292430D01*
X208927052Y-113461485D01*
X208291859Y-112825182D01*
X207461514Y-112480393D01*
X206562430Y-112479609D01*
X206500000Y-112505404D01*
X206500000Y-106957591D01*
X206859067Y-106599150D01*
X207060570Y-106113876D01*
X207061029Y-105588429D01*
X206860373Y-105102804D01*
X206489150Y-104730933D01*
X206003876Y-104529430D01*
X205478429Y-104528971D01*
X204992804Y-104729627D01*
X204620933Y-105100850D01*
X204476700Y-105448201D01*
X204359277Y-105164717D01*
X204124979Y-105104626D01*
X203945374Y-105284231D01*
X203945374Y-104925021D01*
X203885283Y-104690723D01*
X203389483Y-104516721D01*
X202864836Y-104545699D01*
X202675374Y-104624176D01*
X202675374Y-91534979D01*
X201930000Y-90789605D01*
X201750395Y-90969210D01*
X201750395Y-90610000D01*
X201005021Y-89864626D01*
X200770723Y-89924717D01*
X200662899Y-90231947D01*
X200510373Y-89862804D01*
X200139150Y-89490933D01*
X199653876Y-89289430D01*
X199128429Y-89288971D01*
X198642804Y-89489627D01*
X198270933Y-89860850D01*
X198119877Y-90224632D01*
X197970373Y-89862804D01*
X197599150Y-89490933D01*
X197113876Y-89289430D01*
X196588429Y-89288971D01*
X196102804Y-89489627D01*
X195730933Y-89860850D01*
X195529430Y-90346124D01*
X195528971Y-90871571D01*
X195729627Y-91357196D01*
X196100850Y-91729067D01*
X196586124Y-91930570D01*
X197111571Y-91931029D01*
X197597196Y-91730373D01*
X197969067Y-91359150D01*
X198120122Y-90995367D01*
X198269627Y-91357196D01*
X198640850Y-91729067D01*
X199126124Y-91930570D01*
X199651571Y-91931029D01*
X200137196Y-91730373D01*
X200509067Y-91359150D01*
X200653299Y-91011798D01*
X200770723Y-91295283D01*
X201005021Y-91355374D01*
X201750395Y-90610000D01*
X201750395Y-90969210D01*
X201184626Y-91534979D01*
X201244717Y-91769277D01*
X201740517Y-91943279D01*
X202265164Y-91914301D01*
X202615283Y-91769277D01*
X202675374Y-91534979D01*
X202675374Y-104624176D01*
X202514717Y-104690723D01*
X202454626Y-104925021D01*
X203200000Y-105670395D01*
X203945374Y-104925021D01*
X203945374Y-105284231D01*
X203379605Y-105850000D01*
X204124979Y-106595374D01*
X204359277Y-106535283D01*
X204467100Y-106228052D01*
X204619627Y-106597196D01*
X204980000Y-106958198D01*
X204980000Y-107171629D01*
X204733876Y-107069430D01*
X204208429Y-107068971D01*
X203945374Y-107177663D01*
X203945374Y-106774979D01*
X203200000Y-106029605D01*
X203020395Y-106209210D01*
X203020395Y-105850000D01*
X202275021Y-105104626D01*
X202040723Y-105164717D01*
X201939154Y-105454126D01*
X201819277Y-105164717D01*
X201584979Y-105104626D01*
X201405374Y-105284231D01*
X201405374Y-104925021D01*
X201345283Y-104690723D01*
X200849483Y-104516721D01*
X200324836Y-104545699D01*
X199974717Y-104690723D01*
X199914626Y-104925021D01*
X200660000Y-105670395D01*
X201405374Y-104925021D01*
X201405374Y-105284231D01*
X200839605Y-105850000D01*
X201584979Y-106595374D01*
X201819277Y-106535283D01*
X201920845Y-106245873D01*
X202040723Y-106535283D01*
X202275021Y-106595374D01*
X203020395Y-105850000D01*
X203020395Y-106209210D01*
X202454626Y-106774979D01*
X202514717Y-107009277D01*
X203010517Y-107183279D01*
X203535164Y-107154301D01*
X203885283Y-107009277D01*
X203945374Y-106774979D01*
X203945374Y-107177663D01*
X203722804Y-107269627D01*
X203350933Y-107640850D01*
X203206700Y-107988201D01*
X203089277Y-107704717D01*
X202854979Y-107644626D01*
X202675374Y-107824231D01*
X202675374Y-107465021D01*
X202615283Y-107230723D01*
X202119483Y-107056721D01*
X201594836Y-107085699D01*
X201405374Y-107164176D01*
X201405374Y-106774979D01*
X200660000Y-106029605D01*
X200480395Y-106209210D01*
X200480395Y-105850000D01*
X199735021Y-105104626D01*
X199500723Y-105164717D01*
X199392899Y-105471947D01*
X199240373Y-105102804D01*
X198869150Y-104730933D01*
X198383876Y-104529430D01*
X197858429Y-104528971D01*
X197840391Y-104536424D01*
X197840391Y-96512430D01*
X197497052Y-95681485D01*
X196861859Y-95045182D01*
X196031514Y-94700393D01*
X195132430Y-94699609D01*
X194301485Y-95042948D01*
X193665182Y-95678141D01*
X193320393Y-96508486D01*
X193319609Y-97407570D01*
X193662948Y-98238515D01*
X194298141Y-98874818D01*
X195128486Y-99219607D01*
X196027570Y-99220391D01*
X196858515Y-98877052D01*
X197494818Y-98241859D01*
X197839607Y-97411514D01*
X197840391Y-96512430D01*
X197840391Y-104536424D01*
X197372804Y-104729627D01*
X197000933Y-105100850D01*
X196799430Y-105586124D01*
X196798971Y-106111571D01*
X196999627Y-106597196D01*
X197370850Y-106969067D01*
X197856124Y-107170570D01*
X198381571Y-107171029D01*
X198867196Y-106970373D01*
X199239067Y-106599150D01*
X199383299Y-106251798D01*
X199500723Y-106535283D01*
X199735021Y-106595374D01*
X200480395Y-105850000D01*
X200480395Y-106209210D01*
X199914626Y-106774979D01*
X199974717Y-107009277D01*
X200470517Y-107183279D01*
X200995164Y-107154301D01*
X201345283Y-107009277D01*
X201405374Y-106774979D01*
X201405374Y-107164176D01*
X201244717Y-107230723D01*
X201184626Y-107465021D01*
X201930000Y-108210395D01*
X202675374Y-107465021D01*
X202675374Y-107824231D01*
X202109605Y-108390000D01*
X202854979Y-109135374D01*
X203089277Y-109075283D01*
X203197100Y-108768052D01*
X203349627Y-109137196D01*
X203710000Y-109498198D01*
X203710000Y-113442786D01*
X202675374Y-114477412D01*
X202675374Y-109314979D01*
X201930000Y-108569605D01*
X201750395Y-108749210D01*
X201750395Y-108390000D01*
X201005021Y-107644626D01*
X200770723Y-107704717D01*
X200662899Y-108011947D01*
X200510373Y-107642804D01*
X200139150Y-107270933D01*
X199653876Y-107069430D01*
X199128429Y-107068971D01*
X198642804Y-107269627D01*
X198270933Y-107640850D01*
X198119877Y-108004632D01*
X197970373Y-107642804D01*
X197599150Y-107270933D01*
X197113876Y-107069430D01*
X196588429Y-107068971D01*
X196102804Y-107269627D01*
X195730933Y-107640850D01*
X195529430Y-108126124D01*
X195528971Y-108651571D01*
X195729627Y-109137196D01*
X196100850Y-109509067D01*
X196586124Y-109710570D01*
X197111571Y-109711029D01*
X197597196Y-109510373D01*
X197969067Y-109139150D01*
X198120122Y-108775367D01*
X198269627Y-109137196D01*
X198640850Y-109509067D01*
X199126124Y-109710570D01*
X199651571Y-109711029D01*
X200137196Y-109510373D01*
X200509067Y-109139150D01*
X200653299Y-108791798D01*
X200770723Y-109075283D01*
X201005021Y-109135374D01*
X201750395Y-108390000D01*
X201750395Y-108749210D01*
X201184626Y-109314979D01*
X201244717Y-109549277D01*
X201740517Y-109723279D01*
X202265164Y-109694301D01*
X202615283Y-109549277D01*
X202675374Y-109314979D01*
X202675374Y-114477412D01*
X197840391Y-119312395D01*
X197840391Y-114292430D01*
X197497052Y-113461485D01*
X196861859Y-112825182D01*
X196031514Y-112480393D01*
X195132430Y-112479609D01*
X194301485Y-112822948D01*
X193665182Y-113458141D01*
X193320393Y-114288486D01*
X193319609Y-115187570D01*
X193662948Y-116018515D01*
X194298141Y-116654818D01*
X195128486Y-116999607D01*
X196027570Y-117000391D01*
X196858515Y-116657052D01*
X197494818Y-116021859D01*
X197839607Y-115191514D01*
X197840391Y-114292430D01*
X197840391Y-119312395D01*
X192971209Y-124181577D01*
X192806462Y-124428139D01*
X192760391Y-124659751D01*
X192760391Y-114292430D01*
X192760391Y-96512430D01*
X192417052Y-95681485D01*
X191781859Y-95045182D01*
X190951514Y-94700393D01*
X190551029Y-94700043D01*
X190551029Y-87808429D01*
X190350373Y-87322804D01*
X189979150Y-86950933D01*
X189493876Y-86749430D01*
X188968429Y-86748971D01*
X188482804Y-86949627D01*
X188110933Y-87320850D01*
X187966700Y-87668201D01*
X187849277Y-87384717D01*
X187614979Y-87324626D01*
X187435374Y-87504231D01*
X187435374Y-87145021D01*
X187375283Y-86910723D01*
X186879483Y-86736721D01*
X186354836Y-86765699D01*
X186004717Y-86910723D01*
X185944626Y-87145021D01*
X186690000Y-87890395D01*
X187435374Y-87145021D01*
X187435374Y-87504231D01*
X186869605Y-88070000D01*
X187614979Y-88815374D01*
X187849277Y-88755283D01*
X187957100Y-88448052D01*
X188109627Y-88817196D01*
X188480850Y-89189067D01*
X188966124Y-89390570D01*
X189491571Y-89391029D01*
X189977196Y-89190373D01*
X190349067Y-88819150D01*
X190550570Y-88333876D01*
X190551029Y-87808429D01*
X190551029Y-94700043D01*
X190052430Y-94699609D01*
X189281029Y-95018344D01*
X189281029Y-90348429D01*
X189080373Y-89862804D01*
X188709150Y-89490933D01*
X188223876Y-89289430D01*
X187698429Y-89288971D01*
X187435374Y-89397663D01*
X187435374Y-88994979D01*
X186690000Y-88249605D01*
X186510395Y-88429210D01*
X186510395Y-88070000D01*
X185765021Y-87324626D01*
X185530723Y-87384717D01*
X185429154Y-87674126D01*
X185309277Y-87384717D01*
X185074979Y-87324626D01*
X184895374Y-87504231D01*
X184895374Y-87145021D01*
X184835283Y-86910723D01*
X184339483Y-86736721D01*
X183814836Y-86765699D01*
X183464717Y-86910723D01*
X183404626Y-87145021D01*
X184150000Y-87890395D01*
X184895374Y-87145021D01*
X184895374Y-87504231D01*
X184329605Y-88070000D01*
X185074979Y-88815374D01*
X185309277Y-88755283D01*
X185410845Y-88465873D01*
X185530723Y-88755283D01*
X185765021Y-88815374D01*
X186510395Y-88070000D01*
X186510395Y-88429210D01*
X185944626Y-88994979D01*
X186004717Y-89229277D01*
X186500517Y-89403279D01*
X187025164Y-89374301D01*
X187375283Y-89229277D01*
X187435374Y-88994979D01*
X187435374Y-89397663D01*
X187212804Y-89489627D01*
X186840933Y-89860850D01*
X186696700Y-90208201D01*
X186579277Y-89924717D01*
X186344979Y-89864626D01*
X186165374Y-90044231D01*
X186165374Y-89685021D01*
X186105283Y-89450723D01*
X185609483Y-89276721D01*
X185084836Y-89305699D01*
X184895374Y-89384176D01*
X184895374Y-88994979D01*
X184150000Y-88249605D01*
X183970395Y-88429210D01*
X183970395Y-88070000D01*
X183225021Y-87324626D01*
X182990723Y-87384717D01*
X182882899Y-87691947D01*
X182730373Y-87322804D01*
X182359150Y-86950933D01*
X181873876Y-86749430D01*
X181348429Y-86748971D01*
X180862804Y-86949627D01*
X180490933Y-87320850D01*
X180289430Y-87806124D01*
X180288971Y-88331571D01*
X180489627Y-88817196D01*
X180860850Y-89189067D01*
X181346124Y-89390570D01*
X181871571Y-89391029D01*
X182357196Y-89190373D01*
X182729067Y-88819150D01*
X182873299Y-88471798D01*
X182990723Y-88755283D01*
X183225021Y-88815374D01*
X183970395Y-88070000D01*
X183970395Y-88429210D01*
X183404626Y-88994979D01*
X183464717Y-89229277D01*
X183960517Y-89403279D01*
X184485164Y-89374301D01*
X184835283Y-89229277D01*
X184895374Y-88994979D01*
X184895374Y-89384176D01*
X184734717Y-89450723D01*
X184674626Y-89685021D01*
X185420000Y-90430395D01*
X186165374Y-89685021D01*
X186165374Y-90044231D01*
X185599605Y-90610000D01*
X186344979Y-91355374D01*
X186579277Y-91295283D01*
X186687100Y-90988052D01*
X186839627Y-91357196D01*
X187210850Y-91729067D01*
X187696124Y-91930570D01*
X188221571Y-91931029D01*
X188707196Y-91730373D01*
X189079067Y-91359150D01*
X189280570Y-90873876D01*
X189281029Y-90348429D01*
X189281029Y-95018344D01*
X189221485Y-95042948D01*
X188585182Y-95678141D01*
X188240393Y-96508486D01*
X188239609Y-97407570D01*
X188582948Y-98238515D01*
X189218141Y-98874818D01*
X190048486Y-99219607D01*
X190947570Y-99220391D01*
X191778515Y-98877052D01*
X192414818Y-98241859D01*
X192759607Y-97411514D01*
X192760391Y-96512430D01*
X192760391Y-114292430D01*
X192417052Y-113461485D01*
X191781859Y-112825182D01*
X190951514Y-112480393D01*
X190052430Y-112479609D01*
X189990000Y-112505404D01*
X189990000Y-106957591D01*
X190349067Y-106599150D01*
X190550570Y-106113876D01*
X190551029Y-105588429D01*
X190350373Y-105102804D01*
X189979150Y-104730933D01*
X189493876Y-104529430D01*
X188968429Y-104528971D01*
X188482804Y-104729627D01*
X188110933Y-105100850D01*
X187966700Y-105448201D01*
X187849277Y-105164717D01*
X187614979Y-105104626D01*
X187435374Y-105284231D01*
X187435374Y-104925021D01*
X187375283Y-104690723D01*
X186879483Y-104516721D01*
X186354836Y-104545699D01*
X186165374Y-104624176D01*
X186165374Y-91534979D01*
X185420000Y-90789605D01*
X185240395Y-90969210D01*
X185240395Y-90610000D01*
X184495021Y-89864626D01*
X184260723Y-89924717D01*
X184152899Y-90231947D01*
X184000373Y-89862804D01*
X183629150Y-89490933D01*
X183143876Y-89289430D01*
X182618429Y-89288971D01*
X182132804Y-89489627D01*
X181760933Y-89860850D01*
X181609877Y-90224632D01*
X181460373Y-89862804D01*
X181089150Y-89490933D01*
X180603876Y-89289430D01*
X180078429Y-89288971D01*
X179592804Y-89489627D01*
X179220933Y-89860850D01*
X179019430Y-90346124D01*
X179018971Y-90871571D01*
X179219627Y-91357196D01*
X179590850Y-91729067D01*
X180076124Y-91930570D01*
X180601571Y-91931029D01*
X181087196Y-91730373D01*
X181459067Y-91359150D01*
X181610122Y-90995367D01*
X181759627Y-91357196D01*
X182130850Y-91729067D01*
X182616124Y-91930570D01*
X183141571Y-91931029D01*
X183627196Y-91730373D01*
X183999067Y-91359150D01*
X184143299Y-91011798D01*
X184260723Y-91295283D01*
X184495021Y-91355374D01*
X185240395Y-90610000D01*
X185240395Y-90969210D01*
X184674626Y-91534979D01*
X184734717Y-91769277D01*
X185230517Y-91943279D01*
X185755164Y-91914301D01*
X186105283Y-91769277D01*
X186165374Y-91534979D01*
X186165374Y-104624176D01*
X186004717Y-104690723D01*
X185944626Y-104925021D01*
X186690000Y-105670395D01*
X187435374Y-104925021D01*
X187435374Y-105284231D01*
X186869605Y-105850000D01*
X187614979Y-106595374D01*
X187849277Y-106535283D01*
X187957100Y-106228052D01*
X188109627Y-106597196D01*
X188470000Y-106958198D01*
X188470000Y-107171629D01*
X188223876Y-107069430D01*
X187698429Y-107068971D01*
X187435374Y-107177663D01*
X187435374Y-106774979D01*
X186690000Y-106029605D01*
X186510395Y-106209210D01*
X186510395Y-105850000D01*
X185765021Y-105104626D01*
X185530723Y-105164717D01*
X185429154Y-105454126D01*
X185309277Y-105164717D01*
X185074979Y-105104626D01*
X184895374Y-105284231D01*
X184895374Y-104925021D01*
X184835283Y-104690723D01*
X184339483Y-104516721D01*
X183814836Y-104545699D01*
X183464717Y-104690723D01*
X183404626Y-104925021D01*
X184150000Y-105670395D01*
X184895374Y-104925021D01*
X184895374Y-105284231D01*
X184329605Y-105850000D01*
X185074979Y-106595374D01*
X185309277Y-106535283D01*
X185410845Y-106245873D01*
X185530723Y-106535283D01*
X185765021Y-106595374D01*
X186510395Y-105850000D01*
X186510395Y-106209210D01*
X185944626Y-106774979D01*
X186004717Y-107009277D01*
X186500517Y-107183279D01*
X187025164Y-107154301D01*
X187375283Y-107009277D01*
X187435374Y-106774979D01*
X187435374Y-107177663D01*
X187212804Y-107269627D01*
X186840933Y-107640850D01*
X186696700Y-107988201D01*
X186579277Y-107704717D01*
X186344979Y-107644626D01*
X186165374Y-107824231D01*
X186165374Y-107465021D01*
X186105283Y-107230723D01*
X185609483Y-107056721D01*
X185084836Y-107085699D01*
X184895374Y-107164176D01*
X184895374Y-106774979D01*
X184150000Y-106029605D01*
X183970395Y-106209210D01*
X183970395Y-105850000D01*
X183225021Y-105104626D01*
X182990723Y-105164717D01*
X182882899Y-105471947D01*
X182730373Y-105102804D01*
X182359150Y-104730933D01*
X181873876Y-104529430D01*
X181348429Y-104528971D01*
X181330391Y-104536424D01*
X181330391Y-96512430D01*
X180987052Y-95681485D01*
X180351859Y-95045182D01*
X179521514Y-94700393D01*
X178622430Y-94699609D01*
X177791485Y-95042948D01*
X177155182Y-95678141D01*
X176810393Y-96508486D01*
X176809609Y-97407570D01*
X177152948Y-98238515D01*
X177788141Y-98874818D01*
X178618486Y-99219607D01*
X179517570Y-99220391D01*
X180348515Y-98877052D01*
X180984818Y-98241859D01*
X181329607Y-97411514D01*
X181330391Y-96512430D01*
X181330391Y-104536424D01*
X180862804Y-104729627D01*
X180490933Y-105100850D01*
X180289430Y-105586124D01*
X180288971Y-106111571D01*
X180489627Y-106597196D01*
X180860850Y-106969067D01*
X181346124Y-107170570D01*
X181871571Y-107171029D01*
X182357196Y-106970373D01*
X182729067Y-106599150D01*
X182873299Y-106251798D01*
X182990723Y-106535283D01*
X183225021Y-106595374D01*
X183970395Y-105850000D01*
X183970395Y-106209210D01*
X183404626Y-106774979D01*
X183464717Y-107009277D01*
X183960517Y-107183279D01*
X184485164Y-107154301D01*
X184835283Y-107009277D01*
X184895374Y-106774979D01*
X184895374Y-107164176D01*
X184734717Y-107230723D01*
X184674626Y-107465021D01*
X185420000Y-108210395D01*
X186165374Y-107465021D01*
X186165374Y-107824231D01*
X185599605Y-108390000D01*
X186344979Y-109135374D01*
X186579277Y-109075283D01*
X186687100Y-108768052D01*
X186839627Y-109137196D01*
X187200000Y-109498198D01*
X187200000Y-113442786D01*
X186165374Y-114477412D01*
X186165374Y-109314979D01*
X185420000Y-108569605D01*
X185240395Y-108749210D01*
X185240395Y-108390000D01*
X184495021Y-107644626D01*
X184260723Y-107704717D01*
X184152899Y-108011947D01*
X184000373Y-107642804D01*
X183629150Y-107270933D01*
X183143876Y-107069430D01*
X182618429Y-107068971D01*
X182132804Y-107269627D01*
X181760933Y-107640850D01*
X181609877Y-108004632D01*
X181460373Y-107642804D01*
X181089150Y-107270933D01*
X180603876Y-107069430D01*
X180078429Y-107068971D01*
X179592804Y-107269627D01*
X179220933Y-107640850D01*
X179019430Y-108126124D01*
X179018971Y-108651571D01*
X179219627Y-109137196D01*
X179590850Y-109509067D01*
X180076124Y-109710570D01*
X180601571Y-109711029D01*
X181087196Y-109510373D01*
X181459067Y-109139150D01*
X181610122Y-108775367D01*
X181759627Y-109137196D01*
X182130850Y-109509067D01*
X182616124Y-109710570D01*
X183141571Y-109711029D01*
X183627196Y-109510373D01*
X183999067Y-109139150D01*
X184143299Y-108791798D01*
X184260723Y-109075283D01*
X184495021Y-109135374D01*
X185240395Y-108390000D01*
X185240395Y-108749210D01*
X184674626Y-109314979D01*
X184734717Y-109549277D01*
X185230517Y-109723279D01*
X185755164Y-109694301D01*
X186105283Y-109549277D01*
X186165374Y-109314979D01*
X186165374Y-114477412D01*
X181330391Y-119312395D01*
X181330391Y-114292430D01*
X180987052Y-113461485D01*
X180351859Y-112825182D01*
X179521514Y-112480393D01*
X178622430Y-112479609D01*
X177791485Y-112822948D01*
X177155182Y-113458141D01*
X176810393Y-114288486D01*
X176809609Y-115187570D01*
X177152948Y-116018515D01*
X177788141Y-116654818D01*
X178618486Y-116999607D01*
X179517570Y-117000391D01*
X180348515Y-116657052D01*
X180984818Y-116021859D01*
X181329607Y-115191514D01*
X181330391Y-114292430D01*
X181330391Y-119312395D01*
X177971209Y-122671577D01*
X177806462Y-122918139D01*
X177748610Y-123208978D01*
X177748610Y-126671910D01*
X177320000Y-126586655D01*
X176746511Y-126700729D01*
X176260330Y-127025585D01*
X176250391Y-127040458D01*
X176250391Y-114292430D01*
X176250391Y-96512430D01*
X175907052Y-95681485D01*
X175271859Y-95045182D01*
X174441514Y-94700393D01*
X174041029Y-94700043D01*
X174041029Y-87808429D01*
X173840373Y-87322804D01*
X173469150Y-86950933D01*
X172983876Y-86749430D01*
X172458429Y-86748971D01*
X171972804Y-86949627D01*
X171600933Y-87320850D01*
X171456700Y-87668201D01*
X171339277Y-87384717D01*
X171104979Y-87324626D01*
X170925374Y-87504231D01*
X170925374Y-87145021D01*
X170865283Y-86910723D01*
X170369483Y-86736721D01*
X169844836Y-86765699D01*
X169494717Y-86910723D01*
X169434626Y-87145021D01*
X170180000Y-87890395D01*
X170925374Y-87145021D01*
X170925374Y-87504231D01*
X170359605Y-88070000D01*
X171104979Y-88815374D01*
X171339277Y-88755283D01*
X171447100Y-88448052D01*
X171599627Y-88817196D01*
X171970850Y-89189067D01*
X172456124Y-89390570D01*
X172981571Y-89391029D01*
X173467196Y-89190373D01*
X173839067Y-88819150D01*
X174040570Y-88333876D01*
X174041029Y-87808429D01*
X174041029Y-94700043D01*
X173542430Y-94699609D01*
X172771029Y-95018344D01*
X172771029Y-90348429D01*
X172570373Y-89862804D01*
X172199150Y-89490933D01*
X171713876Y-89289430D01*
X171188429Y-89288971D01*
X170925374Y-89397663D01*
X170925374Y-88994979D01*
X170180000Y-88249605D01*
X170000395Y-88429210D01*
X170000395Y-88070000D01*
X169255021Y-87324626D01*
X169020723Y-87384717D01*
X168919154Y-87674126D01*
X168799277Y-87384717D01*
X168564979Y-87324626D01*
X168385374Y-87504231D01*
X168385374Y-87145021D01*
X168325283Y-86910723D01*
X167829483Y-86736721D01*
X167304836Y-86765699D01*
X166954717Y-86910723D01*
X166894626Y-87145021D01*
X167640000Y-87890395D01*
X168385374Y-87145021D01*
X168385374Y-87504231D01*
X167819605Y-88070000D01*
X168564979Y-88815374D01*
X168799277Y-88755283D01*
X168900845Y-88465873D01*
X169020723Y-88755283D01*
X169255021Y-88815374D01*
X170000395Y-88070000D01*
X170000395Y-88429210D01*
X169434626Y-88994979D01*
X169494717Y-89229277D01*
X169990517Y-89403279D01*
X170515164Y-89374301D01*
X170865283Y-89229277D01*
X170925374Y-88994979D01*
X170925374Y-89397663D01*
X170702804Y-89489627D01*
X170330933Y-89860850D01*
X170186700Y-90208201D01*
X170069277Y-89924717D01*
X169834979Y-89864626D01*
X169655374Y-90044231D01*
X169655374Y-89685021D01*
X169595283Y-89450723D01*
X169099483Y-89276721D01*
X168574836Y-89305699D01*
X168385374Y-89384176D01*
X168385374Y-88994979D01*
X167640000Y-88249605D01*
X167460395Y-88429210D01*
X167460395Y-88070000D01*
X166715021Y-87324626D01*
X166480723Y-87384717D01*
X166372899Y-87691947D01*
X166220373Y-87322804D01*
X165849150Y-86950933D01*
X165363876Y-86749430D01*
X164838429Y-86748971D01*
X164352804Y-86949627D01*
X163980933Y-87320850D01*
X163779430Y-87806124D01*
X163778971Y-88331571D01*
X163979627Y-88817196D01*
X164350850Y-89189067D01*
X164836124Y-89390570D01*
X165361571Y-89391029D01*
X165847196Y-89190373D01*
X166219067Y-88819150D01*
X166363299Y-88471798D01*
X166480723Y-88755283D01*
X166715021Y-88815374D01*
X167460395Y-88070000D01*
X167460395Y-88429210D01*
X166894626Y-88994979D01*
X166954717Y-89229277D01*
X167450517Y-89403279D01*
X167975164Y-89374301D01*
X168325283Y-89229277D01*
X168385374Y-88994979D01*
X168385374Y-89384176D01*
X168224717Y-89450723D01*
X168164626Y-89685021D01*
X168910000Y-90430395D01*
X169655374Y-89685021D01*
X169655374Y-90044231D01*
X169089605Y-90610000D01*
X169834979Y-91355374D01*
X170069277Y-91295283D01*
X170177100Y-90988052D01*
X170329627Y-91357196D01*
X170700850Y-91729067D01*
X171186124Y-91930570D01*
X171711571Y-91931029D01*
X172197196Y-91730373D01*
X172569067Y-91359150D01*
X172770570Y-90873876D01*
X172771029Y-90348429D01*
X172771029Y-95018344D01*
X172711485Y-95042948D01*
X172075182Y-95678141D01*
X171730393Y-96508486D01*
X171729609Y-97407570D01*
X172072948Y-98238515D01*
X172708141Y-98874818D01*
X173538486Y-99219607D01*
X174437570Y-99220391D01*
X175268515Y-98877052D01*
X175904818Y-98241859D01*
X176249607Y-97411514D01*
X176250391Y-96512430D01*
X176250391Y-114292430D01*
X175907052Y-113461485D01*
X175271859Y-112825182D01*
X174441514Y-112480393D01*
X173542430Y-112479609D01*
X173480000Y-112505404D01*
X173480000Y-106957591D01*
X173839067Y-106599150D01*
X174040570Y-106113876D01*
X174041029Y-105588429D01*
X173840373Y-105102804D01*
X173469150Y-104730933D01*
X172983876Y-104529430D01*
X172458429Y-104528971D01*
X171972804Y-104729627D01*
X171600933Y-105100850D01*
X171456700Y-105448201D01*
X171339277Y-105164717D01*
X171104979Y-105104626D01*
X170925374Y-105284231D01*
X170925374Y-104925021D01*
X170865283Y-104690723D01*
X170369483Y-104516721D01*
X169844836Y-104545699D01*
X169655374Y-104624176D01*
X169655374Y-91534979D01*
X168910000Y-90789605D01*
X168730395Y-90969210D01*
X168730395Y-90610000D01*
X167985021Y-89864626D01*
X167750723Y-89924717D01*
X167642899Y-90231947D01*
X167490373Y-89862804D01*
X167119150Y-89490933D01*
X166633876Y-89289430D01*
X166108429Y-89288971D01*
X165622804Y-89489627D01*
X165250933Y-89860850D01*
X165099877Y-90224632D01*
X164950373Y-89862804D01*
X164579150Y-89490933D01*
X164093876Y-89289430D01*
X163568429Y-89288971D01*
X163082804Y-89489627D01*
X162710933Y-89860850D01*
X162509430Y-90346124D01*
X162508971Y-90871571D01*
X162709627Y-91357196D01*
X163080850Y-91729067D01*
X163566124Y-91930570D01*
X164091571Y-91931029D01*
X164577196Y-91730373D01*
X164949067Y-91359150D01*
X165100122Y-90995367D01*
X165249627Y-91357196D01*
X165620850Y-91729067D01*
X166106124Y-91930570D01*
X166631571Y-91931029D01*
X167117196Y-91730373D01*
X167489067Y-91359150D01*
X167633299Y-91011798D01*
X167750723Y-91295283D01*
X167985021Y-91355374D01*
X168730395Y-90610000D01*
X168730395Y-90969210D01*
X168164626Y-91534979D01*
X168224717Y-91769277D01*
X168720517Y-91943279D01*
X169245164Y-91914301D01*
X169595283Y-91769277D01*
X169655374Y-91534979D01*
X169655374Y-104624176D01*
X169494717Y-104690723D01*
X169434626Y-104925021D01*
X170180000Y-105670395D01*
X170925374Y-104925021D01*
X170925374Y-105284231D01*
X170359605Y-105850000D01*
X171104979Y-106595374D01*
X171339277Y-106535283D01*
X171447100Y-106228052D01*
X171599627Y-106597196D01*
X171960000Y-106958198D01*
X171960000Y-107171629D01*
X171713876Y-107069430D01*
X171188429Y-107068971D01*
X170925374Y-107177663D01*
X170925374Y-106774979D01*
X170180000Y-106029605D01*
X170000395Y-106209210D01*
X170000395Y-105850000D01*
X169255021Y-105104626D01*
X169020723Y-105164717D01*
X168919154Y-105454126D01*
X168799277Y-105164717D01*
X168564979Y-105104626D01*
X168385374Y-105284231D01*
X168385374Y-104925021D01*
X168325283Y-104690723D01*
X167829483Y-104516721D01*
X167304836Y-104545699D01*
X166954717Y-104690723D01*
X166894626Y-104925021D01*
X167640000Y-105670395D01*
X168385374Y-104925021D01*
X168385374Y-105284231D01*
X167819605Y-105850000D01*
X168564979Y-106595374D01*
X168799277Y-106535283D01*
X168900845Y-106245873D01*
X169020723Y-106535283D01*
X169255021Y-106595374D01*
X170000395Y-105850000D01*
X170000395Y-106209210D01*
X169434626Y-106774979D01*
X169494717Y-107009277D01*
X169990517Y-107183279D01*
X170515164Y-107154301D01*
X170865283Y-107009277D01*
X170925374Y-106774979D01*
X170925374Y-107177663D01*
X170702804Y-107269627D01*
X170330933Y-107640850D01*
X170186700Y-107988201D01*
X170069277Y-107704717D01*
X169834979Y-107644626D01*
X169655374Y-107824231D01*
X169655374Y-107465021D01*
X169595283Y-107230723D01*
X169099483Y-107056721D01*
X168574836Y-107085699D01*
X168385374Y-107164176D01*
X168385374Y-106774979D01*
X167640000Y-106029605D01*
X167460395Y-106209210D01*
X167460395Y-105850000D01*
X166715021Y-105104626D01*
X166480723Y-105164717D01*
X166372899Y-105471947D01*
X166220373Y-105102804D01*
X165849150Y-104730933D01*
X165363876Y-104529430D01*
X164838429Y-104528971D01*
X164820391Y-104536424D01*
X164820391Y-96512430D01*
X164477052Y-95681485D01*
X163841859Y-95045182D01*
X163011514Y-94700393D01*
X162112430Y-94699609D01*
X161281485Y-95042948D01*
X160645182Y-95678141D01*
X160300393Y-96508486D01*
X160299609Y-97407570D01*
X160642948Y-98238515D01*
X161278141Y-98874818D01*
X162108486Y-99219607D01*
X163007570Y-99220391D01*
X163838515Y-98877052D01*
X164474818Y-98241859D01*
X164819607Y-97411514D01*
X164820391Y-96512430D01*
X164820391Y-104536424D01*
X164352804Y-104729627D01*
X163980933Y-105100850D01*
X163779430Y-105586124D01*
X163778971Y-106111571D01*
X163979627Y-106597196D01*
X164350850Y-106969067D01*
X164836124Y-107170570D01*
X165361571Y-107171029D01*
X165847196Y-106970373D01*
X166219067Y-106599150D01*
X166363299Y-106251798D01*
X166480723Y-106535283D01*
X166715021Y-106595374D01*
X167460395Y-105850000D01*
X167460395Y-106209210D01*
X166894626Y-106774979D01*
X166954717Y-107009277D01*
X167450517Y-107183279D01*
X167975164Y-107154301D01*
X168325283Y-107009277D01*
X168385374Y-106774979D01*
X168385374Y-107164176D01*
X168224717Y-107230723D01*
X168164626Y-107465021D01*
X168910000Y-108210395D01*
X169655374Y-107465021D01*
X169655374Y-107824231D01*
X169089605Y-108390000D01*
X169103747Y-108404142D01*
X168924142Y-108583747D01*
X168910000Y-108569605D01*
X168730395Y-108749210D01*
X168730395Y-108390000D01*
X167985021Y-107644626D01*
X167750723Y-107704717D01*
X167642899Y-108011947D01*
X167490373Y-107642804D01*
X167119150Y-107270933D01*
X166633876Y-107069430D01*
X166108429Y-107068971D01*
X165622804Y-107269627D01*
X165250933Y-107640850D01*
X165099877Y-108004632D01*
X164950373Y-107642804D01*
X164579150Y-107270933D01*
X164093876Y-107069430D01*
X163568429Y-107068971D01*
X163082804Y-107269627D01*
X162710933Y-107640850D01*
X162509430Y-108126124D01*
X162508971Y-108651571D01*
X162709627Y-109137196D01*
X163080850Y-109509067D01*
X163566124Y-109710570D01*
X164091571Y-109711029D01*
X164577196Y-109510373D01*
X164949067Y-109139150D01*
X165100122Y-108775367D01*
X165249627Y-109137196D01*
X165620850Y-109509067D01*
X166106124Y-109710570D01*
X166631571Y-109711029D01*
X167117196Y-109510373D01*
X167489067Y-109139150D01*
X167633299Y-108791798D01*
X167750723Y-109075283D01*
X167985021Y-109135374D01*
X168730395Y-108390000D01*
X168730395Y-108749210D01*
X168164626Y-109314979D01*
X168224717Y-109549277D01*
X168720517Y-109723279D01*
X169060708Y-109704489D01*
X164718752Y-114046445D01*
X164477052Y-113461485D01*
X163841859Y-112825182D01*
X163011514Y-112480393D01*
X162112430Y-112479609D01*
X161281485Y-112822948D01*
X160645182Y-113458141D01*
X160300393Y-114288486D01*
X160299609Y-115187570D01*
X160642948Y-116018515D01*
X161278141Y-116654818D01*
X162108486Y-116999607D01*
X163007570Y-117000391D01*
X163607662Y-116752438D01*
X163607662Y-126614188D01*
X163269726Y-126952123D01*
X162893489Y-126700729D01*
X162320000Y-126586655D01*
X161746511Y-126700729D01*
X161260330Y-127025585D01*
X161249784Y-127041367D01*
X161244063Y-127011877D01*
X161104273Y-126799073D01*
X160893240Y-126656623D01*
X160643600Y-126606560D01*
X159740391Y-126606560D01*
X159740391Y-114292430D01*
X159740391Y-96512430D01*
X159397052Y-95681485D01*
X158761859Y-95045182D01*
X157931514Y-94700393D01*
X157531029Y-94700043D01*
X157531029Y-87808429D01*
X157330373Y-87322804D01*
X156959150Y-86950933D01*
X156473876Y-86749430D01*
X155948429Y-86748971D01*
X155462804Y-86949627D01*
X155090933Y-87320850D01*
X154946700Y-87668201D01*
X154829277Y-87384717D01*
X154594979Y-87324626D01*
X154415374Y-87504231D01*
X154415374Y-87145021D01*
X154355283Y-86910723D01*
X153859483Y-86736721D01*
X153334836Y-86765699D01*
X152984717Y-86910723D01*
X152924626Y-87145021D01*
X153670000Y-87890395D01*
X154415374Y-87145021D01*
X154415374Y-87504231D01*
X153849605Y-88070000D01*
X154594979Y-88815374D01*
X154829277Y-88755283D01*
X154937100Y-88448052D01*
X155089627Y-88817196D01*
X155460850Y-89189067D01*
X155946124Y-89390570D01*
X156471571Y-89391029D01*
X156957196Y-89190373D01*
X157329067Y-88819150D01*
X157530570Y-88333876D01*
X157531029Y-87808429D01*
X157531029Y-94700043D01*
X157032430Y-94699609D01*
X156261029Y-95018344D01*
X156261029Y-90348429D01*
X156060373Y-89862804D01*
X155689150Y-89490933D01*
X155203876Y-89289430D01*
X154678429Y-89288971D01*
X154415374Y-89397663D01*
X154415374Y-88994979D01*
X153670000Y-88249605D01*
X153490395Y-88429210D01*
X153490395Y-88070000D01*
X152745021Y-87324626D01*
X152510723Y-87384717D01*
X152409154Y-87674126D01*
X152289277Y-87384717D01*
X152054979Y-87324626D01*
X151875374Y-87504231D01*
X151875374Y-87145021D01*
X151815283Y-86910723D01*
X151319483Y-86736721D01*
X150794836Y-86765699D01*
X150444717Y-86910723D01*
X150384626Y-87145021D01*
X151130000Y-87890395D01*
X151875374Y-87145021D01*
X151875374Y-87504231D01*
X151309605Y-88070000D01*
X152054979Y-88815374D01*
X152289277Y-88755283D01*
X152390845Y-88465873D01*
X152510723Y-88755283D01*
X152745021Y-88815374D01*
X153490395Y-88070000D01*
X153490395Y-88429210D01*
X152924626Y-88994979D01*
X152984717Y-89229277D01*
X153480517Y-89403279D01*
X154005164Y-89374301D01*
X154355283Y-89229277D01*
X154415374Y-88994979D01*
X154415374Y-89397663D01*
X154192804Y-89489627D01*
X153820933Y-89860850D01*
X153676700Y-90208201D01*
X153559277Y-89924717D01*
X153324979Y-89864626D01*
X153145374Y-90044231D01*
X153145374Y-89685021D01*
X153085283Y-89450723D01*
X152589483Y-89276721D01*
X152064836Y-89305699D01*
X151875374Y-89384176D01*
X151875374Y-88994979D01*
X151130000Y-88249605D01*
X150950395Y-88429210D01*
X150950395Y-88070000D01*
X150205021Y-87324626D01*
X149970723Y-87384717D01*
X149862899Y-87691947D01*
X149710373Y-87322804D01*
X149339150Y-86950933D01*
X148853876Y-86749430D01*
X148328429Y-86748971D01*
X147842804Y-86949627D01*
X147470933Y-87320850D01*
X147269430Y-87806124D01*
X147268971Y-88331571D01*
X147469627Y-88817196D01*
X147840850Y-89189067D01*
X148326124Y-89390570D01*
X148851571Y-89391029D01*
X149337196Y-89190373D01*
X149709067Y-88819150D01*
X149853299Y-88471798D01*
X149970723Y-88755283D01*
X150205021Y-88815374D01*
X150950395Y-88070000D01*
X150950395Y-88429210D01*
X150384626Y-88994979D01*
X150444717Y-89229277D01*
X150940517Y-89403279D01*
X151465164Y-89374301D01*
X151815283Y-89229277D01*
X151875374Y-88994979D01*
X151875374Y-89384176D01*
X151714717Y-89450723D01*
X151654626Y-89685021D01*
X152400000Y-90430395D01*
X153145374Y-89685021D01*
X153145374Y-90044231D01*
X152579605Y-90610000D01*
X153324979Y-91355374D01*
X153559277Y-91295283D01*
X153667100Y-90988052D01*
X153819627Y-91357196D01*
X154190850Y-91729067D01*
X154676124Y-91930570D01*
X155201571Y-91931029D01*
X155687196Y-91730373D01*
X156059067Y-91359150D01*
X156260570Y-90873876D01*
X156261029Y-90348429D01*
X156261029Y-95018344D01*
X156201485Y-95042948D01*
X155565182Y-95678141D01*
X155220393Y-96508486D01*
X155219609Y-97407570D01*
X155562948Y-98238515D01*
X156198141Y-98874818D01*
X157028486Y-99219607D01*
X157927570Y-99220391D01*
X158758515Y-98877052D01*
X159394818Y-98241859D01*
X159739607Y-97411514D01*
X159740391Y-96512430D01*
X159740391Y-114292430D01*
X159397052Y-113461485D01*
X158761859Y-112825182D01*
X157931514Y-112480393D01*
X157032430Y-112479609D01*
X156970000Y-112505404D01*
X156970000Y-106957591D01*
X157329067Y-106599150D01*
X157530570Y-106113876D01*
X157531029Y-105588429D01*
X157330373Y-105102804D01*
X156959150Y-104730933D01*
X156473876Y-104529430D01*
X155948429Y-104528971D01*
X155462804Y-104729627D01*
X155090933Y-105100850D01*
X154946700Y-105448201D01*
X154829277Y-105164717D01*
X154594979Y-105104626D01*
X154415374Y-105284231D01*
X154415374Y-104925021D01*
X154355283Y-104690723D01*
X153859483Y-104516721D01*
X153334836Y-104545699D01*
X153145374Y-104624176D01*
X153145374Y-91534979D01*
X152400000Y-90789605D01*
X152220395Y-90969210D01*
X152220395Y-90610000D01*
X151475021Y-89864626D01*
X151240723Y-89924717D01*
X151132899Y-90231947D01*
X150980373Y-89862804D01*
X150609150Y-89490933D01*
X150123876Y-89289430D01*
X149598429Y-89288971D01*
X149112804Y-89489627D01*
X148740933Y-89860850D01*
X148589877Y-90224632D01*
X148440373Y-89862804D01*
X148069150Y-89490933D01*
X147583876Y-89289430D01*
X147058429Y-89288971D01*
X146572804Y-89489627D01*
X146200933Y-89860850D01*
X145999430Y-90346124D01*
X145998971Y-90871571D01*
X146199627Y-91357196D01*
X146570850Y-91729067D01*
X147056124Y-91930570D01*
X147581571Y-91931029D01*
X148067196Y-91730373D01*
X148439067Y-91359150D01*
X148590122Y-90995367D01*
X148739627Y-91357196D01*
X149110850Y-91729067D01*
X149596124Y-91930570D01*
X150121571Y-91931029D01*
X150607196Y-91730373D01*
X150979067Y-91359150D01*
X151123299Y-91011798D01*
X151240723Y-91295283D01*
X151475021Y-91355374D01*
X152220395Y-90610000D01*
X152220395Y-90969210D01*
X151654626Y-91534979D01*
X151714717Y-91769277D01*
X152210517Y-91943279D01*
X152735164Y-91914301D01*
X153085283Y-91769277D01*
X153145374Y-91534979D01*
X153145374Y-104624176D01*
X152984717Y-104690723D01*
X152924626Y-104925021D01*
X153670000Y-105670395D01*
X154415374Y-104925021D01*
X154415374Y-105284231D01*
X153849605Y-105850000D01*
X154594979Y-106595374D01*
X154829277Y-106535283D01*
X154937100Y-106228052D01*
X155089627Y-106597196D01*
X155450000Y-106958198D01*
X155450000Y-107171629D01*
X155203876Y-107069430D01*
X154678429Y-107068971D01*
X154415374Y-107177663D01*
X154415374Y-106774979D01*
X153670000Y-106029605D01*
X153490395Y-106209210D01*
X153490395Y-105850000D01*
X152745021Y-105104626D01*
X152510723Y-105164717D01*
X152409154Y-105454126D01*
X152289277Y-105164717D01*
X152054979Y-105104626D01*
X151875374Y-105284231D01*
X151875374Y-104925021D01*
X151815283Y-104690723D01*
X151319483Y-104516721D01*
X150794836Y-104545699D01*
X150444717Y-104690723D01*
X150384626Y-104925021D01*
X151130000Y-105670395D01*
X151875374Y-104925021D01*
X151875374Y-105284231D01*
X151309605Y-105850000D01*
X152054979Y-106595374D01*
X152289277Y-106535283D01*
X152390845Y-106245873D01*
X152510723Y-106535283D01*
X152745021Y-106595374D01*
X153490395Y-105850000D01*
X153490395Y-106209210D01*
X152924626Y-106774979D01*
X152984717Y-107009277D01*
X153480517Y-107183279D01*
X154005164Y-107154301D01*
X154355283Y-107009277D01*
X154415374Y-106774979D01*
X154415374Y-107177663D01*
X154192804Y-107269627D01*
X153820933Y-107640850D01*
X153676700Y-107988201D01*
X153559277Y-107704717D01*
X153324979Y-107644626D01*
X153145374Y-107824231D01*
X153145374Y-107465021D01*
X153085283Y-107230723D01*
X152589483Y-107056721D01*
X152064836Y-107085699D01*
X151875374Y-107164176D01*
X151875374Y-106774979D01*
X151130000Y-106029605D01*
X150950395Y-106209210D01*
X150950395Y-105850000D01*
X150205021Y-105104626D01*
X149970723Y-105164717D01*
X149862899Y-105471947D01*
X149710373Y-105102804D01*
X149339150Y-104730933D01*
X148853876Y-104529430D01*
X148328429Y-104528971D01*
X148310391Y-104536424D01*
X148310391Y-96512430D01*
X147967052Y-95681485D01*
X147331859Y-95045182D01*
X146501514Y-94700393D01*
X145602430Y-94699609D01*
X144771485Y-95042948D01*
X144135182Y-95678141D01*
X143790393Y-96508486D01*
X143789609Y-97407570D01*
X144132948Y-98238515D01*
X144768141Y-98874818D01*
X145598486Y-99219607D01*
X146497570Y-99220391D01*
X147328515Y-98877052D01*
X147964818Y-98241859D01*
X148309607Y-97411514D01*
X148310391Y-96512430D01*
X148310391Y-104536424D01*
X147842804Y-104729627D01*
X147470933Y-105100850D01*
X147269430Y-105586124D01*
X147268971Y-106111571D01*
X147469627Y-106597196D01*
X147840850Y-106969067D01*
X148326124Y-107170570D01*
X148851571Y-107171029D01*
X149337196Y-106970373D01*
X149709067Y-106599150D01*
X149853299Y-106251798D01*
X149970723Y-106535283D01*
X150205021Y-106595374D01*
X150950395Y-105850000D01*
X150950395Y-106209210D01*
X150384626Y-106774979D01*
X150444717Y-107009277D01*
X150940517Y-107183279D01*
X151465164Y-107154301D01*
X151815283Y-107009277D01*
X151875374Y-106774979D01*
X151875374Y-107164176D01*
X151714717Y-107230723D01*
X151654626Y-107465021D01*
X152400000Y-108210395D01*
X153145374Y-107465021D01*
X153145374Y-107824231D01*
X152579605Y-108390000D01*
X152593747Y-108404142D01*
X152414142Y-108583747D01*
X152400000Y-108569605D01*
X152220395Y-108749210D01*
X152220395Y-108390000D01*
X151475021Y-107644626D01*
X151240723Y-107704717D01*
X151132899Y-108011947D01*
X150980373Y-107642804D01*
X150609150Y-107270933D01*
X150123876Y-107069430D01*
X149598429Y-107068971D01*
X149112804Y-107269627D01*
X148740933Y-107640850D01*
X148589877Y-108004632D01*
X148440373Y-107642804D01*
X148069150Y-107270933D01*
X147583876Y-107069430D01*
X147058429Y-107068971D01*
X146572804Y-107269627D01*
X146200933Y-107640850D01*
X145999430Y-108126124D01*
X145998971Y-108651571D01*
X146199627Y-109137196D01*
X146570850Y-109509067D01*
X147056124Y-109710570D01*
X147581571Y-109711029D01*
X148067196Y-109510373D01*
X148439067Y-109139150D01*
X148590122Y-108775367D01*
X148739627Y-109137196D01*
X149110850Y-109509067D01*
X149596124Y-109710570D01*
X150121571Y-109711029D01*
X150607196Y-109510373D01*
X150979067Y-109139150D01*
X151123299Y-108791798D01*
X151240723Y-109075283D01*
X151475021Y-109135374D01*
X152220395Y-108390000D01*
X152220395Y-108749210D01*
X151654626Y-109314979D01*
X151714717Y-109549277D01*
X152210517Y-109723279D01*
X152550708Y-109704489D01*
X148208752Y-114046445D01*
X147967052Y-113461485D01*
X147331859Y-112825182D01*
X146501514Y-112480393D01*
X145602430Y-112479609D01*
X144771485Y-112822948D01*
X144135182Y-113458141D01*
X143790393Y-114288486D01*
X143789609Y-115187570D01*
X144132948Y-116018515D01*
X144768141Y-116654818D01*
X145598486Y-116999607D01*
X146497570Y-117000391D01*
X147328515Y-116657052D01*
X147748610Y-116237689D01*
X147748610Y-126671910D01*
X147320000Y-126586655D01*
X146746511Y-126700729D01*
X146260330Y-127025585D01*
X146249784Y-127041367D01*
X146244063Y-127011877D01*
X146104273Y-126799073D01*
X145893240Y-126656623D01*
X145643600Y-126606560D01*
X143916400Y-126606560D01*
X143674277Y-126653537D01*
X143461473Y-126793327D01*
X143319023Y-127004360D01*
X143268960Y-127254000D01*
X143268960Y-129286000D01*
X143315937Y-129528123D01*
X143455727Y-129740927D01*
X143666760Y-129883377D01*
X143916400Y-129933440D01*
X145643600Y-129933440D01*
X145885723Y-129886463D01*
X146098527Y-129746673D01*
X146240977Y-129535640D01*
X146248718Y-129497037D01*
X146260330Y-129514415D01*
X146746511Y-129839271D01*
X147320000Y-129953345D01*
X147748610Y-129868089D01*
X147748610Y-134671910D01*
X147320000Y-134586655D01*
X146746511Y-134700729D01*
X146260330Y-135025585D01*
X146249784Y-135041367D01*
X146244063Y-135011877D01*
X146104273Y-134799073D01*
X145893240Y-134656623D01*
X145643600Y-134606560D01*
X143916400Y-134606560D01*
X143674277Y-134653537D01*
X143461473Y-134793327D01*
X143319023Y-135004360D01*
X143268960Y-135254000D01*
X143268960Y-137286000D01*
X143315937Y-137528123D01*
X143455727Y-137740927D01*
X143666760Y-137883377D01*
X143916400Y-137933440D01*
X145643600Y-137933440D01*
X145885723Y-137886463D01*
X146098527Y-137746673D01*
X146240977Y-137535640D01*
X146248718Y-137497037D01*
X146260330Y-137514415D01*
X146746511Y-137839271D01*
X147320000Y-137953345D01*
X147893489Y-137839271D01*
X148379670Y-137514415D01*
X148590000Y-137199634D01*
X148800330Y-137514415D01*
X149286511Y-137839271D01*
X149860000Y-137953345D01*
X150433489Y-137839271D01*
X150919670Y-137514415D01*
X151126460Y-137204930D01*
X151497964Y-137620732D01*
X152025209Y-137874709D01*
X152040974Y-137877358D01*
X152273000Y-137756217D01*
X152273000Y-136397000D01*
X152253000Y-136397000D01*
X152253000Y-136143000D01*
X152273000Y-136143000D01*
X152273000Y-134783783D01*
X152040974Y-134662642D01*
X152025209Y-134665291D01*
X151808610Y-134769628D01*
X151808610Y-129770371D01*
X152025209Y-129874709D01*
X152040974Y-129877358D01*
X152273000Y-129756217D01*
X152273000Y-128397000D01*
X152253000Y-128397000D01*
X152253000Y-128143000D01*
X152273000Y-128143000D01*
X152273000Y-126783783D01*
X152040974Y-126662642D01*
X152025209Y-126665291D01*
X151808610Y-126769628D01*
X151808610Y-118600190D01*
X155220082Y-115188717D01*
X155562948Y-116018515D01*
X156198141Y-116654818D01*
X157028486Y-116999607D01*
X157927570Y-117000391D01*
X158758515Y-116657052D01*
X159394818Y-116021859D01*
X159739607Y-115191514D01*
X159740391Y-114292430D01*
X159740391Y-126606560D01*
X158916400Y-126606560D01*
X158674277Y-126653537D01*
X158461473Y-126793327D01*
X158319023Y-127004360D01*
X158268960Y-127254000D01*
X158268960Y-129286000D01*
X158315937Y-129528123D01*
X158455727Y-129740927D01*
X158666760Y-129883377D01*
X158916400Y-129933440D01*
X160643600Y-129933440D01*
X160885723Y-129886463D01*
X161098527Y-129746673D01*
X161240977Y-129535640D01*
X161248718Y-129497037D01*
X161260330Y-129514415D01*
X161746511Y-129839271D01*
X162320000Y-129953345D01*
X162748610Y-129868089D01*
X162748610Y-134671910D01*
X162320000Y-134586655D01*
X161746511Y-134700729D01*
X161260330Y-135025585D01*
X161249784Y-135041367D01*
X161244063Y-135011877D01*
X161104273Y-134799073D01*
X160893240Y-134656623D01*
X160643600Y-134606560D01*
X158916400Y-134606560D01*
X158674277Y-134653537D01*
X158461473Y-134793327D01*
X158319023Y-135004360D01*
X158268960Y-135254000D01*
X158268960Y-137286000D01*
X158315937Y-137528123D01*
X158455727Y-137740927D01*
X158666760Y-137883377D01*
X158916400Y-137933440D01*
X160643600Y-137933440D01*
X160885723Y-137886463D01*
X161098527Y-137746673D01*
X161240977Y-137535640D01*
X161248718Y-137497037D01*
X161260330Y-137514415D01*
X161746511Y-137839271D01*
X162320000Y-137953345D01*
X162893489Y-137839271D01*
X163379670Y-137514415D01*
X163590000Y-137199634D01*
X163800330Y-137514415D01*
X164286511Y-137839271D01*
X164860000Y-137953345D01*
X165433489Y-137839271D01*
X165919670Y-137514415D01*
X166126460Y-137204930D01*
X166497964Y-137620732D01*
X167025209Y-137874709D01*
X167040974Y-137877358D01*
X167273000Y-137756217D01*
X167273000Y-136397000D01*
X167253000Y-136397000D01*
X167253000Y-136143000D01*
X167273000Y-136143000D01*
X167273000Y-134783783D01*
X167040974Y-134662642D01*
X167025209Y-134665291D01*
X166808610Y-134769628D01*
X166808610Y-129770371D01*
X167025209Y-129874709D01*
X167040974Y-129877358D01*
X167273000Y-129756217D01*
X167273000Y-128397000D01*
X167253000Y-128397000D01*
X167253000Y-128143000D01*
X167273000Y-128143000D01*
X167273000Y-126783783D01*
X167040974Y-126662642D01*
X167025209Y-126665291D01*
X166808610Y-126769628D01*
X166808610Y-120110190D01*
X171730082Y-115188717D01*
X172072948Y-116018515D01*
X172708141Y-116654818D01*
X173538486Y-116999607D01*
X174437570Y-117000391D01*
X175268515Y-116657052D01*
X175904818Y-116021859D01*
X176249607Y-115191514D01*
X176250391Y-114292430D01*
X176250391Y-127040458D01*
X176249784Y-127041367D01*
X176244063Y-127011877D01*
X176104273Y-126799073D01*
X175893240Y-126656623D01*
X175643600Y-126606560D01*
X173916400Y-126606560D01*
X173674277Y-126653537D01*
X173461473Y-126793327D01*
X173319023Y-127004360D01*
X173268960Y-127254000D01*
X173268960Y-129286000D01*
X173315937Y-129528123D01*
X173455727Y-129740927D01*
X173666760Y-129883377D01*
X173916400Y-129933440D01*
X175643600Y-129933440D01*
X175885723Y-129886463D01*
X176098527Y-129746673D01*
X176240977Y-129535640D01*
X176248718Y-129497037D01*
X176260330Y-129514415D01*
X176746511Y-129839271D01*
X177320000Y-129953345D01*
X177748610Y-129868089D01*
X177748610Y-134671910D01*
X177320000Y-134586655D01*
X176746511Y-134700729D01*
X176260330Y-135025585D01*
X176249784Y-135041367D01*
X176244063Y-135011877D01*
X176104273Y-134799073D01*
X175893240Y-134656623D01*
X175643600Y-134606560D01*
X173916400Y-134606560D01*
X173674277Y-134653537D01*
X173461473Y-134793327D01*
X173319023Y-135004360D01*
X173268960Y-135254000D01*
X173268960Y-137286000D01*
X173315937Y-137528123D01*
X173455727Y-137740927D01*
X173666760Y-137883377D01*
X173916400Y-137933440D01*
X175643600Y-137933440D01*
X175885723Y-137886463D01*
X176098527Y-137746673D01*
X176240977Y-137535640D01*
X176248718Y-137497037D01*
X176260330Y-137514415D01*
X176746511Y-137839271D01*
X177320000Y-137953345D01*
X177893489Y-137839271D01*
X178379670Y-137514415D01*
X178590000Y-137199634D01*
X178800330Y-137514415D01*
X179286511Y-137839271D01*
X179860000Y-137953345D01*
X180433489Y-137839271D01*
X180919670Y-137514415D01*
X181126460Y-137204930D01*
X181497964Y-137620732D01*
X182025209Y-137874709D01*
X182040974Y-137877358D01*
X182273000Y-137756217D01*
X182273000Y-136397000D01*
X182253000Y-136397000D01*
X182253000Y-136143000D01*
X182273000Y-136143000D01*
X182273000Y-134783783D01*
X182040974Y-134662642D01*
X182025209Y-134665291D01*
X181808610Y-134769628D01*
X181808610Y-129770371D01*
X182025209Y-129874709D01*
X182040974Y-129877358D01*
X182273000Y-129756217D01*
X182273000Y-128397000D01*
X182253000Y-128397000D01*
X182253000Y-128143000D01*
X182273000Y-128143000D01*
X182273000Y-126783783D01*
X182040974Y-126662642D01*
X182025209Y-126665291D01*
X181808610Y-126769628D01*
X181808610Y-121620190D01*
X188240082Y-115188717D01*
X188582948Y-116018515D01*
X189218141Y-116654818D01*
X190048486Y-116999607D01*
X190947570Y-117000391D01*
X191778515Y-116657052D01*
X192414818Y-116021859D01*
X192759607Y-115191514D01*
X192760391Y-114292430D01*
X192760391Y-124659751D01*
X192748610Y-124718978D01*
X192748610Y-126671910D01*
X192320000Y-126586655D01*
X191746511Y-126700729D01*
X191260330Y-127025585D01*
X191249784Y-127041367D01*
X191244063Y-127011877D01*
X191104273Y-126799073D01*
X190893240Y-126656623D01*
X190643600Y-126606560D01*
X188916400Y-126606560D01*
X188674277Y-126653537D01*
X188461473Y-126793327D01*
X188319023Y-127004360D01*
X188268960Y-127254000D01*
X188268960Y-129286000D01*
X188315937Y-129528123D01*
X188455727Y-129740927D01*
X188666760Y-129883377D01*
X188916400Y-129933440D01*
X190643600Y-129933440D01*
X190885723Y-129886463D01*
X191098527Y-129746673D01*
X191240977Y-129535640D01*
X191248718Y-129497037D01*
X191260330Y-129514415D01*
X191746511Y-129839271D01*
X192320000Y-129953345D01*
X192748610Y-129868089D01*
X192748610Y-134671910D01*
X192320000Y-134586655D01*
X191746511Y-134700729D01*
X191260330Y-135025585D01*
X191249784Y-135041367D01*
X191244063Y-135011877D01*
X191104273Y-134799073D01*
X190893240Y-134656623D01*
X190643600Y-134606560D01*
X188916400Y-134606560D01*
X188674277Y-134653537D01*
X188461473Y-134793327D01*
X188319023Y-135004360D01*
X188268960Y-135254000D01*
X188268960Y-137286000D01*
X188315937Y-137528123D01*
X188455727Y-137740927D01*
X188666760Y-137883377D01*
X188916400Y-137933440D01*
X190643600Y-137933440D01*
X190885723Y-137886463D01*
X191098527Y-137746673D01*
X191240977Y-137535640D01*
X191248718Y-137497037D01*
X191260330Y-137514415D01*
X191746511Y-137839271D01*
X192320000Y-137953345D01*
X192893489Y-137839271D01*
X193379670Y-137514415D01*
X193590000Y-137199634D01*
X193800330Y-137514415D01*
X194286511Y-137839271D01*
X194860000Y-137953345D01*
X195433489Y-137839271D01*
X195919670Y-137514415D01*
X196126460Y-137204930D01*
X196497964Y-137620732D01*
X197025209Y-137874709D01*
X197040974Y-137877358D01*
X197273000Y-137756217D01*
X197273000Y-136397000D01*
X197253000Y-136397000D01*
X197253000Y-136143000D01*
X197273000Y-136143000D01*
X197273000Y-134783783D01*
X197040974Y-134662642D01*
X197025209Y-134665291D01*
X196808610Y-134769628D01*
X196808610Y-129770371D01*
X197025209Y-129874709D01*
X197040974Y-129877358D01*
X197273000Y-129756217D01*
X197273000Y-128397000D01*
X197253000Y-128397000D01*
X197253000Y-128143000D01*
X197273000Y-128143000D01*
X197273000Y-126783783D01*
X197040974Y-126662642D01*
X197025209Y-126665291D01*
X196808610Y-126769628D01*
X196808610Y-123130190D01*
X204750082Y-115188717D01*
X205092948Y-116018515D01*
X205728141Y-116654818D01*
X206558486Y-116999607D01*
X207457570Y-117000391D01*
X208288515Y-116657052D01*
X208924818Y-116021859D01*
X209269607Y-115191514D01*
X209270391Y-114292430D01*
X209270391Y-123775000D01*
X201295000Y-123775000D01*
X201032862Y-123827143D01*
X200810632Y-123975632D01*
X200662143Y-124197862D01*
X200610000Y-124460000D01*
X200610000Y-139650000D01*
X198885184Y-139650000D01*
X198885184Y-136631913D01*
X198885184Y-135908087D01*
X198885184Y-128631913D01*
X198885184Y-127908087D01*
X198691954Y-127355680D01*
X198302036Y-126919268D01*
X197774791Y-126665291D01*
X197759026Y-126662642D01*
X197527000Y-126783783D01*
X197527000Y-128143000D01*
X198740924Y-128143000D01*
X198885184Y-127908087D01*
X198885184Y-128631913D01*
X198740924Y-128397000D01*
X197527000Y-128397000D01*
X197527000Y-129756217D01*
X197759026Y-129877358D01*
X197774791Y-129874709D01*
X198302036Y-129620732D01*
X198691954Y-129184320D01*
X198885184Y-128631913D01*
X198885184Y-135908087D01*
X198691954Y-135355680D01*
X198302036Y-134919268D01*
X197774791Y-134665291D01*
X197759026Y-134662642D01*
X197527000Y-134783783D01*
X197527000Y-136143000D01*
X198740924Y-136143000D01*
X198885184Y-135908087D01*
X198885184Y-136631913D01*
X198740924Y-136397000D01*
X197527000Y-136397000D01*
X197527000Y-137756217D01*
X197759026Y-137877358D01*
X197774791Y-137874709D01*
X198302036Y-137620732D01*
X198691954Y-137184320D01*
X198885184Y-136631913D01*
X198885184Y-139650000D01*
X183885184Y-139650000D01*
X183885184Y-136631913D01*
X183885184Y-135908087D01*
X183885184Y-128631913D01*
X183885184Y-127908087D01*
X183691954Y-127355680D01*
X183302036Y-126919268D01*
X182774791Y-126665291D01*
X182759026Y-126662642D01*
X182527000Y-126783783D01*
X182527000Y-128143000D01*
X183740924Y-128143000D01*
X183885184Y-127908087D01*
X183885184Y-128631913D01*
X183740924Y-128397000D01*
X182527000Y-128397000D01*
X182527000Y-129756217D01*
X182759026Y-129877358D01*
X182774791Y-129874709D01*
X183302036Y-129620732D01*
X183691954Y-129184320D01*
X183885184Y-128631913D01*
X183885184Y-135908087D01*
X183691954Y-135355680D01*
X183302036Y-134919268D01*
X182774791Y-134665291D01*
X182759026Y-134662642D01*
X182527000Y-134783783D01*
X182527000Y-136143000D01*
X183740924Y-136143000D01*
X183885184Y-135908087D01*
X183885184Y-136631913D01*
X183740924Y-136397000D01*
X182527000Y-136397000D01*
X182527000Y-137756217D01*
X182759026Y-137877358D01*
X182774791Y-137874709D01*
X183302036Y-137620732D01*
X183691954Y-137184320D01*
X183885184Y-136631913D01*
X183885184Y-139650000D01*
X168885184Y-139650000D01*
X168885184Y-136631913D01*
X168885184Y-135908087D01*
X168885184Y-128631913D01*
X168885184Y-127908087D01*
X168691954Y-127355680D01*
X168302036Y-126919268D01*
X167774791Y-126665291D01*
X167759026Y-126662642D01*
X167527000Y-126783783D01*
X167527000Y-128143000D01*
X168740924Y-128143000D01*
X168885184Y-127908087D01*
X168885184Y-128631913D01*
X168740924Y-128397000D01*
X167527000Y-128397000D01*
X167527000Y-129756217D01*
X167759026Y-129877358D01*
X167774791Y-129874709D01*
X168302036Y-129620732D01*
X168691954Y-129184320D01*
X168885184Y-128631913D01*
X168885184Y-135908087D01*
X168691954Y-135355680D01*
X168302036Y-134919268D01*
X167774791Y-134665291D01*
X167759026Y-134662642D01*
X167527000Y-134783783D01*
X167527000Y-136143000D01*
X168740924Y-136143000D01*
X168885184Y-135908087D01*
X168885184Y-136631913D01*
X168740924Y-136397000D01*
X167527000Y-136397000D01*
X167527000Y-137756217D01*
X167759026Y-137877358D01*
X167774791Y-137874709D01*
X168302036Y-137620732D01*
X168691954Y-137184320D01*
X168885184Y-136631913D01*
X168885184Y-139650000D01*
X153885184Y-139650000D01*
X153885184Y-136631913D01*
X153885184Y-135908087D01*
X153885184Y-128631913D01*
X153885184Y-127908087D01*
X153691954Y-127355680D01*
X153302036Y-126919268D01*
X152774791Y-126665291D01*
X152759026Y-126662642D01*
X152527000Y-126783783D01*
X152527000Y-128143000D01*
X153740924Y-128143000D01*
X153885184Y-127908087D01*
X153885184Y-128631913D01*
X153740924Y-128397000D01*
X152527000Y-128397000D01*
X152527000Y-129756217D01*
X152759026Y-129877358D01*
X152774791Y-129874709D01*
X153302036Y-129620732D01*
X153691954Y-129184320D01*
X153885184Y-128631913D01*
X153885184Y-135908087D01*
X153691954Y-135355680D01*
X153302036Y-134919268D01*
X152774791Y-134665291D01*
X152759026Y-134662642D01*
X152527000Y-134783783D01*
X152527000Y-136143000D01*
X153740924Y-136143000D01*
X153885184Y-135908087D01*
X153885184Y-136631913D01*
X153740924Y-136397000D01*
X152527000Y-136397000D01*
X152527000Y-137756217D01*
X152759026Y-137877358D01*
X152774791Y-137874709D01*
X153302036Y-137620732D01*
X153691954Y-137184320D01*
X153885184Y-136631913D01*
X153885184Y-139650000D01*
X140385000Y-139650000D01*
X140385000Y-124510000D01*
X142875000Y-124510000D01*
X143137138Y-124457857D01*
X143359368Y-124309368D01*
X143507857Y-124087138D01*
X143560000Y-123825000D01*
X143560000Y-86410000D01*
X210770000Y-86410000D01*
X210770000Y-123775000D01*
M02*
