G04 #@! TF.FileFunction,Legend,Top*
%FSLAX46Y46*%
G04 Gerber Fmt 4.6, Leading zero omitted, Abs format (unit mm)*
G04 Created by KiCad (PCBNEW (2015-05-23 BZR 5679)-product) date Wednesday, May 27, 2015 'PMt' 12:22:29 PM*
%MOMM*%
G01*
G04 APERTURE LIST*
%ADD10C,0.100000*%
%ADD11C,0.300000*%
%ADD12C,0.150000*%
%ADD13C,0.127000*%
%ADD14C,0.076200*%
G04 APERTURE END LIST*
D10*
D11*
X143485715Y-125138571D02*
X143485715Y-123638571D01*
X144057143Y-123638571D01*
X144200001Y-123710000D01*
X144271429Y-123781429D01*
X144342858Y-123924286D01*
X144342858Y-124138571D01*
X144271429Y-124281429D01*
X144200001Y-124352857D01*
X144057143Y-124424286D01*
X143485715Y-124424286D01*
X144985715Y-125138571D02*
X144985715Y-124138571D01*
X144985715Y-123638571D02*
X144914286Y-123710000D01*
X144985715Y-123781429D01*
X145057143Y-123710000D01*
X144985715Y-123638571D01*
X144985715Y-123781429D01*
X145557144Y-125138571D02*
X146342858Y-124138571D01*
X145557144Y-124138571D02*
X146342858Y-125138571D01*
X147485715Y-125067143D02*
X147342858Y-125138571D01*
X147057144Y-125138571D01*
X146914287Y-125067143D01*
X146842858Y-124924286D01*
X146842858Y-124352857D01*
X146914287Y-124210000D01*
X147057144Y-124138571D01*
X147342858Y-124138571D01*
X147485715Y-124210000D01*
X147557144Y-124352857D01*
X147557144Y-124495714D01*
X146842858Y-124638571D01*
X148414287Y-125138571D02*
X148271429Y-125067143D01*
X148200001Y-124924286D01*
X148200001Y-123638571D01*
X148985715Y-125138571D02*
X148985715Y-123638571D01*
X149557143Y-123638571D01*
X149700001Y-123710000D01*
X149771429Y-123781429D01*
X149842858Y-123924286D01*
X149842858Y-124138571D01*
X149771429Y-124281429D01*
X149700001Y-124352857D01*
X149557143Y-124424286D01*
X148985715Y-124424286D01*
X151128572Y-124138571D02*
X151128572Y-125138571D01*
X150485715Y-124138571D02*
X150485715Y-124924286D01*
X150557143Y-125067143D01*
X150700001Y-125138571D01*
X150914286Y-125138571D01*
X151057143Y-125067143D01*
X151128572Y-124995714D01*
X151771429Y-125067143D02*
X151914286Y-125138571D01*
X152200001Y-125138571D01*
X152342858Y-125067143D01*
X152414286Y-124924286D01*
X152414286Y-124852857D01*
X152342858Y-124710000D01*
X152200001Y-124638571D01*
X151985715Y-124638571D01*
X151842858Y-124567143D01*
X151771429Y-124424286D01*
X151771429Y-124352857D01*
X151842858Y-124210000D01*
X151985715Y-124138571D01*
X152200001Y-124138571D01*
X152342858Y-124210000D01*
X153057144Y-125138571D02*
X153057144Y-123638571D01*
X153700001Y-125138571D02*
X153700001Y-124352857D01*
X153628572Y-124210000D01*
X153485715Y-124138571D01*
X153271430Y-124138571D01*
X153128572Y-124210000D01*
X153057144Y-124281429D01*
X154985715Y-125067143D02*
X154842858Y-125138571D01*
X154557144Y-125138571D01*
X154414287Y-125067143D01*
X154342858Y-124924286D01*
X154342858Y-124352857D01*
X154414287Y-124210000D01*
X154557144Y-124138571D01*
X154842858Y-124138571D01*
X154985715Y-124210000D01*
X155057144Y-124352857D01*
X155057144Y-124495714D01*
X154342858Y-124638571D01*
X155700001Y-125138571D02*
X155700001Y-124138571D01*
X155700001Y-124424286D02*
X155771429Y-124281429D01*
X155842858Y-124210000D01*
X155985715Y-124138571D01*
X156128572Y-124138571D01*
X157771429Y-124352857D02*
X158271429Y-124352857D01*
X158485715Y-125138571D02*
X157771429Y-125138571D01*
X157771429Y-123638571D01*
X158485715Y-123638571D01*
X158914286Y-124138571D02*
X159485715Y-124138571D01*
X159128572Y-123638571D02*
X159128572Y-124924286D01*
X159200000Y-125067143D01*
X159342858Y-125138571D01*
X159485715Y-125138571D01*
X159985715Y-125138571D02*
X159985715Y-123638571D01*
X160628572Y-125138571D02*
X160628572Y-124352857D01*
X160557143Y-124210000D01*
X160414286Y-124138571D01*
X160200001Y-124138571D01*
X160057143Y-124210000D01*
X159985715Y-124281429D01*
X161914286Y-125067143D02*
X161771429Y-125138571D01*
X161485715Y-125138571D01*
X161342858Y-125067143D01*
X161271429Y-124924286D01*
X161271429Y-124352857D01*
X161342858Y-124210000D01*
X161485715Y-124138571D01*
X161771429Y-124138571D01*
X161914286Y-124210000D01*
X161985715Y-124352857D01*
X161985715Y-124495714D01*
X161271429Y-124638571D01*
X162628572Y-125138571D02*
X162628572Y-124138571D01*
X162628572Y-124424286D02*
X162700000Y-124281429D01*
X162771429Y-124210000D01*
X162914286Y-124138571D01*
X163057143Y-124138571D01*
X163557143Y-124138571D02*
X163557143Y-125138571D01*
X163557143Y-124281429D02*
X163628571Y-124210000D01*
X163771429Y-124138571D01*
X163985714Y-124138571D01*
X164128571Y-124210000D01*
X164200000Y-124352857D01*
X164200000Y-125138571D01*
X165485714Y-125067143D02*
X165342857Y-125138571D01*
X165057143Y-125138571D01*
X164914286Y-125067143D01*
X164842857Y-124924286D01*
X164842857Y-124352857D01*
X164914286Y-124210000D01*
X165057143Y-124138571D01*
X165342857Y-124138571D01*
X165485714Y-124210000D01*
X165557143Y-124352857D01*
X165557143Y-124495714D01*
X164842857Y-124638571D01*
X165985714Y-124138571D02*
X166557143Y-124138571D01*
X166200000Y-123638571D02*
X166200000Y-124924286D01*
X166271428Y-125067143D01*
X166414286Y-125138571D01*
X166557143Y-125138571D01*
X168200000Y-124352857D02*
X168700000Y-124352857D01*
X168914286Y-125138571D02*
X168200000Y-125138571D01*
X168200000Y-123638571D01*
X168914286Y-123638571D01*
X169414286Y-125138571D02*
X170200000Y-124138571D01*
X169414286Y-124138571D02*
X170200000Y-125138571D01*
X170557143Y-124138571D02*
X171128572Y-124138571D01*
X170771429Y-123638571D02*
X170771429Y-124924286D01*
X170842857Y-125067143D01*
X170985715Y-125138571D01*
X171128572Y-125138571D01*
X172200000Y-125067143D02*
X172057143Y-125138571D01*
X171771429Y-125138571D01*
X171628572Y-125067143D01*
X171557143Y-124924286D01*
X171557143Y-124352857D01*
X171628572Y-124210000D01*
X171771429Y-124138571D01*
X172057143Y-124138571D01*
X172200000Y-124210000D01*
X172271429Y-124352857D01*
X172271429Y-124495714D01*
X171557143Y-124638571D01*
X172914286Y-124138571D02*
X172914286Y-125138571D01*
X172914286Y-124281429D02*
X172985714Y-124210000D01*
X173128572Y-124138571D01*
X173342857Y-124138571D01*
X173485714Y-124210000D01*
X173557143Y-124352857D01*
X173557143Y-125138571D01*
X174914286Y-125138571D02*
X174914286Y-123638571D01*
X174914286Y-125067143D02*
X174771429Y-125138571D01*
X174485715Y-125138571D01*
X174342857Y-125067143D01*
X174271429Y-124995714D01*
X174200000Y-124852857D01*
X174200000Y-124424286D01*
X174271429Y-124281429D01*
X174342857Y-124210000D01*
X174485715Y-124138571D01*
X174771429Y-124138571D01*
X174914286Y-124210000D01*
X176200000Y-125067143D02*
X176057143Y-125138571D01*
X175771429Y-125138571D01*
X175628572Y-125067143D01*
X175557143Y-124924286D01*
X175557143Y-124352857D01*
X175628572Y-124210000D01*
X175771429Y-124138571D01*
X176057143Y-124138571D01*
X176200000Y-124210000D01*
X176271429Y-124352857D01*
X176271429Y-124495714D01*
X175557143Y-124638571D01*
X176914286Y-125138571D02*
X176914286Y-124138571D01*
X176914286Y-124424286D02*
X176985714Y-124281429D01*
X177057143Y-124210000D01*
X177200000Y-124138571D01*
X177342857Y-124138571D01*
X179842857Y-125138571D02*
X179342857Y-124424286D01*
X178985714Y-125138571D02*
X178985714Y-123638571D01*
X179557142Y-123638571D01*
X179700000Y-123710000D01*
X179771428Y-123781429D01*
X179842857Y-123924286D01*
X179842857Y-124138571D01*
X179771428Y-124281429D01*
X179700000Y-124352857D01*
X179557142Y-124424286D01*
X178985714Y-124424286D01*
X180485714Y-124352857D02*
X180985714Y-124352857D01*
X181200000Y-125138571D02*
X180485714Y-125138571D01*
X180485714Y-123638571D01*
X181200000Y-123638571D01*
X181628571Y-123638571D02*
X182128571Y-125138571D01*
X182628571Y-123638571D01*
X183128571Y-124352857D02*
X183628571Y-124352857D01*
X183842857Y-125138571D02*
X183128571Y-125138571D01*
X183128571Y-123638571D01*
X183842857Y-123638571D01*
X185342857Y-125138571D02*
X184842857Y-124424286D01*
X184485714Y-125138571D02*
X184485714Y-123638571D01*
X185057142Y-123638571D01*
X185200000Y-123710000D01*
X185271428Y-123781429D01*
X185342857Y-123924286D01*
X185342857Y-124138571D01*
X185271428Y-124281429D01*
X185200000Y-124352857D01*
X185057142Y-124424286D01*
X184485714Y-124424286D01*
X185914285Y-125067143D02*
X186128571Y-125138571D01*
X186485714Y-125138571D01*
X186628571Y-125067143D01*
X186700000Y-124995714D01*
X186771428Y-124852857D01*
X186771428Y-124710000D01*
X186700000Y-124567143D01*
X186628571Y-124495714D01*
X186485714Y-124424286D01*
X186200000Y-124352857D01*
X186057142Y-124281429D01*
X185985714Y-124210000D01*
X185914285Y-124067143D01*
X185914285Y-123924286D01*
X185985714Y-123781429D01*
X186057142Y-123710000D01*
X186200000Y-123638571D01*
X186557142Y-123638571D01*
X186771428Y-123710000D01*
X187414285Y-124352857D02*
X187914285Y-124352857D01*
X188128571Y-125138571D02*
X187414285Y-125138571D01*
X187414285Y-123638571D01*
X188128571Y-123638571D01*
X189914285Y-125138571D02*
X189914285Y-123638571D01*
X190485713Y-123638571D01*
X190628571Y-123710000D01*
X190699999Y-123781429D01*
X190771428Y-123924286D01*
X190771428Y-124138571D01*
X190699999Y-124281429D01*
X190628571Y-124352857D01*
X190485713Y-124424286D01*
X189914285Y-124424286D01*
X191699999Y-123638571D02*
X191985713Y-123638571D01*
X192128571Y-123710000D01*
X192271428Y-123852857D01*
X192342856Y-124138571D01*
X192342856Y-124638571D01*
X192271428Y-124924286D01*
X192128571Y-125067143D01*
X191985713Y-125138571D01*
X191699999Y-125138571D01*
X191557142Y-125067143D01*
X191414285Y-124924286D01*
X191342856Y-124638571D01*
X191342856Y-124138571D01*
X191414285Y-123852857D01*
X191557142Y-123710000D01*
X191699999Y-123638571D01*
X193700000Y-125138571D02*
X192985714Y-125138571D01*
X192985714Y-123638571D01*
X194128571Y-124710000D02*
X194842857Y-124710000D01*
X193985714Y-125138571D02*
X194485714Y-123638571D01*
X194985714Y-125138571D01*
X196342857Y-125138571D02*
X195842857Y-124424286D01*
X195485714Y-125138571D02*
X195485714Y-123638571D01*
X196057142Y-123638571D01*
X196200000Y-123710000D01*
X196271428Y-123781429D01*
X196342857Y-123924286D01*
X196342857Y-124138571D01*
X196271428Y-124281429D01*
X196200000Y-124352857D01*
X196057142Y-124424286D01*
X195485714Y-124424286D01*
X196985714Y-125138571D02*
X196985714Y-123638571D01*
X197485714Y-123638571D02*
X198342857Y-123638571D01*
X197914286Y-125138571D02*
X197914286Y-123638571D01*
X199128571Y-124424286D02*
X199128571Y-125138571D01*
X198628571Y-123638571D02*
X199128571Y-124424286D01*
X199628571Y-123638571D01*
D12*
X159037142Y-139517381D02*
X159037142Y-138517381D01*
X159275237Y-138517381D01*
X159418095Y-138565000D01*
X159513333Y-138660238D01*
X159560952Y-138755476D01*
X159608571Y-138945952D01*
X159608571Y-139088810D01*
X159560952Y-139279286D01*
X159513333Y-139374524D01*
X159418095Y-139469762D01*
X159275237Y-139517381D01*
X159037142Y-139517381D01*
X160037142Y-138993571D02*
X160370476Y-138993571D01*
X160513333Y-139517381D02*
X160037142Y-139517381D01*
X160037142Y-138517381D01*
X160513333Y-138517381D01*
X160894285Y-139469762D02*
X161037142Y-139517381D01*
X161275238Y-139517381D01*
X161370476Y-139469762D01*
X161418095Y-139422143D01*
X161465714Y-139326905D01*
X161465714Y-139231667D01*
X161418095Y-139136429D01*
X161370476Y-139088810D01*
X161275238Y-139041190D01*
X161084761Y-138993571D01*
X160989523Y-138945952D01*
X160941904Y-138898333D01*
X160894285Y-138803095D01*
X160894285Y-138707857D01*
X160941904Y-138612619D01*
X160989523Y-138565000D01*
X161084761Y-138517381D01*
X161322857Y-138517381D01*
X161465714Y-138565000D01*
X161894285Y-139517381D02*
X161894285Y-138517381D01*
X162894285Y-138565000D02*
X162799047Y-138517381D01*
X162656190Y-138517381D01*
X162513332Y-138565000D01*
X162418094Y-138660238D01*
X162370475Y-138755476D01*
X162322856Y-138945952D01*
X162322856Y-139088810D01*
X162370475Y-139279286D01*
X162418094Y-139374524D01*
X162513332Y-139469762D01*
X162656190Y-139517381D01*
X162751428Y-139517381D01*
X162894285Y-139469762D01*
X162941904Y-139422143D01*
X162941904Y-139088810D01*
X162751428Y-139088810D01*
X163370475Y-139517381D02*
X163370475Y-138517381D01*
X163941904Y-139517381D01*
X163941904Y-138517381D01*
X164418094Y-138993571D02*
X164751428Y-138993571D01*
X164894285Y-139517381D02*
X164418094Y-139517381D01*
X164418094Y-138517381D01*
X164894285Y-138517381D01*
X165322856Y-139517381D02*
X165322856Y-138517381D01*
X165560951Y-138517381D01*
X165703809Y-138565000D01*
X165799047Y-138660238D01*
X165846666Y-138755476D01*
X165894285Y-138945952D01*
X165894285Y-139088810D01*
X165846666Y-139279286D01*
X165799047Y-139374524D01*
X165703809Y-139469762D01*
X165560951Y-139517381D01*
X165322856Y-139517381D01*
X167418095Y-138993571D02*
X167560952Y-139041190D01*
X167608571Y-139088810D01*
X167656190Y-139184048D01*
X167656190Y-139326905D01*
X167608571Y-139422143D01*
X167560952Y-139469762D01*
X167465714Y-139517381D01*
X167084761Y-139517381D01*
X167084761Y-138517381D01*
X167418095Y-138517381D01*
X167513333Y-138565000D01*
X167560952Y-138612619D01*
X167608571Y-138707857D01*
X167608571Y-138803095D01*
X167560952Y-138898333D01*
X167513333Y-138945952D01*
X167418095Y-138993571D01*
X167084761Y-138993571D01*
X168275237Y-139041190D02*
X168275237Y-139517381D01*
X167941904Y-138517381D02*
X168275237Y-139041190D01*
X168608571Y-138517381D01*
X169703809Y-139517381D02*
X169703809Y-138517381D01*
X170037143Y-139231667D01*
X170370476Y-138517381D01*
X170370476Y-139517381D01*
X170799047Y-139231667D02*
X171275238Y-139231667D01*
X170703809Y-139517381D02*
X171037142Y-138517381D01*
X171370476Y-139517381D01*
X171560952Y-138517381D02*
X172132381Y-138517381D01*
X171846666Y-139517381D02*
X171846666Y-138517381D01*
X172322857Y-138517381D02*
X172894286Y-138517381D01*
X172608571Y-139517381D02*
X172608571Y-138517381D01*
X173227619Y-139517381D02*
X173227619Y-138517381D01*
X173227619Y-138993571D02*
X173799048Y-138993571D01*
X173799048Y-139517381D02*
X173799048Y-138517381D01*
X174275238Y-138993571D02*
X174608572Y-138993571D01*
X174751429Y-139517381D02*
X174275238Y-139517381D01*
X174275238Y-138517381D01*
X174751429Y-138517381D01*
X175084762Y-138517381D02*
X175322857Y-139517381D01*
X175513334Y-138803095D01*
X175703810Y-139517381D01*
X175941905Y-138517381D01*
X177037143Y-139469762D02*
X177180000Y-139517381D01*
X177418096Y-139517381D01*
X177513334Y-139469762D01*
X177560953Y-139422143D01*
X177608572Y-139326905D01*
X177608572Y-139231667D01*
X177560953Y-139136429D01*
X177513334Y-139088810D01*
X177418096Y-139041190D01*
X177227619Y-138993571D01*
X177132381Y-138945952D01*
X177084762Y-138898333D01*
X177037143Y-138803095D01*
X177037143Y-138707857D01*
X177084762Y-138612619D01*
X177132381Y-138565000D01*
X177227619Y-138517381D01*
X177465715Y-138517381D01*
X177608572Y-138565000D01*
X177894286Y-138517381D02*
X178465715Y-138517381D01*
X178180000Y-139517381D02*
X178180000Y-138517381D01*
X178989524Y-138517381D02*
X179180001Y-138517381D01*
X179275239Y-138565000D01*
X179370477Y-138660238D01*
X179418096Y-138850714D01*
X179418096Y-139184048D01*
X179370477Y-139374524D01*
X179275239Y-139469762D01*
X179180001Y-139517381D01*
X178989524Y-139517381D01*
X178894286Y-139469762D01*
X178799048Y-139374524D01*
X178751429Y-139184048D01*
X178751429Y-138850714D01*
X178799048Y-138660238D01*
X178894286Y-138565000D01*
X178989524Y-138517381D01*
X179846667Y-139517381D02*
X179846667Y-138517381D01*
X180418096Y-139517381D01*
X180418096Y-138517381D01*
X180894286Y-138993571D02*
X181227620Y-138993571D01*
X181370477Y-139517381D02*
X180894286Y-139517381D01*
X180894286Y-138517381D01*
X181370477Y-138517381D01*
X161050000Y-137540000D02*
X168670000Y-137540000D01*
X161050000Y-135000000D02*
X168670000Y-135000000D01*
X158230000Y-134720000D02*
X159780000Y-134720000D01*
X168670000Y-137540000D02*
X168670000Y-135000000D01*
X161050000Y-135000000D02*
X161050000Y-137540000D01*
X159780000Y-137820000D02*
X158230000Y-137820000D01*
X158230000Y-137820000D02*
X158230000Y-134720000D01*
X176050000Y-129540000D02*
X183670000Y-129540000D01*
X176050000Y-127000000D02*
X183670000Y-127000000D01*
X173230000Y-126720000D02*
X174780000Y-126720000D01*
X183670000Y-129540000D02*
X183670000Y-127000000D01*
X176050000Y-127000000D02*
X176050000Y-129540000D01*
X174780000Y-129820000D02*
X173230000Y-129820000D01*
X173230000Y-129820000D02*
X173230000Y-126720000D01*
X191050000Y-137540000D02*
X198670000Y-137540000D01*
X191050000Y-135000000D02*
X198670000Y-135000000D01*
X188230000Y-134720000D02*
X189780000Y-134720000D01*
X198670000Y-137540000D02*
X198670000Y-135000000D01*
X191050000Y-135000000D02*
X191050000Y-137540000D01*
X189780000Y-137820000D02*
X188230000Y-137820000D01*
X188230000Y-137820000D02*
X188230000Y-134720000D01*
X176050000Y-137540000D02*
X183670000Y-137540000D01*
X176050000Y-135000000D02*
X183670000Y-135000000D01*
X173230000Y-134720000D02*
X174780000Y-134720000D01*
X183670000Y-137540000D02*
X183670000Y-135000000D01*
X176050000Y-135000000D02*
X176050000Y-137540000D01*
X174780000Y-137820000D02*
X173230000Y-137820000D01*
X173230000Y-137820000D02*
X173230000Y-134720000D01*
X146050000Y-137540000D02*
X153670000Y-137540000D01*
X146050000Y-135000000D02*
X153670000Y-135000000D01*
X143230000Y-134720000D02*
X144780000Y-134720000D01*
X153670000Y-137540000D02*
X153670000Y-135000000D01*
X146050000Y-135000000D02*
X146050000Y-137540000D01*
X144780000Y-137820000D02*
X143230000Y-137820000D01*
X143230000Y-137820000D02*
X143230000Y-134720000D01*
X191050000Y-129540000D02*
X198670000Y-129540000D01*
X191050000Y-127000000D02*
X198670000Y-127000000D01*
X188230000Y-126720000D02*
X189780000Y-126720000D01*
X198670000Y-129540000D02*
X198670000Y-127000000D01*
X191050000Y-127000000D02*
X191050000Y-129540000D01*
X189780000Y-129820000D02*
X188230000Y-129820000D01*
X188230000Y-129820000D02*
X188230000Y-126720000D01*
X161050000Y-129540000D02*
X168670000Y-129540000D01*
X161050000Y-127000000D02*
X168670000Y-127000000D01*
X158230000Y-126720000D02*
X159780000Y-126720000D01*
X168670000Y-129540000D02*
X168670000Y-127000000D01*
X161050000Y-127000000D02*
X161050000Y-129540000D01*
X159780000Y-129820000D02*
X158230000Y-129820000D01*
X158230000Y-129820000D02*
X158230000Y-126720000D01*
D13*
X147701000Y-90932000D02*
X147701000Y-99314000D01*
X147701000Y-99314000D02*
X155829000Y-99314000D01*
X155829000Y-99314000D02*
X155829000Y-90932000D01*
X154051000Y-100838000D02*
X156845000Y-100838000D01*
X156845000Y-100838000D02*
X156845000Y-99060000D01*
X156845000Y-99060000D02*
X158115000Y-99060000D01*
X158115000Y-99060000D02*
X158115000Y-98552000D01*
X158115000Y-98552000D02*
X158623000Y-98552000D01*
X144907000Y-98552000D02*
X145415000Y-98552000D01*
X145415000Y-98552000D02*
X145415000Y-99060000D01*
X145415000Y-99060000D02*
X146685000Y-99060000D01*
X146685000Y-99060000D02*
X146685000Y-100838000D01*
X149479000Y-100838000D02*
X146685000Y-100838000D01*
X158623000Y-94742000D02*
X158115000Y-94742000D01*
X158115000Y-94742000D02*
X158115000Y-91694000D01*
X158115000Y-91694000D02*
X156845000Y-91694000D01*
X156845000Y-91694000D02*
X156845000Y-90932000D01*
X146685000Y-90932000D02*
X156845000Y-90932000D01*
X144907000Y-94742000D02*
X145415000Y-94742000D01*
X145415000Y-94742000D02*
X145415000Y-91694000D01*
X145415000Y-91694000D02*
X146685000Y-91694000D01*
X146685000Y-91694000D02*
X146685000Y-90932000D01*
X158623000Y-94742000D02*
X158623000Y-98552000D01*
X144907000Y-94742000D02*
X144907000Y-98552000D01*
X149479000Y-100838000D02*
X149479000Y-102870000D01*
X149479000Y-102870000D02*
X154051000Y-102870000D01*
X154051000Y-102870000D02*
X154051000Y-100838000D01*
X155321000Y-96266000D02*
X155575000Y-96774000D01*
X155321000Y-96266000D02*
X155067000Y-96774000D01*
X155321000Y-91440000D02*
X155321000Y-96266000D01*
X155067000Y-90932000D02*
X155575000Y-90932000D01*
X155575000Y-90932000D02*
X155321000Y-91440000D01*
X155321000Y-91440000D02*
X155067000Y-90932000D01*
X154305000Y-91440000D02*
X154305000Y-96266000D01*
X154051000Y-90932000D02*
X154559000Y-90932000D01*
X154559000Y-90932000D02*
X154305000Y-91440000D01*
X154305000Y-91440000D02*
X154051000Y-90932000D01*
X154305000Y-96266000D02*
X154559000Y-96774000D01*
X154305000Y-96266000D02*
X154051000Y-96774000D01*
X153289000Y-91440000D02*
X153289000Y-96266000D01*
X153035000Y-90932000D02*
X153543000Y-90932000D01*
X153543000Y-90932000D02*
X153289000Y-91440000D01*
X153289000Y-91440000D02*
X153035000Y-90932000D01*
X153289000Y-96266000D02*
X153543000Y-96774000D01*
X153289000Y-96266000D02*
X153035000Y-96774000D01*
X152273000Y-96266000D02*
X152527000Y-96774000D01*
X152273000Y-91440000D02*
X152273000Y-96266000D01*
X152273000Y-96266000D02*
X152019000Y-96774000D01*
X152019000Y-90932000D02*
X152527000Y-90932000D01*
X152527000Y-90932000D02*
X152273000Y-91440000D01*
X152273000Y-91440000D02*
X152019000Y-90932000D01*
X151257000Y-96266000D02*
X151257000Y-91440000D01*
X151257000Y-91440000D02*
X151003000Y-90932000D01*
X151003000Y-90932000D02*
X151511000Y-90932000D01*
X151511000Y-90932000D02*
X151257000Y-91440000D01*
X149225000Y-96266000D02*
X149479000Y-96774000D01*
X149225000Y-96266000D02*
X148971000Y-96774000D01*
X148209000Y-96266000D02*
X148463000Y-96774000D01*
X148209000Y-96266000D02*
X147955000Y-96774000D01*
X147955000Y-90932000D02*
X148463000Y-90932000D01*
X148463000Y-90932000D02*
X148209000Y-91440000D01*
X148209000Y-91440000D02*
X147955000Y-90932000D01*
X148971000Y-90932000D02*
X149479000Y-90932000D01*
X149225000Y-91440000D02*
X149479000Y-90932000D01*
X149225000Y-91440000D02*
X148971000Y-90932000D01*
X149987000Y-90932000D02*
X150495000Y-90932000D01*
X150241000Y-91440000D02*
X150495000Y-90932000D01*
X149987000Y-90932000D02*
X150241000Y-91440000D01*
X150241000Y-96266000D02*
X150495000Y-96774000D01*
X150241000Y-96266000D02*
X149987000Y-96774000D01*
X151257000Y-96266000D02*
X151511000Y-96774000D01*
X151257000Y-96266000D02*
X151003000Y-96774000D01*
X150241000Y-91440000D02*
X150241000Y-96266000D01*
X149225000Y-91440000D02*
X149225000Y-96266000D01*
X148209000Y-91440000D02*
X148209000Y-96266000D01*
X152019000Y-96774000D02*
X152019000Y-90932000D01*
X152527000Y-96774000D02*
X152527000Y-90932000D01*
X153543000Y-96774000D02*
X153543000Y-90932000D01*
X153035000Y-96774000D02*
X153035000Y-90932000D01*
X155067000Y-96774000D02*
X155067000Y-90932000D01*
X155575000Y-96774000D02*
X155575000Y-90932000D01*
X154559000Y-96774000D02*
X154559000Y-90932000D01*
X154051000Y-96774000D02*
X154051000Y-90932000D01*
X149987000Y-96774000D02*
X149987000Y-90932000D01*
X150495000Y-96774000D02*
X150495000Y-90932000D01*
X151511000Y-96774000D02*
X151511000Y-90932000D01*
X151003000Y-96774000D02*
X151003000Y-90932000D01*
X148971000Y-96774000D02*
X148971000Y-90932000D01*
X149479000Y-96774000D02*
X149479000Y-90932000D01*
X148463000Y-96774000D02*
X148463000Y-90932000D01*
X147955000Y-96774000D02*
X147955000Y-90932000D01*
X143825000Y-86930000D02*
X159705000Y-86930000D01*
X159705000Y-86930000D02*
X159705000Y-103570000D01*
X159705000Y-103570000D02*
X143825000Y-103570000D01*
X143825000Y-103570000D02*
X143825000Y-86930000D01*
X152019000Y-96774000D02*
G75*
G03X152273000Y-97028000I254000J0D01*
G01*
X152273000Y-97028000D02*
G75*
G03X152527000Y-96774000I0J254000D01*
G01*
X153289000Y-97028000D02*
G75*
G03X153543000Y-96774000I0J254000D01*
G01*
X153035000Y-96774000D02*
G75*
G03X153289000Y-97028000I254000J0D01*
G01*
X155067000Y-96774000D02*
G75*
G03X155321000Y-97028000I254000J0D01*
G01*
X155321000Y-97028000D02*
G75*
G03X155575000Y-96774000I0J254000D01*
G01*
X154305000Y-97028000D02*
G75*
G03X154559000Y-96774000I0J254000D01*
G01*
X154051000Y-96774000D02*
G75*
G03X154305000Y-97028000I254000J0D01*
G01*
X149987000Y-96774000D02*
G75*
G03X150241000Y-97028000I254000J0D01*
G01*
X150241000Y-97028000D02*
G75*
G03X150495000Y-96774000I0J254000D01*
G01*
X151257000Y-97028000D02*
G75*
G03X151511000Y-96774000I0J254000D01*
G01*
X151003000Y-96774000D02*
G75*
G03X151257000Y-97028000I254000J0D01*
G01*
X148971000Y-96774000D02*
G75*
G03X149225000Y-97028000I254000J0D01*
G01*
X149225000Y-97028000D02*
G75*
G03X149479000Y-96774000I0J254000D01*
G01*
X148209000Y-97028000D02*
G75*
G03X148463000Y-96774000I0J254000D01*
G01*
X147955000Y-96774000D02*
G75*
G03X148209000Y-97028000I254000J0D01*
G01*
D12*
X146050000Y-129540000D02*
X153670000Y-129540000D01*
X146050000Y-127000000D02*
X153670000Y-127000000D01*
X143230000Y-126720000D02*
X144780000Y-126720000D01*
X153670000Y-129540000D02*
X153670000Y-127000000D01*
X146050000Y-127000000D02*
X146050000Y-129540000D01*
X144780000Y-129820000D02*
X143230000Y-129820000D01*
X143230000Y-129820000D02*
X143230000Y-126720000D01*
D13*
X164211000Y-90932000D02*
X164211000Y-99314000D01*
X164211000Y-99314000D02*
X172339000Y-99314000D01*
X172339000Y-99314000D02*
X172339000Y-90932000D01*
X170561000Y-100838000D02*
X173355000Y-100838000D01*
X173355000Y-100838000D02*
X173355000Y-99060000D01*
X173355000Y-99060000D02*
X174625000Y-99060000D01*
X174625000Y-99060000D02*
X174625000Y-98552000D01*
X174625000Y-98552000D02*
X175133000Y-98552000D01*
X161417000Y-98552000D02*
X161925000Y-98552000D01*
X161925000Y-98552000D02*
X161925000Y-99060000D01*
X161925000Y-99060000D02*
X163195000Y-99060000D01*
X163195000Y-99060000D02*
X163195000Y-100838000D01*
X165989000Y-100838000D02*
X163195000Y-100838000D01*
X175133000Y-94742000D02*
X174625000Y-94742000D01*
X174625000Y-94742000D02*
X174625000Y-91694000D01*
X174625000Y-91694000D02*
X173355000Y-91694000D01*
X173355000Y-91694000D02*
X173355000Y-90932000D01*
X163195000Y-90932000D02*
X173355000Y-90932000D01*
X161417000Y-94742000D02*
X161925000Y-94742000D01*
X161925000Y-94742000D02*
X161925000Y-91694000D01*
X161925000Y-91694000D02*
X163195000Y-91694000D01*
X163195000Y-91694000D02*
X163195000Y-90932000D01*
X175133000Y-94742000D02*
X175133000Y-98552000D01*
X161417000Y-94742000D02*
X161417000Y-98552000D01*
X165989000Y-100838000D02*
X165989000Y-102870000D01*
X165989000Y-102870000D02*
X170561000Y-102870000D01*
X170561000Y-102870000D02*
X170561000Y-100838000D01*
X171831000Y-96266000D02*
X172085000Y-96774000D01*
X171831000Y-96266000D02*
X171577000Y-96774000D01*
X171831000Y-91440000D02*
X171831000Y-96266000D01*
X171577000Y-90932000D02*
X172085000Y-90932000D01*
X172085000Y-90932000D02*
X171831000Y-91440000D01*
X171831000Y-91440000D02*
X171577000Y-90932000D01*
X170815000Y-91440000D02*
X170815000Y-96266000D01*
X170561000Y-90932000D02*
X171069000Y-90932000D01*
X171069000Y-90932000D02*
X170815000Y-91440000D01*
X170815000Y-91440000D02*
X170561000Y-90932000D01*
X170815000Y-96266000D02*
X171069000Y-96774000D01*
X170815000Y-96266000D02*
X170561000Y-96774000D01*
X169799000Y-91440000D02*
X169799000Y-96266000D01*
X169545000Y-90932000D02*
X170053000Y-90932000D01*
X170053000Y-90932000D02*
X169799000Y-91440000D01*
X169799000Y-91440000D02*
X169545000Y-90932000D01*
X169799000Y-96266000D02*
X170053000Y-96774000D01*
X169799000Y-96266000D02*
X169545000Y-96774000D01*
X168783000Y-96266000D02*
X169037000Y-96774000D01*
X168783000Y-91440000D02*
X168783000Y-96266000D01*
X168783000Y-96266000D02*
X168529000Y-96774000D01*
X168529000Y-90932000D02*
X169037000Y-90932000D01*
X169037000Y-90932000D02*
X168783000Y-91440000D01*
X168783000Y-91440000D02*
X168529000Y-90932000D01*
X167767000Y-96266000D02*
X167767000Y-91440000D01*
X167767000Y-91440000D02*
X167513000Y-90932000D01*
X167513000Y-90932000D02*
X168021000Y-90932000D01*
X168021000Y-90932000D02*
X167767000Y-91440000D01*
X165735000Y-96266000D02*
X165989000Y-96774000D01*
X165735000Y-96266000D02*
X165481000Y-96774000D01*
X164719000Y-96266000D02*
X164973000Y-96774000D01*
X164719000Y-96266000D02*
X164465000Y-96774000D01*
X164465000Y-90932000D02*
X164973000Y-90932000D01*
X164973000Y-90932000D02*
X164719000Y-91440000D01*
X164719000Y-91440000D02*
X164465000Y-90932000D01*
X165481000Y-90932000D02*
X165989000Y-90932000D01*
X165735000Y-91440000D02*
X165989000Y-90932000D01*
X165735000Y-91440000D02*
X165481000Y-90932000D01*
X166497000Y-90932000D02*
X167005000Y-90932000D01*
X166751000Y-91440000D02*
X167005000Y-90932000D01*
X166497000Y-90932000D02*
X166751000Y-91440000D01*
X166751000Y-96266000D02*
X167005000Y-96774000D01*
X166751000Y-96266000D02*
X166497000Y-96774000D01*
X167767000Y-96266000D02*
X168021000Y-96774000D01*
X167767000Y-96266000D02*
X167513000Y-96774000D01*
X166751000Y-91440000D02*
X166751000Y-96266000D01*
X165735000Y-91440000D02*
X165735000Y-96266000D01*
X164719000Y-91440000D02*
X164719000Y-96266000D01*
X168529000Y-96774000D02*
X168529000Y-90932000D01*
X169037000Y-96774000D02*
X169037000Y-90932000D01*
X170053000Y-96774000D02*
X170053000Y-90932000D01*
X169545000Y-96774000D02*
X169545000Y-90932000D01*
X171577000Y-96774000D02*
X171577000Y-90932000D01*
X172085000Y-96774000D02*
X172085000Y-90932000D01*
X171069000Y-96774000D02*
X171069000Y-90932000D01*
X170561000Y-96774000D02*
X170561000Y-90932000D01*
X166497000Y-96774000D02*
X166497000Y-90932000D01*
X167005000Y-96774000D02*
X167005000Y-90932000D01*
X168021000Y-96774000D02*
X168021000Y-90932000D01*
X167513000Y-96774000D02*
X167513000Y-90932000D01*
X165481000Y-96774000D02*
X165481000Y-90932000D01*
X165989000Y-96774000D02*
X165989000Y-90932000D01*
X164973000Y-96774000D02*
X164973000Y-90932000D01*
X164465000Y-96774000D02*
X164465000Y-90932000D01*
X160335000Y-86930000D02*
X176215000Y-86930000D01*
X176215000Y-86930000D02*
X176215000Y-103570000D01*
X176215000Y-103570000D02*
X160335000Y-103570000D01*
X160335000Y-103570000D02*
X160335000Y-86930000D01*
X168529000Y-96774000D02*
G75*
G03X168783000Y-97028000I254000J0D01*
G01*
X168783000Y-97028000D02*
G75*
G03X169037000Y-96774000I0J254000D01*
G01*
X169799000Y-97028000D02*
G75*
G03X170053000Y-96774000I0J254000D01*
G01*
X169545000Y-96774000D02*
G75*
G03X169799000Y-97028000I254000J0D01*
G01*
X171577000Y-96774000D02*
G75*
G03X171831000Y-97028000I254000J0D01*
G01*
X171831000Y-97028000D02*
G75*
G03X172085000Y-96774000I0J254000D01*
G01*
X170815000Y-97028000D02*
G75*
G03X171069000Y-96774000I0J254000D01*
G01*
X170561000Y-96774000D02*
G75*
G03X170815000Y-97028000I254000J0D01*
G01*
X166497000Y-96774000D02*
G75*
G03X166751000Y-97028000I254000J0D01*
G01*
X166751000Y-97028000D02*
G75*
G03X167005000Y-96774000I0J254000D01*
G01*
X167767000Y-97028000D02*
G75*
G03X168021000Y-96774000I0J254000D01*
G01*
X167513000Y-96774000D02*
G75*
G03X167767000Y-97028000I254000J0D01*
G01*
X165481000Y-96774000D02*
G75*
G03X165735000Y-97028000I254000J0D01*
G01*
X165735000Y-97028000D02*
G75*
G03X165989000Y-96774000I0J254000D01*
G01*
X164719000Y-97028000D02*
G75*
G03X164973000Y-96774000I0J254000D01*
G01*
X164465000Y-96774000D02*
G75*
G03X164719000Y-97028000I254000J0D01*
G01*
X180721000Y-90932000D02*
X180721000Y-99314000D01*
X180721000Y-99314000D02*
X188849000Y-99314000D01*
X188849000Y-99314000D02*
X188849000Y-90932000D01*
X187071000Y-100838000D02*
X189865000Y-100838000D01*
X189865000Y-100838000D02*
X189865000Y-99060000D01*
X189865000Y-99060000D02*
X191135000Y-99060000D01*
X191135000Y-99060000D02*
X191135000Y-98552000D01*
X191135000Y-98552000D02*
X191643000Y-98552000D01*
X177927000Y-98552000D02*
X178435000Y-98552000D01*
X178435000Y-98552000D02*
X178435000Y-99060000D01*
X178435000Y-99060000D02*
X179705000Y-99060000D01*
X179705000Y-99060000D02*
X179705000Y-100838000D01*
X182499000Y-100838000D02*
X179705000Y-100838000D01*
X191643000Y-94742000D02*
X191135000Y-94742000D01*
X191135000Y-94742000D02*
X191135000Y-91694000D01*
X191135000Y-91694000D02*
X189865000Y-91694000D01*
X189865000Y-91694000D02*
X189865000Y-90932000D01*
X179705000Y-90932000D02*
X189865000Y-90932000D01*
X177927000Y-94742000D02*
X178435000Y-94742000D01*
X178435000Y-94742000D02*
X178435000Y-91694000D01*
X178435000Y-91694000D02*
X179705000Y-91694000D01*
X179705000Y-91694000D02*
X179705000Y-90932000D01*
X191643000Y-94742000D02*
X191643000Y-98552000D01*
X177927000Y-94742000D02*
X177927000Y-98552000D01*
X182499000Y-100838000D02*
X182499000Y-102870000D01*
X182499000Y-102870000D02*
X187071000Y-102870000D01*
X187071000Y-102870000D02*
X187071000Y-100838000D01*
X188341000Y-96266000D02*
X188595000Y-96774000D01*
X188341000Y-96266000D02*
X188087000Y-96774000D01*
X188341000Y-91440000D02*
X188341000Y-96266000D01*
X188087000Y-90932000D02*
X188595000Y-90932000D01*
X188595000Y-90932000D02*
X188341000Y-91440000D01*
X188341000Y-91440000D02*
X188087000Y-90932000D01*
X187325000Y-91440000D02*
X187325000Y-96266000D01*
X187071000Y-90932000D02*
X187579000Y-90932000D01*
X187579000Y-90932000D02*
X187325000Y-91440000D01*
X187325000Y-91440000D02*
X187071000Y-90932000D01*
X187325000Y-96266000D02*
X187579000Y-96774000D01*
X187325000Y-96266000D02*
X187071000Y-96774000D01*
X186309000Y-91440000D02*
X186309000Y-96266000D01*
X186055000Y-90932000D02*
X186563000Y-90932000D01*
X186563000Y-90932000D02*
X186309000Y-91440000D01*
X186309000Y-91440000D02*
X186055000Y-90932000D01*
X186309000Y-96266000D02*
X186563000Y-96774000D01*
X186309000Y-96266000D02*
X186055000Y-96774000D01*
X185293000Y-96266000D02*
X185547000Y-96774000D01*
X185293000Y-91440000D02*
X185293000Y-96266000D01*
X185293000Y-96266000D02*
X185039000Y-96774000D01*
X185039000Y-90932000D02*
X185547000Y-90932000D01*
X185547000Y-90932000D02*
X185293000Y-91440000D01*
X185293000Y-91440000D02*
X185039000Y-90932000D01*
X184277000Y-96266000D02*
X184277000Y-91440000D01*
X184277000Y-91440000D02*
X184023000Y-90932000D01*
X184023000Y-90932000D02*
X184531000Y-90932000D01*
X184531000Y-90932000D02*
X184277000Y-91440000D01*
X182245000Y-96266000D02*
X182499000Y-96774000D01*
X182245000Y-96266000D02*
X181991000Y-96774000D01*
X181229000Y-96266000D02*
X181483000Y-96774000D01*
X181229000Y-96266000D02*
X180975000Y-96774000D01*
X180975000Y-90932000D02*
X181483000Y-90932000D01*
X181483000Y-90932000D02*
X181229000Y-91440000D01*
X181229000Y-91440000D02*
X180975000Y-90932000D01*
X181991000Y-90932000D02*
X182499000Y-90932000D01*
X182245000Y-91440000D02*
X182499000Y-90932000D01*
X182245000Y-91440000D02*
X181991000Y-90932000D01*
X183007000Y-90932000D02*
X183515000Y-90932000D01*
X183261000Y-91440000D02*
X183515000Y-90932000D01*
X183007000Y-90932000D02*
X183261000Y-91440000D01*
X183261000Y-96266000D02*
X183515000Y-96774000D01*
X183261000Y-96266000D02*
X183007000Y-96774000D01*
X184277000Y-96266000D02*
X184531000Y-96774000D01*
X184277000Y-96266000D02*
X184023000Y-96774000D01*
X183261000Y-91440000D02*
X183261000Y-96266000D01*
X182245000Y-91440000D02*
X182245000Y-96266000D01*
X181229000Y-91440000D02*
X181229000Y-96266000D01*
X185039000Y-96774000D02*
X185039000Y-90932000D01*
X185547000Y-96774000D02*
X185547000Y-90932000D01*
X186563000Y-96774000D02*
X186563000Y-90932000D01*
X186055000Y-96774000D02*
X186055000Y-90932000D01*
X188087000Y-96774000D02*
X188087000Y-90932000D01*
X188595000Y-96774000D02*
X188595000Y-90932000D01*
X187579000Y-96774000D02*
X187579000Y-90932000D01*
X187071000Y-96774000D02*
X187071000Y-90932000D01*
X183007000Y-96774000D02*
X183007000Y-90932000D01*
X183515000Y-96774000D02*
X183515000Y-90932000D01*
X184531000Y-96774000D02*
X184531000Y-90932000D01*
X184023000Y-96774000D02*
X184023000Y-90932000D01*
X181991000Y-96774000D02*
X181991000Y-90932000D01*
X182499000Y-96774000D02*
X182499000Y-90932000D01*
X181483000Y-96774000D02*
X181483000Y-90932000D01*
X180975000Y-96774000D02*
X180975000Y-90932000D01*
X176845000Y-86930000D02*
X192725000Y-86930000D01*
X192725000Y-86930000D02*
X192725000Y-103570000D01*
X192725000Y-103570000D02*
X176845000Y-103570000D01*
X176845000Y-103570000D02*
X176845000Y-86930000D01*
X185039000Y-96774000D02*
G75*
G03X185293000Y-97028000I254000J0D01*
G01*
X185293000Y-97028000D02*
G75*
G03X185547000Y-96774000I0J254000D01*
G01*
X186309000Y-97028000D02*
G75*
G03X186563000Y-96774000I0J254000D01*
G01*
X186055000Y-96774000D02*
G75*
G03X186309000Y-97028000I254000J0D01*
G01*
X188087000Y-96774000D02*
G75*
G03X188341000Y-97028000I254000J0D01*
G01*
X188341000Y-97028000D02*
G75*
G03X188595000Y-96774000I0J254000D01*
G01*
X187325000Y-97028000D02*
G75*
G03X187579000Y-96774000I0J254000D01*
G01*
X187071000Y-96774000D02*
G75*
G03X187325000Y-97028000I254000J0D01*
G01*
X183007000Y-96774000D02*
G75*
G03X183261000Y-97028000I254000J0D01*
G01*
X183261000Y-97028000D02*
G75*
G03X183515000Y-96774000I0J254000D01*
G01*
X184277000Y-97028000D02*
G75*
G03X184531000Y-96774000I0J254000D01*
G01*
X184023000Y-96774000D02*
G75*
G03X184277000Y-97028000I254000J0D01*
G01*
X181991000Y-96774000D02*
G75*
G03X182245000Y-97028000I254000J0D01*
G01*
X182245000Y-97028000D02*
G75*
G03X182499000Y-96774000I0J254000D01*
G01*
X181229000Y-97028000D02*
G75*
G03X181483000Y-96774000I0J254000D01*
G01*
X180975000Y-96774000D02*
G75*
G03X181229000Y-97028000I254000J0D01*
G01*
X197231000Y-90932000D02*
X197231000Y-99314000D01*
X197231000Y-99314000D02*
X205359000Y-99314000D01*
X205359000Y-99314000D02*
X205359000Y-90932000D01*
X203581000Y-100838000D02*
X206375000Y-100838000D01*
X206375000Y-100838000D02*
X206375000Y-99060000D01*
X206375000Y-99060000D02*
X207645000Y-99060000D01*
X207645000Y-99060000D02*
X207645000Y-98552000D01*
X207645000Y-98552000D02*
X208153000Y-98552000D01*
X194437000Y-98552000D02*
X194945000Y-98552000D01*
X194945000Y-98552000D02*
X194945000Y-99060000D01*
X194945000Y-99060000D02*
X196215000Y-99060000D01*
X196215000Y-99060000D02*
X196215000Y-100838000D01*
X199009000Y-100838000D02*
X196215000Y-100838000D01*
X208153000Y-94742000D02*
X207645000Y-94742000D01*
X207645000Y-94742000D02*
X207645000Y-91694000D01*
X207645000Y-91694000D02*
X206375000Y-91694000D01*
X206375000Y-91694000D02*
X206375000Y-90932000D01*
X196215000Y-90932000D02*
X206375000Y-90932000D01*
X194437000Y-94742000D02*
X194945000Y-94742000D01*
X194945000Y-94742000D02*
X194945000Y-91694000D01*
X194945000Y-91694000D02*
X196215000Y-91694000D01*
X196215000Y-91694000D02*
X196215000Y-90932000D01*
X208153000Y-94742000D02*
X208153000Y-98552000D01*
X194437000Y-94742000D02*
X194437000Y-98552000D01*
X199009000Y-100838000D02*
X199009000Y-102870000D01*
X199009000Y-102870000D02*
X203581000Y-102870000D01*
X203581000Y-102870000D02*
X203581000Y-100838000D01*
X204851000Y-96266000D02*
X205105000Y-96774000D01*
X204851000Y-96266000D02*
X204597000Y-96774000D01*
X204851000Y-91440000D02*
X204851000Y-96266000D01*
X204597000Y-90932000D02*
X205105000Y-90932000D01*
X205105000Y-90932000D02*
X204851000Y-91440000D01*
X204851000Y-91440000D02*
X204597000Y-90932000D01*
X203835000Y-91440000D02*
X203835000Y-96266000D01*
X203581000Y-90932000D02*
X204089000Y-90932000D01*
X204089000Y-90932000D02*
X203835000Y-91440000D01*
X203835000Y-91440000D02*
X203581000Y-90932000D01*
X203835000Y-96266000D02*
X204089000Y-96774000D01*
X203835000Y-96266000D02*
X203581000Y-96774000D01*
X202819000Y-91440000D02*
X202819000Y-96266000D01*
X202565000Y-90932000D02*
X203073000Y-90932000D01*
X203073000Y-90932000D02*
X202819000Y-91440000D01*
X202819000Y-91440000D02*
X202565000Y-90932000D01*
X202819000Y-96266000D02*
X203073000Y-96774000D01*
X202819000Y-96266000D02*
X202565000Y-96774000D01*
X201803000Y-96266000D02*
X202057000Y-96774000D01*
X201803000Y-91440000D02*
X201803000Y-96266000D01*
X201803000Y-96266000D02*
X201549000Y-96774000D01*
X201549000Y-90932000D02*
X202057000Y-90932000D01*
X202057000Y-90932000D02*
X201803000Y-91440000D01*
X201803000Y-91440000D02*
X201549000Y-90932000D01*
X200787000Y-96266000D02*
X200787000Y-91440000D01*
X200787000Y-91440000D02*
X200533000Y-90932000D01*
X200533000Y-90932000D02*
X201041000Y-90932000D01*
X201041000Y-90932000D02*
X200787000Y-91440000D01*
X198755000Y-96266000D02*
X199009000Y-96774000D01*
X198755000Y-96266000D02*
X198501000Y-96774000D01*
X197739000Y-96266000D02*
X197993000Y-96774000D01*
X197739000Y-96266000D02*
X197485000Y-96774000D01*
X197485000Y-90932000D02*
X197993000Y-90932000D01*
X197993000Y-90932000D02*
X197739000Y-91440000D01*
X197739000Y-91440000D02*
X197485000Y-90932000D01*
X198501000Y-90932000D02*
X199009000Y-90932000D01*
X198755000Y-91440000D02*
X199009000Y-90932000D01*
X198755000Y-91440000D02*
X198501000Y-90932000D01*
X199517000Y-90932000D02*
X200025000Y-90932000D01*
X199771000Y-91440000D02*
X200025000Y-90932000D01*
X199517000Y-90932000D02*
X199771000Y-91440000D01*
X199771000Y-96266000D02*
X200025000Y-96774000D01*
X199771000Y-96266000D02*
X199517000Y-96774000D01*
X200787000Y-96266000D02*
X201041000Y-96774000D01*
X200787000Y-96266000D02*
X200533000Y-96774000D01*
X199771000Y-91440000D02*
X199771000Y-96266000D01*
X198755000Y-91440000D02*
X198755000Y-96266000D01*
X197739000Y-91440000D02*
X197739000Y-96266000D01*
X201549000Y-96774000D02*
X201549000Y-90932000D01*
X202057000Y-96774000D02*
X202057000Y-90932000D01*
X203073000Y-96774000D02*
X203073000Y-90932000D01*
X202565000Y-96774000D02*
X202565000Y-90932000D01*
X204597000Y-96774000D02*
X204597000Y-90932000D01*
X205105000Y-96774000D02*
X205105000Y-90932000D01*
X204089000Y-96774000D02*
X204089000Y-90932000D01*
X203581000Y-96774000D02*
X203581000Y-90932000D01*
X199517000Y-96774000D02*
X199517000Y-90932000D01*
X200025000Y-96774000D02*
X200025000Y-90932000D01*
X201041000Y-96774000D02*
X201041000Y-90932000D01*
X200533000Y-96774000D02*
X200533000Y-90932000D01*
X198501000Y-96774000D02*
X198501000Y-90932000D01*
X199009000Y-96774000D02*
X199009000Y-90932000D01*
X197993000Y-96774000D02*
X197993000Y-90932000D01*
X197485000Y-96774000D02*
X197485000Y-90932000D01*
X193355000Y-86930000D02*
X209235000Y-86930000D01*
X209235000Y-86930000D02*
X209235000Y-103570000D01*
X209235000Y-103570000D02*
X193355000Y-103570000D01*
X193355000Y-103570000D02*
X193355000Y-86930000D01*
X201549000Y-96774000D02*
G75*
G03X201803000Y-97028000I254000J0D01*
G01*
X201803000Y-97028000D02*
G75*
G03X202057000Y-96774000I0J254000D01*
G01*
X202819000Y-97028000D02*
G75*
G03X203073000Y-96774000I0J254000D01*
G01*
X202565000Y-96774000D02*
G75*
G03X202819000Y-97028000I254000J0D01*
G01*
X204597000Y-96774000D02*
G75*
G03X204851000Y-97028000I254000J0D01*
G01*
X204851000Y-97028000D02*
G75*
G03X205105000Y-96774000I0J254000D01*
G01*
X203835000Y-97028000D02*
G75*
G03X204089000Y-96774000I0J254000D01*
G01*
X203581000Y-96774000D02*
G75*
G03X203835000Y-97028000I254000J0D01*
G01*
X199517000Y-96774000D02*
G75*
G03X199771000Y-97028000I254000J0D01*
G01*
X199771000Y-97028000D02*
G75*
G03X200025000Y-96774000I0J254000D01*
G01*
X200787000Y-97028000D02*
G75*
G03X201041000Y-96774000I0J254000D01*
G01*
X200533000Y-96774000D02*
G75*
G03X200787000Y-97028000I254000J0D01*
G01*
X198501000Y-96774000D02*
G75*
G03X198755000Y-97028000I254000J0D01*
G01*
X198755000Y-97028000D02*
G75*
G03X199009000Y-96774000I0J254000D01*
G01*
X197739000Y-97028000D02*
G75*
G03X197993000Y-96774000I0J254000D01*
G01*
X197485000Y-96774000D02*
G75*
G03X197739000Y-97028000I254000J0D01*
G01*
X147701000Y-108712000D02*
X147701000Y-117094000D01*
X147701000Y-117094000D02*
X155829000Y-117094000D01*
X155829000Y-117094000D02*
X155829000Y-108712000D01*
X154051000Y-118618000D02*
X156845000Y-118618000D01*
X156845000Y-118618000D02*
X156845000Y-116840000D01*
X156845000Y-116840000D02*
X158115000Y-116840000D01*
X158115000Y-116840000D02*
X158115000Y-116332000D01*
X158115000Y-116332000D02*
X158623000Y-116332000D01*
X144907000Y-116332000D02*
X145415000Y-116332000D01*
X145415000Y-116332000D02*
X145415000Y-116840000D01*
X145415000Y-116840000D02*
X146685000Y-116840000D01*
X146685000Y-116840000D02*
X146685000Y-118618000D01*
X149479000Y-118618000D02*
X146685000Y-118618000D01*
X158623000Y-112522000D02*
X158115000Y-112522000D01*
X158115000Y-112522000D02*
X158115000Y-109474000D01*
X158115000Y-109474000D02*
X156845000Y-109474000D01*
X156845000Y-109474000D02*
X156845000Y-108712000D01*
X146685000Y-108712000D02*
X156845000Y-108712000D01*
X144907000Y-112522000D02*
X145415000Y-112522000D01*
X145415000Y-112522000D02*
X145415000Y-109474000D01*
X145415000Y-109474000D02*
X146685000Y-109474000D01*
X146685000Y-109474000D02*
X146685000Y-108712000D01*
X158623000Y-112522000D02*
X158623000Y-116332000D01*
X144907000Y-112522000D02*
X144907000Y-116332000D01*
X149479000Y-118618000D02*
X149479000Y-120650000D01*
X149479000Y-120650000D02*
X154051000Y-120650000D01*
X154051000Y-120650000D02*
X154051000Y-118618000D01*
X155321000Y-114046000D02*
X155575000Y-114554000D01*
X155321000Y-114046000D02*
X155067000Y-114554000D01*
X155321000Y-109220000D02*
X155321000Y-114046000D01*
X155067000Y-108712000D02*
X155575000Y-108712000D01*
X155575000Y-108712000D02*
X155321000Y-109220000D01*
X155321000Y-109220000D02*
X155067000Y-108712000D01*
X154305000Y-109220000D02*
X154305000Y-114046000D01*
X154051000Y-108712000D02*
X154559000Y-108712000D01*
X154559000Y-108712000D02*
X154305000Y-109220000D01*
X154305000Y-109220000D02*
X154051000Y-108712000D01*
X154305000Y-114046000D02*
X154559000Y-114554000D01*
X154305000Y-114046000D02*
X154051000Y-114554000D01*
X153289000Y-109220000D02*
X153289000Y-114046000D01*
X153035000Y-108712000D02*
X153543000Y-108712000D01*
X153543000Y-108712000D02*
X153289000Y-109220000D01*
X153289000Y-109220000D02*
X153035000Y-108712000D01*
X153289000Y-114046000D02*
X153543000Y-114554000D01*
X153289000Y-114046000D02*
X153035000Y-114554000D01*
X152273000Y-114046000D02*
X152527000Y-114554000D01*
X152273000Y-109220000D02*
X152273000Y-114046000D01*
X152273000Y-114046000D02*
X152019000Y-114554000D01*
X152019000Y-108712000D02*
X152527000Y-108712000D01*
X152527000Y-108712000D02*
X152273000Y-109220000D01*
X152273000Y-109220000D02*
X152019000Y-108712000D01*
X151257000Y-114046000D02*
X151257000Y-109220000D01*
X151257000Y-109220000D02*
X151003000Y-108712000D01*
X151003000Y-108712000D02*
X151511000Y-108712000D01*
X151511000Y-108712000D02*
X151257000Y-109220000D01*
X149225000Y-114046000D02*
X149479000Y-114554000D01*
X149225000Y-114046000D02*
X148971000Y-114554000D01*
X148209000Y-114046000D02*
X148463000Y-114554000D01*
X148209000Y-114046000D02*
X147955000Y-114554000D01*
X147955000Y-108712000D02*
X148463000Y-108712000D01*
X148463000Y-108712000D02*
X148209000Y-109220000D01*
X148209000Y-109220000D02*
X147955000Y-108712000D01*
X148971000Y-108712000D02*
X149479000Y-108712000D01*
X149225000Y-109220000D02*
X149479000Y-108712000D01*
X149225000Y-109220000D02*
X148971000Y-108712000D01*
X149987000Y-108712000D02*
X150495000Y-108712000D01*
X150241000Y-109220000D02*
X150495000Y-108712000D01*
X149987000Y-108712000D02*
X150241000Y-109220000D01*
X150241000Y-114046000D02*
X150495000Y-114554000D01*
X150241000Y-114046000D02*
X149987000Y-114554000D01*
X151257000Y-114046000D02*
X151511000Y-114554000D01*
X151257000Y-114046000D02*
X151003000Y-114554000D01*
X150241000Y-109220000D02*
X150241000Y-114046000D01*
X149225000Y-109220000D02*
X149225000Y-114046000D01*
X148209000Y-109220000D02*
X148209000Y-114046000D01*
X152019000Y-114554000D02*
X152019000Y-108712000D01*
X152527000Y-114554000D02*
X152527000Y-108712000D01*
X153543000Y-114554000D02*
X153543000Y-108712000D01*
X153035000Y-114554000D02*
X153035000Y-108712000D01*
X155067000Y-114554000D02*
X155067000Y-108712000D01*
X155575000Y-114554000D02*
X155575000Y-108712000D01*
X154559000Y-114554000D02*
X154559000Y-108712000D01*
X154051000Y-114554000D02*
X154051000Y-108712000D01*
X149987000Y-114554000D02*
X149987000Y-108712000D01*
X150495000Y-114554000D02*
X150495000Y-108712000D01*
X151511000Y-114554000D02*
X151511000Y-108712000D01*
X151003000Y-114554000D02*
X151003000Y-108712000D01*
X148971000Y-114554000D02*
X148971000Y-108712000D01*
X149479000Y-114554000D02*
X149479000Y-108712000D01*
X148463000Y-114554000D02*
X148463000Y-108712000D01*
X147955000Y-114554000D02*
X147955000Y-108712000D01*
X143825000Y-104710000D02*
X159705000Y-104710000D01*
X159705000Y-104710000D02*
X159705000Y-121350000D01*
X159705000Y-121350000D02*
X143825000Y-121350000D01*
X143825000Y-121350000D02*
X143825000Y-104710000D01*
X152019000Y-114554000D02*
G75*
G03X152273000Y-114808000I254000J0D01*
G01*
X152273000Y-114808000D02*
G75*
G03X152527000Y-114554000I0J254000D01*
G01*
X153289000Y-114808000D02*
G75*
G03X153543000Y-114554000I0J254000D01*
G01*
X153035000Y-114554000D02*
G75*
G03X153289000Y-114808000I254000J0D01*
G01*
X155067000Y-114554000D02*
G75*
G03X155321000Y-114808000I254000J0D01*
G01*
X155321000Y-114808000D02*
G75*
G03X155575000Y-114554000I0J254000D01*
G01*
X154305000Y-114808000D02*
G75*
G03X154559000Y-114554000I0J254000D01*
G01*
X154051000Y-114554000D02*
G75*
G03X154305000Y-114808000I254000J0D01*
G01*
X149987000Y-114554000D02*
G75*
G03X150241000Y-114808000I254000J0D01*
G01*
X150241000Y-114808000D02*
G75*
G03X150495000Y-114554000I0J254000D01*
G01*
X151257000Y-114808000D02*
G75*
G03X151511000Y-114554000I0J254000D01*
G01*
X151003000Y-114554000D02*
G75*
G03X151257000Y-114808000I254000J0D01*
G01*
X148971000Y-114554000D02*
G75*
G03X149225000Y-114808000I254000J0D01*
G01*
X149225000Y-114808000D02*
G75*
G03X149479000Y-114554000I0J254000D01*
G01*
X148209000Y-114808000D02*
G75*
G03X148463000Y-114554000I0J254000D01*
G01*
X147955000Y-114554000D02*
G75*
G03X148209000Y-114808000I254000J0D01*
G01*
X164211000Y-108712000D02*
X164211000Y-117094000D01*
X164211000Y-117094000D02*
X172339000Y-117094000D01*
X172339000Y-117094000D02*
X172339000Y-108712000D01*
X170561000Y-118618000D02*
X173355000Y-118618000D01*
X173355000Y-118618000D02*
X173355000Y-116840000D01*
X173355000Y-116840000D02*
X174625000Y-116840000D01*
X174625000Y-116840000D02*
X174625000Y-116332000D01*
X174625000Y-116332000D02*
X175133000Y-116332000D01*
X161417000Y-116332000D02*
X161925000Y-116332000D01*
X161925000Y-116332000D02*
X161925000Y-116840000D01*
X161925000Y-116840000D02*
X163195000Y-116840000D01*
X163195000Y-116840000D02*
X163195000Y-118618000D01*
X165989000Y-118618000D02*
X163195000Y-118618000D01*
X175133000Y-112522000D02*
X174625000Y-112522000D01*
X174625000Y-112522000D02*
X174625000Y-109474000D01*
X174625000Y-109474000D02*
X173355000Y-109474000D01*
X173355000Y-109474000D02*
X173355000Y-108712000D01*
X163195000Y-108712000D02*
X173355000Y-108712000D01*
X161417000Y-112522000D02*
X161925000Y-112522000D01*
X161925000Y-112522000D02*
X161925000Y-109474000D01*
X161925000Y-109474000D02*
X163195000Y-109474000D01*
X163195000Y-109474000D02*
X163195000Y-108712000D01*
X175133000Y-112522000D02*
X175133000Y-116332000D01*
X161417000Y-112522000D02*
X161417000Y-116332000D01*
X165989000Y-118618000D02*
X165989000Y-120650000D01*
X165989000Y-120650000D02*
X170561000Y-120650000D01*
X170561000Y-120650000D02*
X170561000Y-118618000D01*
X171831000Y-114046000D02*
X172085000Y-114554000D01*
X171831000Y-114046000D02*
X171577000Y-114554000D01*
X171831000Y-109220000D02*
X171831000Y-114046000D01*
X171577000Y-108712000D02*
X172085000Y-108712000D01*
X172085000Y-108712000D02*
X171831000Y-109220000D01*
X171831000Y-109220000D02*
X171577000Y-108712000D01*
X170815000Y-109220000D02*
X170815000Y-114046000D01*
X170561000Y-108712000D02*
X171069000Y-108712000D01*
X171069000Y-108712000D02*
X170815000Y-109220000D01*
X170815000Y-109220000D02*
X170561000Y-108712000D01*
X170815000Y-114046000D02*
X171069000Y-114554000D01*
X170815000Y-114046000D02*
X170561000Y-114554000D01*
X169799000Y-109220000D02*
X169799000Y-114046000D01*
X169545000Y-108712000D02*
X170053000Y-108712000D01*
X170053000Y-108712000D02*
X169799000Y-109220000D01*
X169799000Y-109220000D02*
X169545000Y-108712000D01*
X169799000Y-114046000D02*
X170053000Y-114554000D01*
X169799000Y-114046000D02*
X169545000Y-114554000D01*
X168783000Y-114046000D02*
X169037000Y-114554000D01*
X168783000Y-109220000D02*
X168783000Y-114046000D01*
X168783000Y-114046000D02*
X168529000Y-114554000D01*
X168529000Y-108712000D02*
X169037000Y-108712000D01*
X169037000Y-108712000D02*
X168783000Y-109220000D01*
X168783000Y-109220000D02*
X168529000Y-108712000D01*
X167767000Y-114046000D02*
X167767000Y-109220000D01*
X167767000Y-109220000D02*
X167513000Y-108712000D01*
X167513000Y-108712000D02*
X168021000Y-108712000D01*
X168021000Y-108712000D02*
X167767000Y-109220000D01*
X165735000Y-114046000D02*
X165989000Y-114554000D01*
X165735000Y-114046000D02*
X165481000Y-114554000D01*
X164719000Y-114046000D02*
X164973000Y-114554000D01*
X164719000Y-114046000D02*
X164465000Y-114554000D01*
X164465000Y-108712000D02*
X164973000Y-108712000D01*
X164973000Y-108712000D02*
X164719000Y-109220000D01*
X164719000Y-109220000D02*
X164465000Y-108712000D01*
X165481000Y-108712000D02*
X165989000Y-108712000D01*
X165735000Y-109220000D02*
X165989000Y-108712000D01*
X165735000Y-109220000D02*
X165481000Y-108712000D01*
X166497000Y-108712000D02*
X167005000Y-108712000D01*
X166751000Y-109220000D02*
X167005000Y-108712000D01*
X166497000Y-108712000D02*
X166751000Y-109220000D01*
X166751000Y-114046000D02*
X167005000Y-114554000D01*
X166751000Y-114046000D02*
X166497000Y-114554000D01*
X167767000Y-114046000D02*
X168021000Y-114554000D01*
X167767000Y-114046000D02*
X167513000Y-114554000D01*
X166751000Y-109220000D02*
X166751000Y-114046000D01*
X165735000Y-109220000D02*
X165735000Y-114046000D01*
X164719000Y-109220000D02*
X164719000Y-114046000D01*
X168529000Y-114554000D02*
X168529000Y-108712000D01*
X169037000Y-114554000D02*
X169037000Y-108712000D01*
X170053000Y-114554000D02*
X170053000Y-108712000D01*
X169545000Y-114554000D02*
X169545000Y-108712000D01*
X171577000Y-114554000D02*
X171577000Y-108712000D01*
X172085000Y-114554000D02*
X172085000Y-108712000D01*
X171069000Y-114554000D02*
X171069000Y-108712000D01*
X170561000Y-114554000D02*
X170561000Y-108712000D01*
X166497000Y-114554000D02*
X166497000Y-108712000D01*
X167005000Y-114554000D02*
X167005000Y-108712000D01*
X168021000Y-114554000D02*
X168021000Y-108712000D01*
X167513000Y-114554000D02*
X167513000Y-108712000D01*
X165481000Y-114554000D02*
X165481000Y-108712000D01*
X165989000Y-114554000D02*
X165989000Y-108712000D01*
X164973000Y-114554000D02*
X164973000Y-108712000D01*
X164465000Y-114554000D02*
X164465000Y-108712000D01*
X160335000Y-104710000D02*
X176215000Y-104710000D01*
X176215000Y-104710000D02*
X176215000Y-121350000D01*
X176215000Y-121350000D02*
X160335000Y-121350000D01*
X160335000Y-121350000D02*
X160335000Y-104710000D01*
X168529000Y-114554000D02*
G75*
G03X168783000Y-114808000I254000J0D01*
G01*
X168783000Y-114808000D02*
G75*
G03X169037000Y-114554000I0J254000D01*
G01*
X169799000Y-114808000D02*
G75*
G03X170053000Y-114554000I0J254000D01*
G01*
X169545000Y-114554000D02*
G75*
G03X169799000Y-114808000I254000J0D01*
G01*
X171577000Y-114554000D02*
G75*
G03X171831000Y-114808000I254000J0D01*
G01*
X171831000Y-114808000D02*
G75*
G03X172085000Y-114554000I0J254000D01*
G01*
X170815000Y-114808000D02*
G75*
G03X171069000Y-114554000I0J254000D01*
G01*
X170561000Y-114554000D02*
G75*
G03X170815000Y-114808000I254000J0D01*
G01*
X166497000Y-114554000D02*
G75*
G03X166751000Y-114808000I254000J0D01*
G01*
X166751000Y-114808000D02*
G75*
G03X167005000Y-114554000I0J254000D01*
G01*
X167767000Y-114808000D02*
G75*
G03X168021000Y-114554000I0J254000D01*
G01*
X167513000Y-114554000D02*
G75*
G03X167767000Y-114808000I254000J0D01*
G01*
X165481000Y-114554000D02*
G75*
G03X165735000Y-114808000I254000J0D01*
G01*
X165735000Y-114808000D02*
G75*
G03X165989000Y-114554000I0J254000D01*
G01*
X164719000Y-114808000D02*
G75*
G03X164973000Y-114554000I0J254000D01*
G01*
X164465000Y-114554000D02*
G75*
G03X164719000Y-114808000I254000J0D01*
G01*
X180721000Y-108712000D02*
X180721000Y-117094000D01*
X180721000Y-117094000D02*
X188849000Y-117094000D01*
X188849000Y-117094000D02*
X188849000Y-108712000D01*
X187071000Y-118618000D02*
X189865000Y-118618000D01*
X189865000Y-118618000D02*
X189865000Y-116840000D01*
X189865000Y-116840000D02*
X191135000Y-116840000D01*
X191135000Y-116840000D02*
X191135000Y-116332000D01*
X191135000Y-116332000D02*
X191643000Y-116332000D01*
X177927000Y-116332000D02*
X178435000Y-116332000D01*
X178435000Y-116332000D02*
X178435000Y-116840000D01*
X178435000Y-116840000D02*
X179705000Y-116840000D01*
X179705000Y-116840000D02*
X179705000Y-118618000D01*
X182499000Y-118618000D02*
X179705000Y-118618000D01*
X191643000Y-112522000D02*
X191135000Y-112522000D01*
X191135000Y-112522000D02*
X191135000Y-109474000D01*
X191135000Y-109474000D02*
X189865000Y-109474000D01*
X189865000Y-109474000D02*
X189865000Y-108712000D01*
X179705000Y-108712000D02*
X189865000Y-108712000D01*
X177927000Y-112522000D02*
X178435000Y-112522000D01*
X178435000Y-112522000D02*
X178435000Y-109474000D01*
X178435000Y-109474000D02*
X179705000Y-109474000D01*
X179705000Y-109474000D02*
X179705000Y-108712000D01*
X191643000Y-112522000D02*
X191643000Y-116332000D01*
X177927000Y-112522000D02*
X177927000Y-116332000D01*
X182499000Y-118618000D02*
X182499000Y-120650000D01*
X182499000Y-120650000D02*
X187071000Y-120650000D01*
X187071000Y-120650000D02*
X187071000Y-118618000D01*
X188341000Y-114046000D02*
X188595000Y-114554000D01*
X188341000Y-114046000D02*
X188087000Y-114554000D01*
X188341000Y-109220000D02*
X188341000Y-114046000D01*
X188087000Y-108712000D02*
X188595000Y-108712000D01*
X188595000Y-108712000D02*
X188341000Y-109220000D01*
X188341000Y-109220000D02*
X188087000Y-108712000D01*
X187325000Y-109220000D02*
X187325000Y-114046000D01*
X187071000Y-108712000D02*
X187579000Y-108712000D01*
X187579000Y-108712000D02*
X187325000Y-109220000D01*
X187325000Y-109220000D02*
X187071000Y-108712000D01*
X187325000Y-114046000D02*
X187579000Y-114554000D01*
X187325000Y-114046000D02*
X187071000Y-114554000D01*
X186309000Y-109220000D02*
X186309000Y-114046000D01*
X186055000Y-108712000D02*
X186563000Y-108712000D01*
X186563000Y-108712000D02*
X186309000Y-109220000D01*
X186309000Y-109220000D02*
X186055000Y-108712000D01*
X186309000Y-114046000D02*
X186563000Y-114554000D01*
X186309000Y-114046000D02*
X186055000Y-114554000D01*
X185293000Y-114046000D02*
X185547000Y-114554000D01*
X185293000Y-109220000D02*
X185293000Y-114046000D01*
X185293000Y-114046000D02*
X185039000Y-114554000D01*
X185039000Y-108712000D02*
X185547000Y-108712000D01*
X185547000Y-108712000D02*
X185293000Y-109220000D01*
X185293000Y-109220000D02*
X185039000Y-108712000D01*
X184277000Y-114046000D02*
X184277000Y-109220000D01*
X184277000Y-109220000D02*
X184023000Y-108712000D01*
X184023000Y-108712000D02*
X184531000Y-108712000D01*
X184531000Y-108712000D02*
X184277000Y-109220000D01*
X182245000Y-114046000D02*
X182499000Y-114554000D01*
X182245000Y-114046000D02*
X181991000Y-114554000D01*
X181229000Y-114046000D02*
X181483000Y-114554000D01*
X181229000Y-114046000D02*
X180975000Y-114554000D01*
X180975000Y-108712000D02*
X181483000Y-108712000D01*
X181483000Y-108712000D02*
X181229000Y-109220000D01*
X181229000Y-109220000D02*
X180975000Y-108712000D01*
X181991000Y-108712000D02*
X182499000Y-108712000D01*
X182245000Y-109220000D02*
X182499000Y-108712000D01*
X182245000Y-109220000D02*
X181991000Y-108712000D01*
X183007000Y-108712000D02*
X183515000Y-108712000D01*
X183261000Y-109220000D02*
X183515000Y-108712000D01*
X183007000Y-108712000D02*
X183261000Y-109220000D01*
X183261000Y-114046000D02*
X183515000Y-114554000D01*
X183261000Y-114046000D02*
X183007000Y-114554000D01*
X184277000Y-114046000D02*
X184531000Y-114554000D01*
X184277000Y-114046000D02*
X184023000Y-114554000D01*
X183261000Y-109220000D02*
X183261000Y-114046000D01*
X182245000Y-109220000D02*
X182245000Y-114046000D01*
X181229000Y-109220000D02*
X181229000Y-114046000D01*
X185039000Y-114554000D02*
X185039000Y-108712000D01*
X185547000Y-114554000D02*
X185547000Y-108712000D01*
X186563000Y-114554000D02*
X186563000Y-108712000D01*
X186055000Y-114554000D02*
X186055000Y-108712000D01*
X188087000Y-114554000D02*
X188087000Y-108712000D01*
X188595000Y-114554000D02*
X188595000Y-108712000D01*
X187579000Y-114554000D02*
X187579000Y-108712000D01*
X187071000Y-114554000D02*
X187071000Y-108712000D01*
X183007000Y-114554000D02*
X183007000Y-108712000D01*
X183515000Y-114554000D02*
X183515000Y-108712000D01*
X184531000Y-114554000D02*
X184531000Y-108712000D01*
X184023000Y-114554000D02*
X184023000Y-108712000D01*
X181991000Y-114554000D02*
X181991000Y-108712000D01*
X182499000Y-114554000D02*
X182499000Y-108712000D01*
X181483000Y-114554000D02*
X181483000Y-108712000D01*
X180975000Y-114554000D02*
X180975000Y-108712000D01*
X176845000Y-104710000D02*
X192725000Y-104710000D01*
X192725000Y-104710000D02*
X192725000Y-121350000D01*
X192725000Y-121350000D02*
X176845000Y-121350000D01*
X176845000Y-121350000D02*
X176845000Y-104710000D01*
X185039000Y-114554000D02*
G75*
G03X185293000Y-114808000I254000J0D01*
G01*
X185293000Y-114808000D02*
G75*
G03X185547000Y-114554000I0J254000D01*
G01*
X186309000Y-114808000D02*
G75*
G03X186563000Y-114554000I0J254000D01*
G01*
X186055000Y-114554000D02*
G75*
G03X186309000Y-114808000I254000J0D01*
G01*
X188087000Y-114554000D02*
G75*
G03X188341000Y-114808000I254000J0D01*
G01*
X188341000Y-114808000D02*
G75*
G03X188595000Y-114554000I0J254000D01*
G01*
X187325000Y-114808000D02*
G75*
G03X187579000Y-114554000I0J254000D01*
G01*
X187071000Y-114554000D02*
G75*
G03X187325000Y-114808000I254000J0D01*
G01*
X183007000Y-114554000D02*
G75*
G03X183261000Y-114808000I254000J0D01*
G01*
X183261000Y-114808000D02*
G75*
G03X183515000Y-114554000I0J254000D01*
G01*
X184277000Y-114808000D02*
G75*
G03X184531000Y-114554000I0J254000D01*
G01*
X184023000Y-114554000D02*
G75*
G03X184277000Y-114808000I254000J0D01*
G01*
X181991000Y-114554000D02*
G75*
G03X182245000Y-114808000I254000J0D01*
G01*
X182245000Y-114808000D02*
G75*
G03X182499000Y-114554000I0J254000D01*
G01*
X181229000Y-114808000D02*
G75*
G03X181483000Y-114554000I0J254000D01*
G01*
X180975000Y-114554000D02*
G75*
G03X181229000Y-114808000I254000J0D01*
G01*
X197231000Y-108712000D02*
X197231000Y-117094000D01*
X197231000Y-117094000D02*
X205359000Y-117094000D01*
X205359000Y-117094000D02*
X205359000Y-108712000D01*
X203581000Y-118618000D02*
X206375000Y-118618000D01*
X206375000Y-118618000D02*
X206375000Y-116840000D01*
X206375000Y-116840000D02*
X207645000Y-116840000D01*
X207645000Y-116840000D02*
X207645000Y-116332000D01*
X207645000Y-116332000D02*
X208153000Y-116332000D01*
X194437000Y-116332000D02*
X194945000Y-116332000D01*
X194945000Y-116332000D02*
X194945000Y-116840000D01*
X194945000Y-116840000D02*
X196215000Y-116840000D01*
X196215000Y-116840000D02*
X196215000Y-118618000D01*
X199009000Y-118618000D02*
X196215000Y-118618000D01*
X208153000Y-112522000D02*
X207645000Y-112522000D01*
X207645000Y-112522000D02*
X207645000Y-109474000D01*
X207645000Y-109474000D02*
X206375000Y-109474000D01*
X206375000Y-109474000D02*
X206375000Y-108712000D01*
X196215000Y-108712000D02*
X206375000Y-108712000D01*
X194437000Y-112522000D02*
X194945000Y-112522000D01*
X194945000Y-112522000D02*
X194945000Y-109474000D01*
X194945000Y-109474000D02*
X196215000Y-109474000D01*
X196215000Y-109474000D02*
X196215000Y-108712000D01*
X208153000Y-112522000D02*
X208153000Y-116332000D01*
X194437000Y-112522000D02*
X194437000Y-116332000D01*
X199009000Y-118618000D02*
X199009000Y-120650000D01*
X199009000Y-120650000D02*
X203581000Y-120650000D01*
X203581000Y-120650000D02*
X203581000Y-118618000D01*
X204851000Y-114046000D02*
X205105000Y-114554000D01*
X204851000Y-114046000D02*
X204597000Y-114554000D01*
X204851000Y-109220000D02*
X204851000Y-114046000D01*
X204597000Y-108712000D02*
X205105000Y-108712000D01*
X205105000Y-108712000D02*
X204851000Y-109220000D01*
X204851000Y-109220000D02*
X204597000Y-108712000D01*
X203835000Y-109220000D02*
X203835000Y-114046000D01*
X203581000Y-108712000D02*
X204089000Y-108712000D01*
X204089000Y-108712000D02*
X203835000Y-109220000D01*
X203835000Y-109220000D02*
X203581000Y-108712000D01*
X203835000Y-114046000D02*
X204089000Y-114554000D01*
X203835000Y-114046000D02*
X203581000Y-114554000D01*
X202819000Y-109220000D02*
X202819000Y-114046000D01*
X202565000Y-108712000D02*
X203073000Y-108712000D01*
X203073000Y-108712000D02*
X202819000Y-109220000D01*
X202819000Y-109220000D02*
X202565000Y-108712000D01*
X202819000Y-114046000D02*
X203073000Y-114554000D01*
X202819000Y-114046000D02*
X202565000Y-114554000D01*
X201803000Y-114046000D02*
X202057000Y-114554000D01*
X201803000Y-109220000D02*
X201803000Y-114046000D01*
X201803000Y-114046000D02*
X201549000Y-114554000D01*
X201549000Y-108712000D02*
X202057000Y-108712000D01*
X202057000Y-108712000D02*
X201803000Y-109220000D01*
X201803000Y-109220000D02*
X201549000Y-108712000D01*
X200787000Y-114046000D02*
X200787000Y-109220000D01*
X200787000Y-109220000D02*
X200533000Y-108712000D01*
X200533000Y-108712000D02*
X201041000Y-108712000D01*
X201041000Y-108712000D02*
X200787000Y-109220000D01*
X198755000Y-114046000D02*
X199009000Y-114554000D01*
X198755000Y-114046000D02*
X198501000Y-114554000D01*
X197739000Y-114046000D02*
X197993000Y-114554000D01*
X197739000Y-114046000D02*
X197485000Y-114554000D01*
X197485000Y-108712000D02*
X197993000Y-108712000D01*
X197993000Y-108712000D02*
X197739000Y-109220000D01*
X197739000Y-109220000D02*
X197485000Y-108712000D01*
X198501000Y-108712000D02*
X199009000Y-108712000D01*
X198755000Y-109220000D02*
X199009000Y-108712000D01*
X198755000Y-109220000D02*
X198501000Y-108712000D01*
X199517000Y-108712000D02*
X200025000Y-108712000D01*
X199771000Y-109220000D02*
X200025000Y-108712000D01*
X199517000Y-108712000D02*
X199771000Y-109220000D01*
X199771000Y-114046000D02*
X200025000Y-114554000D01*
X199771000Y-114046000D02*
X199517000Y-114554000D01*
X200787000Y-114046000D02*
X201041000Y-114554000D01*
X200787000Y-114046000D02*
X200533000Y-114554000D01*
X199771000Y-109220000D02*
X199771000Y-114046000D01*
X198755000Y-109220000D02*
X198755000Y-114046000D01*
X197739000Y-109220000D02*
X197739000Y-114046000D01*
X201549000Y-114554000D02*
X201549000Y-108712000D01*
X202057000Y-114554000D02*
X202057000Y-108712000D01*
X203073000Y-114554000D02*
X203073000Y-108712000D01*
X202565000Y-114554000D02*
X202565000Y-108712000D01*
X204597000Y-114554000D02*
X204597000Y-108712000D01*
X205105000Y-114554000D02*
X205105000Y-108712000D01*
X204089000Y-114554000D02*
X204089000Y-108712000D01*
X203581000Y-114554000D02*
X203581000Y-108712000D01*
X199517000Y-114554000D02*
X199517000Y-108712000D01*
X200025000Y-114554000D02*
X200025000Y-108712000D01*
X201041000Y-114554000D02*
X201041000Y-108712000D01*
X200533000Y-114554000D02*
X200533000Y-108712000D01*
X198501000Y-114554000D02*
X198501000Y-108712000D01*
X199009000Y-114554000D02*
X199009000Y-108712000D01*
X197993000Y-114554000D02*
X197993000Y-108712000D01*
X197485000Y-114554000D02*
X197485000Y-108712000D01*
X193355000Y-104710000D02*
X209235000Y-104710000D01*
X209235000Y-104710000D02*
X209235000Y-121350000D01*
X209235000Y-121350000D02*
X193355000Y-121350000D01*
X193355000Y-121350000D02*
X193355000Y-104710000D01*
X201549000Y-114554000D02*
G75*
G03X201803000Y-114808000I254000J0D01*
G01*
X201803000Y-114808000D02*
G75*
G03X202057000Y-114554000I0J254000D01*
G01*
X202819000Y-114808000D02*
G75*
G03X203073000Y-114554000I0J254000D01*
G01*
X202565000Y-114554000D02*
G75*
G03X202819000Y-114808000I254000J0D01*
G01*
X204597000Y-114554000D02*
G75*
G03X204851000Y-114808000I254000J0D01*
G01*
X204851000Y-114808000D02*
G75*
G03X205105000Y-114554000I0J254000D01*
G01*
X203835000Y-114808000D02*
G75*
G03X204089000Y-114554000I0J254000D01*
G01*
X203581000Y-114554000D02*
G75*
G03X203835000Y-114808000I254000J0D01*
G01*
X199517000Y-114554000D02*
G75*
G03X199771000Y-114808000I254000J0D01*
G01*
X199771000Y-114808000D02*
G75*
G03X200025000Y-114554000I0J254000D01*
G01*
X200787000Y-114808000D02*
G75*
G03X201041000Y-114554000I0J254000D01*
G01*
X200533000Y-114554000D02*
G75*
G03X200787000Y-114808000I254000J0D01*
G01*
X198501000Y-114554000D02*
G75*
G03X198755000Y-114808000I254000J0D01*
G01*
X198755000Y-114808000D02*
G75*
G03X199009000Y-114554000I0J254000D01*
G01*
X197739000Y-114808000D02*
G75*
G03X197993000Y-114554000I0J254000D01*
G01*
X197485000Y-114554000D02*
G75*
G03X197739000Y-114808000I254000J0D01*
G01*
D12*
X157297381Y-137263095D02*
X156297381Y-137263095D01*
X156297381Y-136882142D01*
X156345000Y-136786904D01*
X156392619Y-136739285D01*
X156487857Y-136691666D01*
X156630714Y-136691666D01*
X156725952Y-136739285D01*
X156773571Y-136786904D01*
X156821190Y-136882142D01*
X156821190Y-137263095D01*
X156297381Y-135834523D02*
X156297381Y-136025000D01*
X156345000Y-136120238D01*
X156392619Y-136167857D01*
X156535476Y-136263095D01*
X156725952Y-136310714D01*
X157106905Y-136310714D01*
X157202143Y-136263095D01*
X157249762Y-136215476D01*
X157297381Y-136120238D01*
X157297381Y-135929761D01*
X157249762Y-135834523D01*
X157202143Y-135786904D01*
X157106905Y-135739285D01*
X156868810Y-135739285D01*
X156773571Y-135786904D01*
X156725952Y-135834523D01*
X156678333Y-135929761D01*
X156678333Y-136120238D01*
X156725952Y-136215476D01*
X156773571Y-136263095D01*
X156868810Y-136310714D01*
X171902381Y-129008095D02*
X170902381Y-129008095D01*
X170902381Y-128627142D01*
X170950000Y-128531904D01*
X170997619Y-128484285D01*
X171092857Y-128436666D01*
X171235714Y-128436666D01*
X171330952Y-128484285D01*
X171378571Y-128531904D01*
X171426190Y-128627142D01*
X171426190Y-129008095D01*
X170902381Y-128103333D02*
X170902381Y-127484285D01*
X171283333Y-127817619D01*
X171283333Y-127674761D01*
X171330952Y-127579523D01*
X171378571Y-127531904D01*
X171473810Y-127484285D01*
X171711905Y-127484285D01*
X171807143Y-127531904D01*
X171854762Y-127579523D01*
X171902381Y-127674761D01*
X171902381Y-127960476D01*
X171854762Y-128055714D01*
X171807143Y-128103333D01*
X187142381Y-137263095D02*
X186142381Y-137263095D01*
X186142381Y-136882142D01*
X186190000Y-136786904D01*
X186237619Y-136739285D01*
X186332857Y-136691666D01*
X186475714Y-136691666D01*
X186570952Y-136739285D01*
X186618571Y-136786904D01*
X186666190Y-136882142D01*
X186666190Y-137263095D01*
X186570952Y-136120238D02*
X186523333Y-136215476D01*
X186475714Y-136263095D01*
X186380476Y-136310714D01*
X186332857Y-136310714D01*
X186237619Y-136263095D01*
X186190000Y-136215476D01*
X186142381Y-136120238D01*
X186142381Y-135929761D01*
X186190000Y-135834523D01*
X186237619Y-135786904D01*
X186332857Y-135739285D01*
X186380476Y-135739285D01*
X186475714Y-135786904D01*
X186523333Y-135834523D01*
X186570952Y-135929761D01*
X186570952Y-136120238D01*
X186618571Y-136215476D01*
X186666190Y-136263095D01*
X186761429Y-136310714D01*
X186951905Y-136310714D01*
X187047143Y-136263095D01*
X187094762Y-136215476D01*
X187142381Y-136120238D01*
X187142381Y-135929761D01*
X187094762Y-135834523D01*
X187047143Y-135786904D01*
X186951905Y-135739285D01*
X186761429Y-135739285D01*
X186666190Y-135786904D01*
X186618571Y-135834523D01*
X186570952Y-135929761D01*
X171902381Y-137263095D02*
X170902381Y-137263095D01*
X170902381Y-136882142D01*
X170950000Y-136786904D01*
X170997619Y-136739285D01*
X171092857Y-136691666D01*
X171235714Y-136691666D01*
X171330952Y-136739285D01*
X171378571Y-136786904D01*
X171426190Y-136882142D01*
X171426190Y-137263095D01*
X170902381Y-136358333D02*
X170902381Y-135691666D01*
X171902381Y-136120238D01*
X142057381Y-137263095D02*
X141057381Y-137263095D01*
X141057381Y-136882142D01*
X141105000Y-136786904D01*
X141152619Y-136739285D01*
X141247857Y-136691666D01*
X141390714Y-136691666D01*
X141485952Y-136739285D01*
X141533571Y-136786904D01*
X141581190Y-136882142D01*
X141581190Y-137263095D01*
X141057381Y-135786904D02*
X141057381Y-136263095D01*
X141533571Y-136310714D01*
X141485952Y-136263095D01*
X141438333Y-136167857D01*
X141438333Y-135929761D01*
X141485952Y-135834523D01*
X141533571Y-135786904D01*
X141628810Y-135739285D01*
X141866905Y-135739285D01*
X141962143Y-135786904D01*
X142009762Y-135834523D01*
X142057381Y-135929761D01*
X142057381Y-136167857D01*
X142009762Y-136263095D01*
X141962143Y-136310714D01*
X187142381Y-129008095D02*
X186142381Y-129008095D01*
X186142381Y-128627142D01*
X186190000Y-128531904D01*
X186237619Y-128484285D01*
X186332857Y-128436666D01*
X186475714Y-128436666D01*
X186570952Y-128484285D01*
X186618571Y-128531904D01*
X186666190Y-128627142D01*
X186666190Y-129008095D01*
X186475714Y-127579523D02*
X187142381Y-127579523D01*
X186094762Y-127817619D02*
X186809048Y-128055714D01*
X186809048Y-127436666D01*
X157297381Y-129008095D02*
X156297381Y-129008095D01*
X156297381Y-128627142D01*
X156345000Y-128531904D01*
X156392619Y-128484285D01*
X156487857Y-128436666D01*
X156630714Y-128436666D01*
X156725952Y-128484285D01*
X156773571Y-128531904D01*
X156821190Y-128627142D01*
X156821190Y-129008095D01*
X156392619Y-128055714D02*
X156345000Y-128008095D01*
X156297381Y-127912857D01*
X156297381Y-127674761D01*
X156345000Y-127579523D01*
X156392619Y-127531904D01*
X156487857Y-127484285D01*
X156583095Y-127484285D01*
X156725952Y-127531904D01*
X157297381Y-128103333D01*
X157297381Y-127484285D01*
D14*
X151319896Y-86727695D02*
X151048963Y-86340648D01*
X150855439Y-86727695D02*
X150855439Y-85914895D01*
X151165077Y-85914895D01*
X151242486Y-85953600D01*
X151281191Y-85992305D01*
X151319896Y-86069714D01*
X151319896Y-86185829D01*
X151281191Y-86263238D01*
X151242486Y-86301943D01*
X151165077Y-86340648D01*
X150855439Y-86340648D01*
X151900467Y-85914895D02*
X151900467Y-86495467D01*
X151861763Y-86611581D01*
X151784353Y-86688990D01*
X151668239Y-86727695D01*
X151590829Y-86727695D01*
X152713267Y-86727695D02*
X152248810Y-86727695D01*
X152481039Y-86727695D02*
X152481039Y-85914895D01*
X152403629Y-86031010D01*
X152326220Y-86108419D01*
X152248810Y-86147124D01*
D12*
X142057381Y-129008095D02*
X141057381Y-129008095D01*
X141057381Y-128627142D01*
X141105000Y-128531904D01*
X141152619Y-128484285D01*
X141247857Y-128436666D01*
X141390714Y-128436666D01*
X141485952Y-128484285D01*
X141533571Y-128531904D01*
X141581190Y-128627142D01*
X141581190Y-129008095D01*
X142057381Y-127484285D02*
X142057381Y-128055714D01*
X142057381Y-127770000D02*
X141057381Y-127770000D01*
X141200238Y-127865238D01*
X141295476Y-127960476D01*
X141343095Y-128055714D01*
D14*
X167829896Y-86727695D02*
X167558963Y-86340648D01*
X167365439Y-86727695D02*
X167365439Y-85914895D01*
X167675077Y-85914895D01*
X167752486Y-85953600D01*
X167791191Y-85992305D01*
X167829896Y-86069714D01*
X167829896Y-86185829D01*
X167791191Y-86263238D01*
X167752486Y-86301943D01*
X167675077Y-86340648D01*
X167365439Y-86340648D01*
X168410467Y-85914895D02*
X168410467Y-86495467D01*
X168371763Y-86611581D01*
X168294353Y-86688990D01*
X168178239Y-86727695D01*
X168100829Y-86727695D01*
X168758810Y-85992305D02*
X168797515Y-85953600D01*
X168874924Y-85914895D01*
X169068448Y-85914895D01*
X169145858Y-85953600D01*
X169184562Y-85992305D01*
X169223267Y-86069714D01*
X169223267Y-86147124D01*
X169184562Y-86263238D01*
X168720105Y-86727695D01*
X169223267Y-86727695D01*
X184339896Y-86727695D02*
X184068963Y-86340648D01*
X183875439Y-86727695D02*
X183875439Y-85914895D01*
X184185077Y-85914895D01*
X184262486Y-85953600D01*
X184301191Y-85992305D01*
X184339896Y-86069714D01*
X184339896Y-86185829D01*
X184301191Y-86263238D01*
X184262486Y-86301943D01*
X184185077Y-86340648D01*
X183875439Y-86340648D01*
X184920467Y-85914895D02*
X184920467Y-86495467D01*
X184881763Y-86611581D01*
X184804353Y-86688990D01*
X184688239Y-86727695D01*
X184610829Y-86727695D01*
X185230105Y-85914895D02*
X185733267Y-85914895D01*
X185462334Y-86224533D01*
X185578448Y-86224533D01*
X185655858Y-86263238D01*
X185694562Y-86301943D01*
X185733267Y-86379352D01*
X185733267Y-86572876D01*
X185694562Y-86650286D01*
X185655858Y-86688990D01*
X185578448Y-86727695D01*
X185346220Y-86727695D01*
X185268810Y-86688990D01*
X185230105Y-86650286D01*
X200849896Y-86727695D02*
X200578963Y-86340648D01*
X200385439Y-86727695D02*
X200385439Y-85914895D01*
X200695077Y-85914895D01*
X200772486Y-85953600D01*
X200811191Y-85992305D01*
X200849896Y-86069714D01*
X200849896Y-86185829D01*
X200811191Y-86263238D01*
X200772486Y-86301943D01*
X200695077Y-86340648D01*
X200385439Y-86340648D01*
X201430467Y-85914895D02*
X201430467Y-86495467D01*
X201391763Y-86611581D01*
X201314353Y-86688990D01*
X201198239Y-86727695D01*
X201120829Y-86727695D01*
X202165858Y-86185829D02*
X202165858Y-86727695D01*
X201972334Y-85876190D02*
X201778810Y-86456762D01*
X202281972Y-86456762D01*
X151319896Y-104507695D02*
X151048963Y-104120648D01*
X150855439Y-104507695D02*
X150855439Y-103694895D01*
X151165077Y-103694895D01*
X151242486Y-103733600D01*
X151281191Y-103772305D01*
X151319896Y-103849714D01*
X151319896Y-103965829D01*
X151281191Y-104043238D01*
X151242486Y-104081943D01*
X151165077Y-104120648D01*
X150855439Y-104120648D01*
X151900467Y-103694895D02*
X151900467Y-104275467D01*
X151861763Y-104391581D01*
X151784353Y-104468990D01*
X151668239Y-104507695D01*
X151590829Y-104507695D01*
X152674562Y-103694895D02*
X152287515Y-103694895D01*
X152248810Y-104081943D01*
X152287515Y-104043238D01*
X152364924Y-104004533D01*
X152558448Y-104004533D01*
X152635858Y-104043238D01*
X152674562Y-104081943D01*
X152713267Y-104159352D01*
X152713267Y-104352876D01*
X152674562Y-104430286D01*
X152635858Y-104468990D01*
X152558448Y-104507695D01*
X152364924Y-104507695D01*
X152287515Y-104468990D01*
X152248810Y-104430286D01*
X167829896Y-104507695D02*
X167558963Y-104120648D01*
X167365439Y-104507695D02*
X167365439Y-103694895D01*
X167675077Y-103694895D01*
X167752486Y-103733600D01*
X167791191Y-103772305D01*
X167829896Y-103849714D01*
X167829896Y-103965829D01*
X167791191Y-104043238D01*
X167752486Y-104081943D01*
X167675077Y-104120648D01*
X167365439Y-104120648D01*
X168410467Y-103694895D02*
X168410467Y-104275467D01*
X168371763Y-104391581D01*
X168294353Y-104468990D01*
X168178239Y-104507695D01*
X168100829Y-104507695D01*
X169145858Y-103694895D02*
X168991039Y-103694895D01*
X168913629Y-103733600D01*
X168874924Y-103772305D01*
X168797515Y-103888419D01*
X168758810Y-104043238D01*
X168758810Y-104352876D01*
X168797515Y-104430286D01*
X168836220Y-104468990D01*
X168913629Y-104507695D01*
X169068448Y-104507695D01*
X169145858Y-104468990D01*
X169184562Y-104430286D01*
X169223267Y-104352876D01*
X169223267Y-104159352D01*
X169184562Y-104081943D01*
X169145858Y-104043238D01*
X169068448Y-104004533D01*
X168913629Y-104004533D01*
X168836220Y-104043238D01*
X168797515Y-104081943D01*
X168758810Y-104159352D01*
X184339896Y-104507695D02*
X184068963Y-104120648D01*
X183875439Y-104507695D02*
X183875439Y-103694895D01*
X184185077Y-103694895D01*
X184262486Y-103733600D01*
X184301191Y-103772305D01*
X184339896Y-103849714D01*
X184339896Y-103965829D01*
X184301191Y-104043238D01*
X184262486Y-104081943D01*
X184185077Y-104120648D01*
X183875439Y-104120648D01*
X184920467Y-103694895D02*
X184920467Y-104275467D01*
X184881763Y-104391581D01*
X184804353Y-104468990D01*
X184688239Y-104507695D01*
X184610829Y-104507695D01*
X185230105Y-103694895D02*
X185771972Y-103694895D01*
X185423629Y-104507695D01*
X200849896Y-104507695D02*
X200578963Y-104120648D01*
X200385439Y-104507695D02*
X200385439Y-103694895D01*
X200695077Y-103694895D01*
X200772486Y-103733600D01*
X200811191Y-103772305D01*
X200849896Y-103849714D01*
X200849896Y-103965829D01*
X200811191Y-104043238D01*
X200772486Y-104081943D01*
X200695077Y-104120648D01*
X200385439Y-104120648D01*
X201430467Y-103694895D02*
X201430467Y-104275467D01*
X201391763Y-104391581D01*
X201314353Y-104468990D01*
X201198239Y-104507695D01*
X201120829Y-104507695D01*
X201933629Y-104043238D02*
X201856220Y-104004533D01*
X201817515Y-103965829D01*
X201778810Y-103888419D01*
X201778810Y-103849714D01*
X201817515Y-103772305D01*
X201856220Y-103733600D01*
X201933629Y-103694895D01*
X202088448Y-103694895D01*
X202165858Y-103733600D01*
X202204562Y-103772305D01*
X202243267Y-103849714D01*
X202243267Y-103888419D01*
X202204562Y-103965829D01*
X202165858Y-104004533D01*
X202088448Y-104043238D01*
X201933629Y-104043238D01*
X201856220Y-104081943D01*
X201817515Y-104120648D01*
X201778810Y-104198057D01*
X201778810Y-104352876D01*
X201817515Y-104430286D01*
X201856220Y-104468990D01*
X201933629Y-104507695D01*
X202088448Y-104507695D01*
X202165858Y-104468990D01*
X202204562Y-104430286D01*
X202243267Y-104352876D01*
X202243267Y-104198057D01*
X202204562Y-104120648D01*
X202165858Y-104081943D01*
X202088448Y-104043238D01*
M02*
