G04 #@! TF.FileFunction,Soldermask,Top*
%FSLAX46Y46*%
G04 Gerber Fmt 4.6, Leading zero omitted, Abs format (unit mm)*
G04 Created by KiCad (PCBNEW (2015-05-26 BZR 5680)-product) date Wednesday, May 27, 2015 'AMt' 09:24:48 AM*
%MOMM*%
G01*
G04 APERTURE LIST*
%ADD10C,0.100000*%
%ADD11R,1.727200X2.032000*%
%ADD12O,1.727200X2.032000*%
%ADD13C,1.371600*%
%ADD14C,3.250000*%
G04 APERTURE END LIST*
D10*
D11*
X189780000Y-136270000D03*
D12*
X192320000Y-136270000D03*
X194860000Y-136270000D03*
X197400000Y-136270000D03*
D11*
X174780000Y-136270000D03*
D12*
X177320000Y-136270000D03*
X179860000Y-136270000D03*
X182400000Y-136270000D03*
D11*
X159780000Y-136270000D03*
D12*
X162320000Y-136270000D03*
X164860000Y-136270000D03*
X167400000Y-136270000D03*
D11*
X144780000Y-136270000D03*
D12*
X147320000Y-136270000D03*
X149860000Y-136270000D03*
X152400000Y-136270000D03*
D11*
X189780000Y-128270000D03*
D12*
X192320000Y-128270000D03*
X194860000Y-128270000D03*
X197400000Y-128270000D03*
D11*
X174780000Y-128270000D03*
D12*
X177320000Y-128270000D03*
X179860000Y-128270000D03*
X182400000Y-128270000D03*
D11*
X159780000Y-128270000D03*
D12*
X162320000Y-128270000D03*
X164860000Y-128270000D03*
X167400000Y-128270000D03*
D11*
X189780000Y-136270000D03*
D12*
X192320000Y-136270000D03*
X194860000Y-136270000D03*
X197400000Y-136270000D03*
D11*
X174780000Y-136270000D03*
D12*
X177320000Y-136270000D03*
X179860000Y-136270000D03*
X182400000Y-136270000D03*
D11*
X159780000Y-136270000D03*
D12*
X162320000Y-136270000D03*
X164860000Y-136270000D03*
X167400000Y-136270000D03*
D11*
X144780000Y-136270000D03*
D12*
X147320000Y-136270000D03*
X149860000Y-136270000D03*
X152400000Y-136270000D03*
D11*
X189780000Y-128270000D03*
D12*
X192320000Y-128270000D03*
X194860000Y-128270000D03*
X197400000Y-128270000D03*
D11*
X174780000Y-128270000D03*
D12*
X177320000Y-128270000D03*
X179860000Y-128270000D03*
X182400000Y-128270000D03*
D11*
X159780000Y-128270000D03*
D12*
X162320000Y-128270000D03*
X164860000Y-128270000D03*
X167400000Y-128270000D03*
D11*
X189780000Y-136270000D03*
D12*
X192320000Y-136270000D03*
X194860000Y-136270000D03*
X197400000Y-136270000D03*
D11*
X174780000Y-136270000D03*
D12*
X177320000Y-136270000D03*
X179860000Y-136270000D03*
X182400000Y-136270000D03*
D11*
X159780000Y-136270000D03*
D12*
X162320000Y-136270000D03*
X164860000Y-136270000D03*
X167400000Y-136270000D03*
D11*
X144780000Y-136270000D03*
D12*
X147320000Y-136270000D03*
X149860000Y-136270000D03*
X152400000Y-136270000D03*
D11*
X189780000Y-128270000D03*
D12*
X192320000Y-128270000D03*
X194860000Y-128270000D03*
X197400000Y-128270000D03*
D11*
X174780000Y-128270000D03*
D12*
X177320000Y-128270000D03*
X179860000Y-128270000D03*
X182400000Y-128270000D03*
D11*
X159780000Y-128270000D03*
D12*
X162320000Y-128270000D03*
X164860000Y-128270000D03*
X167400000Y-128270000D03*
D11*
X189780000Y-136270000D03*
D12*
X192320000Y-136270000D03*
X194860000Y-136270000D03*
X197400000Y-136270000D03*
D11*
X174780000Y-136270000D03*
D12*
X177320000Y-136270000D03*
X179860000Y-136270000D03*
X182400000Y-136270000D03*
D11*
X159780000Y-136270000D03*
D12*
X162320000Y-136270000D03*
X164860000Y-136270000D03*
X167400000Y-136270000D03*
D11*
X144780000Y-136270000D03*
D12*
X147320000Y-136270000D03*
X149860000Y-136270000D03*
X152400000Y-136270000D03*
D11*
X189780000Y-128270000D03*
D12*
X192320000Y-128270000D03*
X194860000Y-128270000D03*
X197400000Y-128270000D03*
D11*
X174780000Y-128270000D03*
D12*
X177320000Y-128270000D03*
X179860000Y-128270000D03*
X182400000Y-128270000D03*
D11*
X159780000Y-128270000D03*
D12*
X162320000Y-128270000D03*
X164860000Y-128270000D03*
X167400000Y-128270000D03*
D11*
X189780000Y-136270000D03*
D12*
X192320000Y-136270000D03*
X194860000Y-136270000D03*
X197400000Y-136270000D03*
D11*
X174780000Y-136270000D03*
D12*
X177320000Y-136270000D03*
X179860000Y-136270000D03*
X182400000Y-136270000D03*
D11*
X159780000Y-136270000D03*
D12*
X162320000Y-136270000D03*
X164860000Y-136270000D03*
X167400000Y-136270000D03*
D11*
X144780000Y-136270000D03*
D12*
X147320000Y-136270000D03*
X149860000Y-136270000D03*
X152400000Y-136270000D03*
D11*
X189780000Y-128270000D03*
D12*
X192320000Y-128270000D03*
X194860000Y-128270000D03*
X197400000Y-128270000D03*
D11*
X174780000Y-128270000D03*
D12*
X177320000Y-128270000D03*
X179860000Y-128270000D03*
X182400000Y-128270000D03*
D11*
X159780000Y-128270000D03*
D12*
X162320000Y-128270000D03*
X164860000Y-128270000D03*
X167400000Y-128270000D03*
D11*
X189780000Y-136270000D03*
D12*
X192320000Y-136270000D03*
X194860000Y-136270000D03*
X197400000Y-136270000D03*
D11*
X174780000Y-136270000D03*
D12*
X177320000Y-136270000D03*
X179860000Y-136270000D03*
X182400000Y-136270000D03*
D11*
X159780000Y-136270000D03*
D12*
X162320000Y-136270000D03*
X164860000Y-136270000D03*
X167400000Y-136270000D03*
D11*
X144780000Y-136270000D03*
D12*
X147320000Y-136270000D03*
X149860000Y-136270000D03*
X152400000Y-136270000D03*
D11*
X189780000Y-128270000D03*
D12*
X192320000Y-128270000D03*
X194860000Y-128270000D03*
X197400000Y-128270000D03*
D11*
X174780000Y-128270000D03*
D12*
X177320000Y-128270000D03*
X179860000Y-128270000D03*
X182400000Y-128270000D03*
D11*
X159780000Y-128270000D03*
D12*
X162320000Y-128270000D03*
X164860000Y-128270000D03*
X167400000Y-128270000D03*
D11*
X189780000Y-136270000D03*
D12*
X192320000Y-136270000D03*
X194860000Y-136270000D03*
X197400000Y-136270000D03*
D11*
X174780000Y-136270000D03*
D12*
X177320000Y-136270000D03*
X179860000Y-136270000D03*
X182400000Y-136270000D03*
D11*
X159780000Y-136270000D03*
D12*
X162320000Y-136270000D03*
X164860000Y-136270000D03*
X167400000Y-136270000D03*
D11*
X144780000Y-136270000D03*
D12*
X147320000Y-136270000D03*
X149860000Y-136270000D03*
X152400000Y-136270000D03*
D11*
X189780000Y-128270000D03*
D12*
X192320000Y-128270000D03*
X194860000Y-128270000D03*
X197400000Y-128270000D03*
D11*
X174780000Y-128270000D03*
D12*
X177320000Y-128270000D03*
X179860000Y-128270000D03*
X182400000Y-128270000D03*
D11*
X159780000Y-128270000D03*
D12*
X162320000Y-128270000D03*
X164860000Y-128270000D03*
X167400000Y-128270000D03*
D11*
X189780000Y-136270000D03*
D12*
X192320000Y-136270000D03*
X194860000Y-136270000D03*
X197400000Y-136270000D03*
D11*
X174780000Y-136270000D03*
D12*
X177320000Y-136270000D03*
X179860000Y-136270000D03*
X182400000Y-136270000D03*
D11*
X159780000Y-136270000D03*
D12*
X162320000Y-136270000D03*
X164860000Y-136270000D03*
X167400000Y-136270000D03*
D11*
X144780000Y-136270000D03*
D12*
X147320000Y-136270000D03*
X149860000Y-136270000D03*
X152400000Y-136270000D03*
D11*
X189780000Y-128270000D03*
D12*
X192320000Y-128270000D03*
X194860000Y-128270000D03*
X197400000Y-128270000D03*
D11*
X174780000Y-128270000D03*
D12*
X177320000Y-128270000D03*
X179860000Y-128270000D03*
X182400000Y-128270000D03*
D11*
X159780000Y-128270000D03*
D12*
X162320000Y-128270000D03*
X164860000Y-128270000D03*
X167400000Y-128270000D03*
D11*
X144780000Y-128270000D03*
D12*
X147320000Y-128270000D03*
X149860000Y-128270000D03*
X152400000Y-128270000D03*
D13*
X156210000Y-88070000D03*
X153670000Y-88070000D03*
X147320000Y-90610000D03*
X148590000Y-88070000D03*
X149860000Y-90610000D03*
X151130000Y-88070000D03*
X152400000Y-90610000D03*
X154940000Y-90610000D03*
D14*
X146050000Y-96960000D03*
X157480000Y-96960000D03*
D11*
X144780000Y-128270000D03*
D12*
X147320000Y-128270000D03*
X149860000Y-128270000D03*
X152400000Y-128270000D03*
D11*
X144780000Y-128270000D03*
D12*
X147320000Y-128270000D03*
X149860000Y-128270000D03*
X152400000Y-128270000D03*
D11*
X144780000Y-128270000D03*
D12*
X147320000Y-128270000D03*
X149860000Y-128270000D03*
X152400000Y-128270000D03*
D11*
X144780000Y-128270000D03*
D12*
X147320000Y-128270000D03*
X149860000Y-128270000D03*
X152400000Y-128270000D03*
D11*
X144780000Y-128270000D03*
D12*
X147320000Y-128270000D03*
X149860000Y-128270000D03*
X152400000Y-128270000D03*
D11*
X144780000Y-128270000D03*
D12*
X147320000Y-128270000D03*
X149860000Y-128270000D03*
X152400000Y-128270000D03*
D11*
X144780000Y-128270000D03*
D12*
X147320000Y-128270000D03*
X149860000Y-128270000D03*
X152400000Y-128270000D03*
D13*
X172720000Y-88070000D03*
X170180000Y-88070000D03*
X163830000Y-90610000D03*
X165100000Y-88070000D03*
X166370000Y-90610000D03*
X167640000Y-88070000D03*
X168910000Y-90610000D03*
X171450000Y-90610000D03*
D14*
X162560000Y-96960000D03*
X173990000Y-96960000D03*
D13*
X189230000Y-88070000D03*
X186690000Y-88070000D03*
X180340000Y-90610000D03*
X181610000Y-88070000D03*
X182880000Y-90610000D03*
X184150000Y-88070000D03*
X185420000Y-90610000D03*
X187960000Y-90610000D03*
D14*
X179070000Y-96960000D03*
X190500000Y-96960000D03*
D13*
X205740000Y-88070000D03*
X203200000Y-88070000D03*
X196850000Y-90610000D03*
X198120000Y-88070000D03*
X199390000Y-90610000D03*
X200660000Y-88070000D03*
X201930000Y-90610000D03*
X204470000Y-90610000D03*
D14*
X195580000Y-96960000D03*
X207010000Y-96960000D03*
D13*
X156210000Y-105850000D03*
X153670000Y-105850000D03*
X147320000Y-108390000D03*
X148590000Y-105850000D03*
X149860000Y-108390000D03*
X151130000Y-105850000D03*
X152400000Y-108390000D03*
X154940000Y-108390000D03*
D14*
X146050000Y-114740000D03*
X157480000Y-114740000D03*
D13*
X172720000Y-105850000D03*
X170180000Y-105850000D03*
X163830000Y-108390000D03*
X165100000Y-105850000D03*
X166370000Y-108390000D03*
X167640000Y-105850000D03*
X168910000Y-108390000D03*
X171450000Y-108390000D03*
D14*
X162560000Y-114740000D03*
X173990000Y-114740000D03*
D13*
X189230000Y-105850000D03*
X186690000Y-105850000D03*
X180340000Y-108390000D03*
X181610000Y-105850000D03*
X182880000Y-108390000D03*
X184150000Y-105850000D03*
X185420000Y-108390000D03*
X187960000Y-108390000D03*
D14*
X179070000Y-114740000D03*
X190500000Y-114740000D03*
D13*
X205740000Y-105850000D03*
X203200000Y-105850000D03*
X196850000Y-108390000D03*
X198120000Y-105850000D03*
X199390000Y-108390000D03*
X200660000Y-105850000D03*
X201930000Y-108390000D03*
X204470000Y-108390000D03*
D14*
X195580000Y-114740000D03*
X207010000Y-114740000D03*
M02*
